<svg width="81" height="73" viewBox="0 0 81 73" fill="none" xmlns="http://www.w3.org/2000/svg">
<path d="M39.3125 0.036377C39.7962 0.0468836 40.1808 0.203931 40.4844 0.341064C41.3662 0.240155 42.1569 0.459821 42.7109 0.903564C42.7672 0.948738 42.7781 1.04492 42.8281 1.09106C42.9845 1.09621 43.1264 1.15749 43.2734 1.18481C43.6382 1.07888 44.0669 0.992403 44.5625 1.06763C44.9435 1.12687 45.271 1.26986 45.5469 1.41919C46.0119 1.23147 46.6097 1.09267 47.3281 1.25513C47.9694 1.40085 48.4003 1.74768 48.7344 2.07544C49.3937 1.9288 50.0848 1.9351 50.75 2.2395C51.1902 2.3253 51.5893 2.4749 51.9453 2.73169L52.0156 2.77856L52.0625 2.75513C52.8152 2.69862 53.3868 2.93705 53.8438 3.22388C54.3355 3.13982 54.8692 3.10919 55.4141 3.31763C55.4456 3.31459 55.4757 3.29628 55.5078 3.29419L56.9141 3.52856L57.0078 3.57544L57.125 3.62231L57.4531 3.83325C57.5349 3.82539 57.6245 3.81116 57.7109 3.80981H57.9219L58.6953 3.90356C59.195 4.02602 59.5674 4.31187 59.8906 4.58325C60.3595 4.47891 60.929 4.45563 61.5547 4.677C62.0951 4.87006 62.4969 5.17594 62.7734 5.47388L63.2891 6.22388L63.3125 6.31763C63.6636 6.10402 64.2719 5.82685 65.0703 5.87231C65.647 5.90544 66.1155 6.1205 66.5 6.3645C66.6045 6.37841 66.6999 6.43276 66.8047 6.45825C67.1991 6.3078 67.7208 6.20842 68.3281 6.29419C68.8638 6.37006 69.2985 6.57124 69.6406 6.80981L70.3906 7.53638C71.0396 7.27997 71.9767 7.15344 72.9219 7.65356C73.4089 7.9137 73.7377 8.26939 73.9531 8.56763C73.9828 8.56124 74.0164 8.57325 74.0469 8.56763C74.4024 8.35323 74.9772 8.09212 75.7344 8.12231C76.6018 8.15959 77.2248 8.58273 77.6562 8.9895C77.865 9.12038 78.0634 9.21434 78.1719 9.31763C78.2306 9.37388 78.2631 9.44972 78.3125 9.50513L79.25 9.7395V11.2395C79.3038 11.2915 79.3843 11.3204 79.4375 11.3801C79.9312 11.937 80.48 13.0299 80.0703 14.3333C80.0357 14.4431 79.9258 14.5164 79.8828 14.6145C79.9184 14.839 79.9651 15.0444 79.9531 15.2473C79.9936 15.4176 80.0595 15.5906 80.0703 15.7864C80.0764 15.8991 80.0284 16.0091 80.0234 16.1145C80.0978 16.3279 80.1854 16.5562 80.2109 16.8176C80.3196 17.9372 79.7729 18.669 79.3672 19.1145C79.5323 19.4103 79.6421 19.7637 79.6953 20.1926C79.8479 20.4449 79.9905 20.7549 80.0703 21.1301C80.1657 21.5808 80.1089 22.0045 80.0234 22.3958C80.0567 22.8101 80.0497 23.2292 79.9062 23.6379C79.8526 23.789 79.739 23.9106 79.6719 24.0364C79.6252 25.0121 79.1419 25.6419 78.7812 26.0051C78.8007 26.1282 78.777 26.2499 78.7812 26.3801L78.8047 26.427L78.8281 26.5676C78.8897 26.6144 78.9776 26.63 79.0391 26.6848C79.3118 26.9285 79.8172 27.4604 80 28.3254C80.1568 29.0675 79.9627 29.7075 79.7188 30.2239C79.7168 30.3404 79.6884 30.4554 79.6719 30.5754C79.6853 30.6667 79.7135 30.7589 79.7188 30.8567C79.7377 31.2229 79.6608 31.5516 79.5781 31.8411C79.5975 31.8986 79.6558 31.9446 79.6719 32.0051L79.6953 33.3879L79.6719 33.5051L79.6484 33.5989C79.6356 33.6631 79.5932 33.723 79.5781 33.7864C79.6961 33.9956 79.8323 34.229 79.9062 34.5129C79.995 34.8574 80.004 35.2121 79.9766 35.5442L79.7422 36.5051L79.6719 36.6458C79.6769 36.7232 79.7196 36.7991 79.7188 36.8801C79.7126 37.3782 79.5778 37.7992 79.4141 38.1458C79.6954 38.4523 80.0624 38.9478 80.2109 39.6458C80.3203 40.1688 80.238 40.6552 80.1172 41.0989C80.2508 41.4093 80.3589 41.7805 80.375 42.2004C80.3951 42.7625 80.2352 43.2373 80.0469 43.6301C79.9727 44.0979 79.7281 44.4482 79.5312 44.7551C79.7378 45.0138 79.9888 45.3196 80.1172 45.7395C80.2978 46.335 80.2337 46.8692 80.1172 47.3333C80.117 47.3633 80.1182 47.3965 80.1172 47.427C80.0964 48.0167 79.8875 48.4914 79.6719 48.8567C80.0023 49.4284 80.2524 50.2085 80.0234 51.1067C79.994 51.2219 79.8983 51.3086 79.8594 51.4114C80.0333 51.7288 80.1937 52.1245 80.2344 52.6067C80.2941 53.3392 80.0479 53.8993 79.7891 54.3411C79.8863 54.7639 79.8958 55.2238 79.7656 55.7473C79.9714 56.1721 80.1297 56.6966 80.0703 57.3411C80.0421 57.641 79.95 57.8988 79.8594 58.1379C79.9534 58.3685 80.1038 58.5962 80.1406 58.8879L80.1641 58.9583V59.0051L80.2812 59.6145C80.3062 59.868 80.3244 60.1711 80.2578 60.5051C80.0944 61.3068 79.5906 62.0094 78.8984 62.4504C78.3111 62.8236 77.7559 62.9007 77.4688 62.9192L77.4219 62.8958C76.9664 63.287 76.4236 63.5055 75.8281 63.5989L75.8047 63.6458C75.6037 63.8265 75.3621 63.9706 75.125 64.0911C74.9387 64.3396 74.7215 64.6215 74.3984 64.8411L73.3906 65.2864L73.2734 65.3098L73.1797 65.3333C72.3822 65.5313 71.7177 65.3486 71.2344 65.1458C71.1119 65.1359 70.9945 65.1449 70.8828 65.1223C70.6086 65.3381 70.2788 65.5632 69.8516 65.6848C69.5068 65.7818 69.1851 65.7916 68.8906 65.7786C68.5192 65.993 68.0892 66.1425 67.5781 66.177C67.4284 66.2314 67.2822 66.331 67.1094 66.3645C66.7965 66.4246 66.509 66.3893 66.2422 66.3645C66.2 66.4065 66.1947 66.4876 66.1484 66.5286C65.7001 66.9253 65.0574 67.2514 64.2969 67.302C64.132 67.3124 63.977 67.2685 63.8281 67.2551C63.6907 67.3478 63.5642 67.4616 63.4062 67.5364L62.375 67.8411L62.2578 67.8645H62.1641C61.8571 67.8997 61.5807 67.8103 61.3203 67.7708C61.2876 67.7854 61.2606 67.8273 61.2266 67.8411C60.5189 68.126 59.835 68.0663 59.2812 67.9114C58.8523 68.2291 58.3569 68.4997 57.7344 68.5442C57.6141 68.6129 57.4985 68.7005 57.3594 68.7551L56.5859 68.9426L56.4922 68.9661H56.375C56.0767 68.9999 55.8065 68.9585 55.5547 68.9192C54.931 69.4817 54.0596 69.83 53.0938 69.6926C52.8531 69.6582 52.6524 69.5538 52.4609 69.4817L52.3906 69.5754L52.2969 69.6458C51.8385 70.0464 51.1898 70.3625 50.4219 70.3958C49.7914 70.4209 49.2891 70.2388 48.9453 70.0676C48.6861 70.4011 48.3394 70.7676 47.7969 71.0051C46.8777 71.4045 46.0791 71.2577 45.5 71.0286C45.0649 71.2899 44.6066 71.4339 44.0703 71.4504C43.9745 71.5148 43.9008 71.6276 43.7891 71.6848C43.013 72.0803 42.1931 72.0905 41.5391 71.8958C41.4681 71.8743 41.4177 71.8038 41.3516 71.7786C41.1727 71.824 40.9908 71.9305 40.7891 71.9426C40.4563 71.9615 40.1643 71.8906 39.8984 71.8254C39.6516 71.8245 39.4136 71.7921 39.1719 71.7317C38.8265 71.7523 38.4524 71.7566 38.0703 71.6379L38.0469 71.6145C37.4924 71.8765 36.6423 72.1809 35.6328 71.7786C35.3785 71.6763 35.1649 71.5411 34.9766 71.4036C34.6004 71.4182 34.2237 71.3614 33.8281 71.2161C33.7783 71.2133 33.7154 71.2449 33.6641 71.2395C33.2921 71.1994 32.9834 71.069 32.7031 70.9348C32.2769 70.9398 31.8818 70.9121 31.5312 70.7708L30.5 70.0911L30.4297 69.9973L30.4062 69.9739C29.8838 70.1377 29.221 70.2373 28.4609 69.9504C28.038 69.7894 27.7321 69.5369 27.4766 69.2942C27.3547 69.3112 27.236 69.3862 27.1016 69.3879C26.9462 69.3894 26.8001 69.2906 26.6562 69.2708C26.3245 69.3267 25.9468 69.3813 25.5312 69.2942C25.0175 69.1851 24.6258 68.9527 24.3125 68.7083C23.9526 68.6127 23.6618 68.4235 23.3984 68.2395C23.1966 68.3446 22.9655 68.4557 22.6953 68.5208L21.7578 68.5911H21.6406L21.5469 68.5676C20.5383 68.4972 19.9103 67.9754 19.5078 67.5129C19.3705 67.5258 19.2332 67.591 19.0859 67.5833L17.8438 67.2551L17.75 67.1848L17.6562 67.1379C17.6212 67.1204 17.5962 67.086 17.5625 67.0676C17.3708 67.0316 17.153 67.055 16.9531 66.9739C16.7451 66.8889 16.6 66.7319 16.4375 66.6223C16.2275 66.6185 16.0376 66.5687 15.8516 66.5286C15.5638 66.555 15.2571 66.5739 14.9375 66.5051L14.0703 66.177L13.9766 66.1301L13.8828 66.0598C13.7988 66.0125 13.7469 65.9238 13.6719 65.8723C13.4396 65.8748 13.1831 65.9353 12.9219 65.8723C12.7234 65.8239 12.572 65.6904 12.4062 65.6145C12.1552 65.6966 11.871 65.8182 11.5391 65.8254C11.2765 65.8305 11.0457 65.7157 10.8125 65.6614C10.772 65.6687 10.7372 65.7259 10.6953 65.7317C9.9433 65.8352 9.30386 65.5963 8.77344 65.2864C8.73279 65.2832 8.6972 65.2443 8.65625 65.2395C8.31506 65.2889 7.92962 65.3434 7.50781 65.2395C6.70929 65.0423 6.19882 64.564 5.89062 64.1848C5.7335 64.1887 5.57063 64.2322 5.39844 64.2083C5.0141 64.1535 4.67974 64.0127 4.39062 63.8567C3.81709 63.8806 3.05069 63.7935 2.32812 63.177C1.42944 62.4052 1.32659 61.4266 1.32031 60.9036C0.887002 60.4908 0.330096 59.8092 0.335938 58.7239C0.340595 57.9717 0.646151 57.4056 0.921875 57.0129L0.710938 56.7551V56.7083L0.664062 56.6145L0.59375 56.4973C0.230595 55.8282 0.155778 55.0532 0.335938 54.3176C0.323819 54.2542 0.274104 54.1969 0.265625 54.1301C0.178642 53.4313 0.346629 52.864 0.570312 52.4192C0.571434 52.196 0.547765 51.9913 0.59375 51.7864C0.526068 50.9268 0.796295 50.2972 1.13281 49.8411C1.02272 49.5826 0.931631 49.2907 0.898438 48.9504C0.887865 48.8397 0.921186 48.7267 0.921875 48.6223C0.619034 48.1649 0.32475 47.5537 0.359375 46.7473V46.5364L0.382812 46.302V46.0911L0.710938 45.0129C0.592359 44.7973 0.428533 44.5777 0.359375 44.2864C0.18132 43.5329 0.378908 42.8881 0.617188 42.3645C0.455953 42.0134 0.312987 41.6007 0.3125 41.0989C0.312628 40.4086 0.524751 39.8645 0.78125 39.4583C0.799985 39.3254 0.818488 39.2029 0.851562 39.0833C0.659632 38.6805 0.479507 38.2028 0.5 37.6301C0.517004 37.1652 0.650166 36.7707 0.804688 36.4348C0.771135 36.3636 0.693416 36.3016 0.664062 36.2239C0.286898 35.2188 0.590225 34.3571 0.945312 33.7161C0.905178 33.5371 0.903689 33.3552 0.898438 33.1536C0.576009 32.6835 0.221456 32.0005 0.335938 31.0911C0.353296 30.9532 0.444356 30.8395 0.476562 30.7161C0.227101 29.9869 0.338211 29.3076 0.570312 28.7004C0.573456 28.6477 0.517447 28.5904 0.523438 28.5364L0.546875 28.5129C0.234846 27.8121 0.0744841 26.9906 0.40625 26.1458C0.310653 25.7006 0.322848 25.2901 0.40625 24.9036C0.393933 24.7126 0.386846 24.5357 0.40625 24.3645C0.357349 24.0466 0.36172 23.7142 0.429688 23.3567C0.176758 22.8231 -0.00621741 22.1543 0.21875 21.3176L0.242188 21.2004L0.289062 21.1067L0.757812 20.0754L0.804688 20.0286C0.857606 19.8692 0.842204 19.6865 0.921875 19.5364C0.965123 19.4549 1.03907 19.3976 1.08594 19.3254C0.989513 19.1279 0.860867 18.9245 0.804688 18.6692C0.697264 18.1806 0.749953 17.7252 0.851562 17.3098C0.652938 16.9551 0.501358 16.5342 0.476562 15.9973C0.375288 15.6691 0.299833 15.3003 0.335938 14.8723L0.171875 13.9817C0.140731 13.1082 0.508244 12.3693 0.898438 11.8958C1.00337 11.7686 1.14236 11.6888 1.25 11.5911V9.7395L3.05469 9.31763C3.10174 9.26873 3.13888 9.20478 3.19531 9.15356C3.37915 8.98722 3.75997 8.65541 4.34375 8.47388C4.37383 8.46454 4.40675 8.45892 4.4375 8.45044C4.57233 8.31914 4.72698 8.19145 4.90625 8.07544C5.57436 7.64442 6.37103 7.49456 7.10938 7.63013C7.16827 7.64103 7.21785 7.68681 7.27344 7.70044C7.55644 7.42855 7.95418 7.16337 8.46875 6.99731C8.56177 6.96752 8.65901 6.97057 8.75 6.95044C9.16658 6.74385 9.6642 6.58988 10.25 6.62231C10.994 6.66589 11.5382 6.99511 11.8672 7.23169C11.9345 7.14044 11.9693 7.01836 12.0547 6.927C12.4737 6.47973 13.069 6.11007 13.7656 5.9895C13.8121 5.96718 13.8571 5.93981 13.9062 5.91919C14.6814 5.59681 15.4151 5.67813 15.9688 5.84888C16.0193 5.84156 16.0803 5.83061 16.1328 5.82544C16.2209 5.81706 16.3069 5.82633 16.3906 5.82544C16.6038 5.55121 16.9276 5.26238 17.3516 5.02856C17.9732 4.68833 18.5903 4.64085 19.1328 4.70044C19.3431 4.67274 19.5459 4.66359 19.7422 4.677C20.1108 4.48183 20.4914 4.36212 20.8672 4.32544C21.3737 4.01587 22.014 3.78729 22.7891 3.88013C22.9784 3.90307 23.1433 3.9949 23.3047 4.04419C23.6718 3.93592 24.0401 3.89666 24.4062 3.927C24.7727 3.56226 25.2861 3.23125 26 3.10669C26.1983 3.00577 26.3836 2.83875 26.6328 2.77856C27.3054 2.6167 27.8739 2.76613 28.3203 2.91919C28.8588 2.46247 29.5995 2.02313 30.5938 2.14575C30.6192 2.14893 30.6391 2.18888 30.6641 2.19263C31.6593 1.57286 32.7413 1.64498 33.5 1.98169C33.5246 1.99263 33.5465 2.01722 33.5703 2.02856C33.6176 2.03315 33.6653 2.02204 33.7109 2.02856C33.7496 2.01252 33.788 1.9964 33.8281 1.98169C34.0148 1.84526 34.242 1.76959 34.4609 1.677C34.7721 1.3076 35.2487 0.868349 35.9844 0.669189C36.2746 0.591684 36.5491 0.57259 36.8047 0.575439C36.8605 0.54238 36.9085 0.488954 36.9688 0.458252C37.5694 0.152703 38.1374 0.101697 38.6328 0.153564C38.8504 0.107716 39.0756 0.0318963 39.3125 0.036377ZM46.7422 68.5676L46.6016 68.7083H46.6719L46.7422 68.5676L46.9062 68.427H46.8359L46.7422 68.5676ZM46.6719 68.7083H46.6016L46.7422 68.5676L46.6719 68.7083ZM44 68.3333H44.0469L44.3047 68.0754H44.3516L44.1641 68.3567L44.375 68.3801L45.2656 67.9583L45.2188 68.1926L45.1719 68.5208L45.1953 68.4973H45.1719L45.2656 67.9583L44.8672 68.1458L44.1875 68.052L44 68.3333ZM46.9062 68.427L46.7422 68.5676L46.8359 68.427H46.9062ZM34.8359 68.2864V68.3567L34.9531 68.3333L34.9297 68.2161L34.8359 68.2864ZM44.3516 68.0754L44.8672 68.1458L44.375 68.3801L44.1641 68.3567L44.3516 68.0754ZM34.9531 68.3333L34.8359 68.3567V68.2864L34.9297 68.2161L34.9531 68.3333ZM44.3047 68.0754L44.0469 68.3333H44L44.1875 68.052L44.3047 68.0754ZM47 68.0989V68.1458L47.0469 68.0989H47ZM47.0469 68.0989L47 68.1458V68.0989H47.0469ZM33.1953 67.2083L33.125 67.2786L32.9141 67.302L32.8906 67.3254H32.7031L32.8203 67.3958L32.8906 67.3254H33.0547L33.125 67.2786L33.2891 67.2551L33.1953 67.2083ZM50.6797 66.2473L50.1406 66.6926H50.5156L50.6094 66.6692H50.5391L50.4922 66.6926H50.1406L50.6328 66.2708H50.75V66.4583L50.9609 66.2708L51.4297 66.2942L51.5469 66.2473H50.6797ZM47.4219 67.4661L47.4688 67.4426H47.4453L47.4219 67.4661L47.3516 67.4895H47.3984L47.4219 67.4661ZM49.6484 67.0911H49.6953L49.7891 67.0208L49.6484 67.0911ZM47.2578 67.4895L47.2109 67.5364L47.3047 67.4895H47.2578ZM44.7734 67.3958L44.7031 67.5129L44.5859 67.5598L44.6562 67.5833L44.7031 67.5129L44.8672 67.4192L44.7734 67.3958ZM44.6562 67.5598H44.6094L44.7031 67.5129L44.6562 67.5598ZM47.3047 67.4895L47.2109 67.5364L47.2578 67.4895H47.3047ZM44.8672 67.4192L44.7031 67.5129L44.7734 67.3958L44.8672 67.4192ZM31.4141 67.2786L31.3906 67.3723L31.4609 67.2786H31.4141ZM32.8906 67.3254L32.8203 67.3958L32.7031 67.3254H32.8906ZM31.4609 67.2786L31.3906 67.3723L31.4141 67.2786H31.4609ZM33.0547 67.3254H32.8906L32.9141 67.302L33.125 67.2786L33.0547 67.3254ZM33.2891 67.2551L33.125 67.2786L33.1953 67.2083L33.2891 67.2551ZM48.9219 66.6926L48.875 66.7395L48.9688 66.6926H48.9219ZM56.2812 66.2942L56.3047 66.5286L56.1172 66.7395L56.1406 66.9973L56.3281 66.7864L56.3047 66.5286L56.6094 66.177L56.3984 66.1536L56.2812 66.2942ZM49.6953 67.0911H49.6484L49.7891 67.0208L49.6953 67.0911ZM52.0625 66.7161L51.8516 67.0208V66.7395L51.875 66.7161H52.0625ZM56.2344 66.8801L56.1406 66.9973L56.1172 66.7395L56.2109 66.6458L56.2344 66.8801ZM56.3281 66.7864L56.2344 66.8801L56.2109 66.6458L56.3047 66.5286L56.3281 66.7864ZM45.3828 66.4583H45.3594V66.4817L45.4531 66.3411L45.5469 66.3645L45.5234 66.4348L45.5703 66.3879L45.7344 66.4583H45.7578L45.5703 66.3879L45.5234 66.4348L45.5469 66.3645L45.4531 66.3411L45.3828 66.4583ZM51.9688 66.7161H51.8984L51.9688 66.5989V66.7161ZM47 66.5286L46.8359 66.4817V66.5286H47ZM50.6094 66.6692L50.5156 66.6926H50.4922L50.5391 66.6692H50.6094ZM47 66.5286H46.8359V66.4817L47 66.5286ZM56.6094 66.177L56.3047 66.5286L56.2812 66.2942L56.3984 66.1536L56.6094 66.177ZM50.8438 66.2708V66.3645L50.75 66.4583V66.2708H50.8438ZM50.9609 66.2708L50.8438 66.3645V66.2708H50.9609ZM54.7812 66.0129L54.8047 66.2473L55.2734 65.9661L54.9219 65.9192L54.7812 66.0129ZM51.5469 66.2473L51.4297 66.2942L50.6328 66.2708L50.6797 66.2473H51.5469ZM55.2734 65.9661L54.8047 66.2473L54.7812 66.0129L54.9219 65.9192L55.2734 65.9661ZM49.0859 66.2004V66.2473L49.1328 66.2004H49.0859ZM49.1328 66.2004L49.0859 66.2473V66.2004H49.1328ZM27.2891 66.177L28.25 66.2004L28.6719 66.1067L28.0859 66.1301L27.8984 66.0364L27.2891 66.177ZM28.625 66.1301L28.25 66.2004L27.1484 66.177L28.6719 66.1067L28.625 66.1301ZM58.0391 65.5442H58.25L58.3438 65.2864L58.5078 65.2161L58.5312 65.1458H58.4141L58.3438 65.2864L58.0625 65.4036L58.0391 65.5442ZM25.2031 65.8489L25.25 65.8254L25.2031 65.802V65.8489ZM25.25 65.8254L25.2031 65.8489V65.802L25.25 65.8254ZM29.3047 65.7083L29.3984 65.6848L28.9766 65.7083H29.3047ZM29.3047 65.7083H28.9766L29.3984 65.6848L29.3047 65.7083ZM27.1484 65.427H27.1016L27.2656 65.5442L27.5469 65.4036L27.1484 65.427ZM27.2656 65.5442L27.1016 65.427H27.1484L27.5469 65.4036L27.2656 65.5442ZM56.4688 65.2161L56.0469 65.4973H56.1875V65.427L56.5391 65.2161H56.4688ZM58.2969 65.427L58.25 65.5442H58.0391L58.0625 65.4036L58.3438 65.2864L58.2969 65.427ZM56.1875 65.4973H56.0703L56.1875 65.427V65.4973ZM56.5391 65.2161L56.0703 65.4973V65.4739L56.4688 65.2161H56.5391ZM51.6875 65.1692V65.3098L51.7812 65.2395L51.6875 65.1692ZM65.8906 64.5364L66.0781 64.5833L66.2422 64.3723L66.0547 64.3489L65.8906 64.5364ZM51.7812 65.2395L51.6875 65.3098V65.1692L51.7812 65.2395ZM58.5312 65.1458L58.5078 65.2161L58.3438 65.2864L58.4141 65.1458H58.5312ZM56.6094 64.7942L56.0938 65.0754H55.9297V65.1692L55.9766 65.1458H55.9297V65.0754H56.1406L56.6094 64.7942ZM56.4219 64.8879L56.1406 65.0754H56.0938L56.3984 64.8879H56.4219ZM22.625 64.9114L22.3203 64.9817L22.3672 65.0051L22.625 64.9114ZM22.5547 64.9348L22.3672 65.0051L22.3203 64.9817L22.5312 64.9348H22.5547ZM66.2422 64.3723L66.0781 64.5833L65.8906 64.5364L66.0547 64.3489L66.2422 64.3723ZM72.6406 16.8411C72.4488 16.9199 72.2384 16.8748 72.0547 16.9114C71.4 17.3654 70.6652 17.5241 69.9453 17.427C69.7691 17.5417 69.6116 17.7177 69.3828 17.802C68.8971 17.9796 68.4419 18.004 68.0469 17.9661C67.8684 18.0339 67.6946 18.1656 67.4844 18.2004C67.0921 18.2645 66.7398 18.2135 66.4297 18.1536C66.3664 18.1875 66.3109 18.2634 66.2422 18.2942C65.7234 18.5242 65.1898 18.5531 64.6953 18.5051L64.6719 18.5286C63.822 18.9594 63.0433 18.8297 62.4453 18.6458C62.1446 18.9213 61.7746 19.2018 61.25 19.3489C61.1845 19.3671 61.1028 19.3353 61.0391 19.3489C60.6454 19.5676 60.184 19.768 59.6094 19.7708C59.571 19.7709 59.5296 19.7485 59.4922 19.7473C59.4326 19.7821 59.3931 19.8559 59.3281 19.8879C58.5558 20.2695 57.7424 20.2671 57.1016 20.0754C56.9279 20.0232 56.8009 19.8896 56.6562 19.8176C56.583 19.8052 56.5138 19.811 56.4453 19.7942C56.2324 19.914 56.0094 20.0334 55.7422 20.0989C55.6603 20.1654 55.5559 20.2018 55.4609 20.2629C55.296 20.4677 55.0898 20.7035 54.8047 20.8958C54.0547 21.3992 53.1535 21.5136 52.3672 21.3176C52.0504 21.2376 51.8279 21.0422 51.6172 20.9192C51.4047 21.0093 51.1783 21.0194 50.9375 21.0598C50.849 21.1794 50.8259 21.3613 50.7031 21.4817C50.1103 22.0599 49.2086 22.4567 48.1953 22.3254C48.0206 22.3027 47.8755 22.2063 47.7266 22.1614C47.4136 22.3003 47.1328 22.412 46.8359 22.4426C46.7566 22.5096 46.6944 22.614 46.6016 22.677C45.821 23.2044 44.8974 23.3135 44.0938 23.0989L44.0703 23.0754C44.0687 23.2078 44.0641 23.3289 44.0469 23.4504L44.1875 23.8958V23.9895L44.2109 24.1067V24.9973C44.2048 25.0386 44.1718 25.0744 44.1641 25.1145C44.1969 25.4094 44.2565 25.7186 44.1875 26.052C44.1641 26.1646 44.0798 26.2551 44.0469 26.3567C44.0484 26.6712 44.0028 26.9462 43.9297 27.2004C44.0324 27.5337 44.0773 27.8981 44.0469 28.302C44.1449 28.8698 44.1184 29.4155 43.9062 29.9661C44.0525 30.4188 44.0734 30.8484 44.0234 31.2551V31.5833L44 31.7004V31.7942C43.9691 31.9816 43.8688 32.1487 43.8125 32.3098L44 32.6379L44.0469 32.7551L44.0703 32.8489L44.2109 34.2317C44.2013 34.2981 44.1546 34.3557 44.1406 34.4192C44.1763 34.6493 44.1652 34.8879 44.1406 35.1458C44.351 35.9025 44.2734 36.661 43.9766 37.2786L43.9531 37.302C43.973 37.4708 44.0105 37.6524 44 37.8411C43.9892 38.0279 43.921 38.1933 43.8828 38.3567C43.8877 38.4667 43.8659 38.5744 43.8594 38.6848C43.9437 39.01 43.9454 39.3564 43.9062 39.7395C43.9129 39.7784 43.9244 39.8166 43.9297 39.8567C43.9702 40.1719 43.9784 40.4872 43.9297 40.7708L43.7422 41.3333C43.8931 41.6208 44.0217 41.9702 44.0703 42.3879C44.1095 42.7261 44.0583 43.0359 44 43.3254C44.0039 43.3646 44.021 43.4025 44.0234 43.4426C44.056 43.9958 43.9208 44.4779 43.7422 44.8723L43.625 46.2083L43.5781 46.2551C43.6701 46.4762 43.7048 46.7269 43.7422 47.0051C43.7825 47.0978 43.8499 47.1826 43.8828 47.2864C43.9645 47.546 43.9176 47.8126 43.9297 48.0598C43.9488 48.1149 43.9834 48.1655 44 48.2239C44.1137 48.6236 44.1354 49.0186 44.0938 49.3958L43.7891 50.427L43.7422 50.5442L43.6953 50.6379C43.6668 50.6952 43.5851 50.725 43.5547 50.7786C43.5526 50.8853 43.6153 50.9953 43.6016 51.1067L43.5781 51.1301C43.63 51.4836 43.6371 51.858 43.5312 52.2786C43.8382 52.7113 44.1142 53.328 44.0938 54.1067C44.2122 54.3389 44.3193 54.6021 44.375 54.9036V55.9817L44.3516 56.0754V56.1926C44.3101 56.4306 44.1502 56.6093 44.0703 56.802L44.0938 56.8489C44.1044 57.1311 44.0272 57.3857 43.9766 57.6223C43.9894 57.7533 43.981 57.8837 43.9766 58.0208C44.1496 58.4409 44.2939 58.9328 44.2109 59.5442C44.1446 60.031 43.9542 60.4115 43.7656 60.7161C43.8468 60.9558 43.9079 61.1934 43.9297 61.4426C43.9438 61.5167 43.9675 61.5983 43.9766 61.677C44.1566 62.0887 44.2758 62.5993 44.2109 63.2004C44.1938 63.3579 44.0833 63.4832 44.0469 63.6223C44.0516 63.7861 44.0203 63.9388 44 64.0911V64.1145C44.0131 64.1563 44.0587 64.1882 44.0703 64.2317C44.086 64.2911 44.0818 64.3607 44.0938 64.4192C44.2265 64.3294 44.3519 64.2124 44.5156 64.1379C44.9964 63.9192 45.4701 63.8375 45.8984 63.8567C45.9567 63.8096 45.9979 63.7374 46.0625 63.6926C46.5191 63.3763 47.074 63.2088 47.6562 63.177C47.6793 63.1612 47.7027 63.1456 47.7266 63.1301C48.2779 62.7769 48.8631 62.6319 49.3906 62.6379C49.7256 62.4758 50.1278 62.3764 50.5859 62.3567H50.7969L51.8984 62.4973C52.1204 62.5686 52.3042 62.6694 52.4609 62.7551C52.8696 62.387 53.4667 62.0719 54.2656 62.0051L54.3594 61.9817C54.5146 61.9379 54.6583 61.906 54.8047 61.8879C55.1495 61.6639 55.5831 61.4812 56.0938 61.4192C56.2751 61.3975 56.4459 61.4342 56.6094 61.4426C56.719 61.3825 56.8358 61.305 56.9609 61.2551L56.9844 61.2317H57.0078C57.5537 60.6796 58.4071 60.2538 59.4219 60.3411C60.2735 60.4163 60.8476 60.8269 61.0859 61.0208C61.1664 61.0862 61.2058 61.1883 61.2734 61.2551C61.5178 61.3015 61.7394 61.3607 61.9297 61.4426C62.1378 61.3426 62.354 61.2642 62.5859 61.2083C63.0181 60.8609 63.5466 60.5658 64.2031 60.5051C64.3602 60.4511 64.5159 60.4157 64.6719 60.3879C64.7781 60.3352 64.8817 60.2655 65 60.2239C65.1022 59.9539 65.282 59.5349 65.6562 59.1458C66.1284 58.6563 66.8012 58.2776 67.5781 58.2083L68.3984 58.2551L68.4922 58.2786L68.6094 58.302H68.6562C68.7992 58.2052 68.949 58.0994 69.125 58.0208L69.3125 57.927L70.1797 57.6926C70.7958 57.615 71.3218 57.782 71.7266 57.9504C71.9474 57.7076 72.2507 57.4448 72.6641 57.2473C72.7077 57.2266 72.7608 57.2188 72.8047 57.2004C72.9274 56.6884 73.1429 56.289 73.3672 56.0051C73.359 55.8489 73.3982 55.6955 73.4141 55.5364L73.1094 54.9504L73.0625 54.8333L73.0391 54.7395C72.9373 54.4278 72.906 54.1096 72.8984 53.802C72.7325 53.5643 72.5792 53.2774 72.4766 52.9348C72.253 52.1807 72.3478 51.529 72.5469 51.0129C72.1494 50.2866 71.9566 49.3419 72.3125 48.3645L72.3359 48.2942C72.374 48.0528 72.3494 47.8132 72.4297 47.6145C72.4563 47.2413 72.5612 46.8698 72.7344 46.5129C72.7495 46.4817 72.7654 46.4491 72.7812 46.4192C72.7381 46.0103 72.7559 45.635 72.8516 45.2942C72.7196 44.8503 72.6595 44.3565 72.7578 43.8411C72.7688 43.7841 72.7911 43.7313 72.8047 43.677C72.8052 43.5384 72.7841 43.397 72.8047 43.2551L72.7578 43.2083L72.1953 41.8958V41.802L72.1719 41.6848C72.0601 40.9961 72.1752 40.4079 72.3828 39.9504C72.2967 39.5453 72.2861 39.0811 72.4062 38.5911L72.4297 38.4973L72.4531 38.3801L72.6641 37.8645C72.6347 37.3106 72.6987 36.7767 72.9219 36.3176L72.9688 36.2239V36.2004C72.9307 36.149 72.8645 36.1162 72.8281 36.0598C72.5513 35.6303 72.3278 35.0164 72.3594 34.2786C72.3781 33.8591 72.4587 33.4829 72.5938 33.177C72.5196 32.9543 72.4715 32.7117 72.4531 32.4504C72.2845 31.9602 72.231 31.4409 72.3359 30.9036C72.3276 30.8191 72.2904 30.7353 72.2891 30.6458C72.282 30.1808 72.3849 29.7838 72.5234 29.4504C72.5337 29.3405 72.5022 29.2268 72.5234 29.1223C72.3888 28.5324 72.3801 27.9057 72.6172 27.3176V27.2942C72.3701 26.806 72.2287 26.2204 72.3125 25.5364L72.2891 25.4895C72.0321 24.5214 72.2906 23.6372 72.6875 23.0286C72.7532 22.9281 72.8526 22.8546 72.9219 22.7708C72.9522 22.6301 72.9704 22.4965 73.0156 22.3723C73.0091 22.2543 72.9607 22.1235 72.9688 21.9973C72.9732 21.9321 73.0075 21.8722 73.0156 21.8098C72.931 21.6922 72.7861 21.6059 72.7109 21.4583C72.5167 21.0753 72.3992 20.6414 72.3828 20.1926C72.2552 19.8391 72.1625 19.4294 72.1953 18.9504V18.8333L72.2188 18.7395L72.6172 17.4036C72.6609 17.3274 72.7119 17.2596 72.7578 17.1926C72.7768 17.0606 72.7952 16.9365 72.8281 16.8176C72.8128 16.7868 72.7958 16.756 72.7812 16.7239C72.729 16.749 72.6964 16.8181 72.6406 16.8411ZM8.30469 17.6614L7.95312 18.7161L7.90625 18.8333L7.83594 18.927C7.80928 18.975 7.74697 18.9991 7.71875 19.0442C7.87725 19.3301 8.03689 19.677 8.09375 20.0989C8.2085 20.9635 7.88688 21.6363 7.57812 22.1145C7.70727 22.3745 7.85639 22.6689 7.90625 23.0286C7.97962 23.5663 7.88415 24.0352 7.74219 24.4348C8.00667 24.854 8.29086 25.4276 8.25781 26.1692C8.23097 26.7593 8.00416 27.2182 7.78906 27.5754C7.85927 27.9707 7.87795 28.3968 7.76562 28.8411C7.7391 28.946 7.65952 29.0278 7.625 29.1223V29.1458C7.95319 29.581 8.32308 30.2757 8.25781 31.1848C8.21072 31.8344 7.91781 32.3063 7.67188 32.6614C7.97981 33.1207 8.29573 33.7685 8.21094 34.6301C8.18334 34.902 8.10314 35.1376 8.02344 35.3567L8.07031 35.427L8.35156 36.2004C8.47478 36.7975 8.37714 37.3965 8.16406 37.9348C8.27813 38.2065 8.39427 38.5053 8.42188 38.8489L8.375 39.6926L8.35156 39.7864L8.32812 39.9036C8.1974 40.5576 7.85206 41.0004 7.57812 41.3098C7.61529 41.3777 7.70841 41.4223 7.74219 41.4973C7.93227 41.9207 7.96876 42.3856 7.95312 42.8567C8.02653 43.0099 8.11463 43.1658 8.16406 43.3489L8.25781 44.3333V44.4504C8.36661 44.8584 8.40224 45.3342 8.30469 45.8333C8.18647 46.4288 7.87243 46.8413 7.625 47.1458C7.65547 47.2615 7.72534 47.3711 7.74219 47.4973L7.71875 48.4583L7.69531 48.552L7.67188 48.6223L7.69531 48.6692L7.67188 48.6926C7.96828 49.1488 8.28613 49.786 8.21094 50.6145C8.16209 51.147 7.96664 51.5703 7.76562 51.9036C7.9125 52.2943 8.06213 52.7172 8.02344 53.1926L7.8125 54.0598L7.76562 54.177L7.71875 54.2708C7.69156 54.3394 7.6319 54.395 7.60156 54.4583C7.60985 54.8961 7.4956 55.2771 7.36719 55.6067C7.39814 55.6622 7.45563 55.7106 7.48438 55.7708C7.57165 55.9542 7.5759 56.1614 7.625 56.3567C7.73027 56.5313 7.85255 56.7143 7.92969 56.9426C7.94146 56.9776 7.91928 57.0249 7.92969 57.0598C8.12141 57.1239 8.33068 57.1648 8.51562 57.2708C8.55951 57.296 8.5915 57.3381 8.63281 57.3645C9.46355 57.4947 10.0868 57.8912 10.4609 58.3254C10.5299 58.406 10.5465 58.5277 10.6016 58.6067C10.6682 58.6209 10.726 58.6595 10.7891 58.677C11.1741 58.4407 11.8824 58.1374 12.7344 58.2317L13.6484 58.4895L13.8359 58.5833L14.3047 58.8645C14.4427 58.9047 14.5754 58.9475 14.7031 59.0051C15.2097 59.0657 15.6112 59.2248 15.9453 59.4504C16.027 59.4758 16.1195 59.4871 16.2031 59.5208C16.4262 59.6108 16.6171 59.7304 16.7891 59.8489C17.5016 59.6761 18.3748 59.6633 19.2031 60.2004C19.2372 60.2227 19.2645 60.2713 19.2969 60.2942C19.6049 60.1461 19.9821 60.0165 20.4219 59.9895L21.6172 60.1536L21.7344 60.2004L21.8281 60.2239L22.5781 60.6223L22.6016 60.6458C22.9128 60.7486 23.2403 60.8339 23.5156 61.0442C23.6116 61.1175 23.6704 61.2253 23.75 61.302C24.013 61.3074 24.2607 61.3514 24.5 61.4192C25.2811 61.3222 26.1144 61.4531 26.7969 62.0051C26.8815 62.0741 26.9363 62.1679 27.0078 62.2395C27.1135 62.2434 27.2239 62.2233 27.3359 62.2395L27.4062 62.2629C27.9166 62.1987 28.4233 62.2841 28.9297 62.4973C29.2114 62.4503 29.5203 62.3982 29.8672 62.4504C30.3458 62.5227 30.7435 62.6881 31.0625 62.8958L31.2734 62.9192L31.3672 62.9426H31.4844L32.6562 63.3879L32.75 63.4583C32.8323 63.4866 32.9062 63.5184 32.9844 63.552C33.4068 63.4183 33.9609 63.3422 34.5781 63.4817C35.1666 63.6167 35.5863 63.9084 35.9141 64.2083C35.9753 64.2069 36.0379 64.1824 36.1016 64.1848C36.2803 64.1923 36.4567 64.2448 36.6172 64.2786C36.6147 64.2164 36.6389 64.1554 36.6406 64.0911C36.5309 63.6444 36.4913 63.1471 36.6172 62.6379H36.5938C36.5825 62.4916 36.5611 62.3521 36.5703 62.2161C36.5217 62.002 36.4039 61.7888 36.4062 61.5364C36.4077 61.4055 36.4604 61.2816 36.4766 61.1614C36.4238 61.039 36.3282 60.9271 36.2891 60.7864C36.0995 60.103 36.1831 59.4866 36.3594 58.9817C36.3322 58.7293 36.3352 58.4521 36.3828 58.1614C36.4165 57.9574 36.5305 57.7929 36.5938 57.6223C36.5263 57.269 36.5 56.8743 36.5938 56.427C36.6088 56.356 36.645 56.2826 36.6641 56.2161C36.6107 56.1089 36.5203 56.0121 36.4766 55.8879C36.2282 55.1776 36.3022 54.4411 36.5469 53.802C36.5486 53.778 36.5446 53.7554 36.5469 53.7317C36.4119 53.3449 36.3413 52.904 36.4062 52.3958C36.2752 51.9628 36.2192 51.4541 36.3359 50.8958C36.3495 50.8318 36.3895 50.7687 36.4062 50.7083C36.3784 50.5195 36.3257 50.3146 36.3359 50.0989C36.3533 49.7547 36.4236 49.4515 36.5234 49.1848C36.4735 49.0925 36.4033 49.0067 36.3594 48.9036L36.1016 47.9426V47.8254L36.0781 47.7317C36.0553 47.5153 36.1087 47.314 36.125 47.1223V47.0286L36.1016 46.9114C36.0706 46.5656 36.1353 46.2579 36.1953 45.9739C36.2032 45.9198 36.1848 45.8625 36.1953 45.8098C36.1761 45.3103 36.2704 44.8227 36.4766 44.3801L36.3359 43.5364V43.3254C36.3235 42.9883 36.3554 42.6834 36.4297 42.4114C36.4078 42.2991 36.4388 42.178 36.4297 42.0598C36.3496 41.6352 36.3433 41.1774 36.4766 40.7004C36.3845 40.4376 36.3015 40.1451 36.2891 39.8098C36.2745 39.4161 36.3086 39.0584 36.4062 38.7551C36.3943 38.6018 36.3939 38.448 36.4062 38.2864C36.2282 37.8501 36.1045 37.3173 36.1953 36.6926L36.2188 36.5989L36.2422 36.4817L36.5469 35.4973C36.5813 35.4303 36.6267 35.3716 36.6641 35.3098C36.5721 35.0542 36.5173 34.763 36.5 34.4426C36.4724 33.9206 36.5659 33.4472 36.7344 33.0598C36.6665 32.8436 36.6306 32.613 36.6172 32.3567C36.5331 31.9664 36.5061 31.5264 36.6172 31.0442C36.6425 30.9342 36.7001 30.8389 36.7344 30.7395C36.7152 30.6443 36.6973 30.5512 36.6875 30.4583C36.4397 30.0448 36.1947 29.4933 36.2188 28.7942C36.2361 28.3008 36.3801 27.8884 36.5469 27.552C36.5403 27.4876 36.5258 27.4271 36.5234 27.3645C36.3812 26.9567 36.2978 26.4629 36.3828 25.9114C36.4046 25.7734 36.4871 25.6591 36.5234 25.5364C36.4766 25.1905 36.4784 24.8552 36.5469 24.5051C36.4752 24.2992 36.4088 24.077 36.3828 23.8254C36.3705 23.7054 36.3813 23.5882 36.3828 23.4739C36.3385 23.3444 36.2732 23.2165 36.2422 23.0754C36.1328 23.1239 36.0386 23.2252 35.9141 23.2629C35.3306 23.4392 34.5921 23.4589 33.8516 23.1458C33.4468 22.9733 33.1466 22.7199 32.9141 22.4895C32.8165 22.4331 32.7185 22.3881 32.6328 22.3254C32.49 22.3403 32.3449 22.379 32.1875 22.3723C31.8126 22.3553 31.4892 22.2508 31.2031 22.1379C31.1178 22.1546 31.0369 22.2218 30.9453 22.2317C30.4059 22.2898 29.9058 22.1944 29.4688 22.0208L28.3672 21.2942L28.2969 21.2004L28.2734 21.177C27.8644 21.1855 27.4835 21.1272 27.125 20.9895C26.6815 21.0746 26.1697 21.1142 25.625 20.9426C25.2785 20.8321 24.9747 20.6726 24.7344 20.4973L24.1484 19.9348L24.0781 19.8411L23.9844 19.7239L23.9609 19.7004C23.933 19.7012 23.8956 19.7239 23.8672 19.7239C23.8025 19.7237 23.7418 19.6806 23.6797 19.677C23.2773 19.9366 22.7063 20.2172 21.9453 20.1926C21.2515 20.1695 20.7336 19.9188 20.3281 19.6301L20.0469 19.7239H19.8359C18.5508 19.7921 17.7853 19.125 17.3281 18.552C17.2604 18.5656 17.1892 18.6129 17.1172 18.6223C16.3257 18.723 15.6286 18.4703 15.0547 18.0833C14.7848 18.1467 14.4812 18.2249 14.1406 18.2004C14.0486 18.1936 13.9698 18.1208 13.8828 18.1067C13.6312 18.1489 13.3662 18.2569 13.0625 18.2239C12.3311 18.1441 11.8121 17.7911 11.4219 17.4504C11.1315 17.4454 10.8146 17.4005 10.4844 17.2864C10.2254 17.1964 9.999 17.0869 9.80469 16.9583H9.75781L9.71094 16.9817H9.64062L9.38281 17.0051L9.28906 16.9817C8.98142 17.0046 8.68007 17.0034 8.375 16.9348C8.33606 16.9376 8.2977 16.9336 8.25781 16.9348C8.28301 17.1879 8.3387 17.4254 8.30469 17.6614ZM19.25 63.9036L19.2031 63.9739L19.1562 64.0911L19.2969 64.0442L19.3672 63.8801L19.25 63.9036ZM19.2969 64.0442L19.1562 64.0911L19.2031 63.9739L19.25 63.9036L19.3672 63.8801L19.2969 64.0442ZM61.8828 63.7864L61.9531 63.6926L61.8828 63.7161V63.7864ZM61.8828 63.7864V63.7161L61.9531 63.6926L61.8828 63.7864ZM67.5781 63.7395H67.625V63.6926L67.5781 63.7395ZM67.625 63.7395H67.5781L67.625 63.6926V63.7395ZM19.6016 63.2004L19.4609 63.4583L19.7422 63.4114L19.7891 63.3176L19.8828 63.3645H19.9062L19.7891 63.3176L19.8828 63.1301L19.6016 63.2004ZM20.0469 63.5754L20.2578 63.6926L20.375 63.6458L20.1875 63.552L20.0469 63.5754ZM20.375 63.6458L20.2578 63.6926L20.0469 63.5754L20.1875 63.552L20.375 63.6458ZM19.6016 63.4348L19.4609 63.4583L19.6016 63.2004V63.177L19.7422 63.1536L19.6016 63.4348ZM19.7422 63.4114L19.6016 63.4348L19.7422 63.1536L19.8828 63.1301L19.7422 63.4114ZM61.6016 63.2239L61.7188 63.2473V63.177L61.6016 63.2239ZM61.7188 63.2473L61.6016 63.2239L61.7188 63.177V63.2473ZM12.1016 62.4036H11.9844L11.8906 62.6145L12.0078 62.5911L11.9844 62.6379L12.9219 62.5442L12.7344 62.4739L12.0078 62.5911L12.1016 62.4036ZM68.3984 61.7004L67.8125 62.4504H67.7422L67.7188 62.5208V62.5676L67.7891 62.4739L67.8594 62.4504L67.8828 62.3567L68.1406 62.0286H68.7031L68.9844 61.8879L68.3984 61.7004ZM12.9219 62.5442L11.9844 62.6379L12.0078 62.5911L12.7344 62.4739L12.9219 62.5442ZM12.0078 62.5911L11.8906 62.6145L11.9844 62.4036H12.1016L12.0078 62.5911ZM67.8125 62.4504L67.7891 62.4739L67.7188 62.5676L67.7422 62.4504H67.8125ZM67.8594 62.4504H67.8125L67.8828 62.3567L67.8594 62.4504ZM69.5 62.052L69.2656 62.2629L69.6641 62.052H69.5ZM69.5938 62.0989L69.2656 62.2629L69.4766 62.0754L69.5938 62.0989ZM13.3438 62.0989L13.4375 62.1458L13.625 62.1223L13.5312 62.0754L13.3438 62.0989ZM13.625 62.1223L13.4375 62.1458L13.3438 62.0989L13.5312 62.0754L13.625 62.1223ZM67.3672 62.0051H67.1562L67.3203 62.052L67.3672 62.0051H67.6953L67.4375 61.9114L67.3672 62.0051ZM69.6641 62.052L69.5938 62.0989L69.4766 62.0754L69.5 62.052H69.6641ZM72.4062 62.0051H72.4531V61.9583L72.4062 62.0051ZM67.3672 62.0051L67.3203 62.052L67.1562 62.0051H67.3672ZM68.9844 61.8879L68.7031 62.0286H68.1406L68.3984 61.7004L68.9844 61.8879ZM72.1484 61.9817H72.3594L72.1953 61.9348L72.1484 61.9817ZM67.6953 62.0051H67.5781L67.625 61.9817L67.6953 62.0051ZM67.625 61.9817L67.5781 62.0051H67.3672L67.4375 61.9114L67.625 61.9817ZM72.4531 62.0051H72.4062L72.4531 61.9583V62.0051ZM72.3594 61.9817H72.1484L72.1953 61.9348L72.3594 61.9817ZM4.69531 61.0442L4.625 61.1145L4.50781 61.1379L4.55469 60.9973L4.57812 60.9739V60.9504L4.55469 60.9973L4.41406 61.1614L4.50781 61.1379L4.46094 61.302L4.34375 61.4192H4.41406L4.50781 61.1379L4.74219 61.0911L4.69531 61.0442ZM4.41406 61.4192H4.34375L4.46094 61.302L4.41406 61.4192ZM3.42969 61.3723L3.57031 61.3489L3.59375 61.2551L3.42969 61.3723ZM3.57031 61.3489L3.42969 61.3723L3.59375 61.2551L3.57031 61.3489ZM4.50781 61.1379L4.41406 61.1614L4.55469 60.9973L4.50781 61.1379ZM4.74219 61.0911L4.625 61.1145L4.69531 61.0442L4.74219 61.0911ZM75.8516 60.6926L75.875 60.7395L75.8984 60.6926H75.8516ZM75.8984 60.6926L75.875 60.7395L75.8516 60.6926H75.8984ZM76.4844 59.9895L76.5312 59.8958L76.2734 59.9661L76.4844 59.9895ZM74.7734 59.6614L74.4688 59.8958L74.6094 59.9192L74.7031 59.7551L74.75 59.6848L74.7734 59.6614ZM74.9844 59.9895L74.9375 60.1301L75.0312 59.9895H74.9844ZM75.0312 59.9895L74.9375 60.1301L74.9609 60.0364L74.9844 59.9895H75.0312ZM75.2656 59.5676V59.5911L75.2188 59.6848L75.0547 59.7083L75.0312 59.7317L75.1719 59.7551L75.2188 59.6848H75.2422L75.2656 59.5911L75.2891 59.5676H75.2656ZM76.4844 59.9895L76.2734 59.9661L76.5312 59.8958L76.4844 59.9895ZM74.6094 59.9192L74.4688 59.8958L74.6328 59.7551H74.7031L74.6094 59.9192ZM74.75 59.6848L74.7031 59.7551H74.6328L74.7266 59.6848H74.75ZM75.1719 59.7551L75.0312 59.7317L75.0547 59.7083L75.2188 59.6848L75.1719 59.7551ZM75.5234 58.7708L75.4062 58.9583L75.3594 59.1223L75.5234 59.0051L75.4531 59.2864L75.7578 58.7942L75.6641 58.8645V58.8879L75.4766 59.1458L75.5234 59.0051L75.3594 59.1223L75.3828 59.0286L75.5234 58.7708ZM75.6406 58.9817L75.4531 59.2864L75.4766 59.1458L75.6641 58.8879L75.6406 58.9817ZM75.5234 58.7708L75.3828 59.0286L75.4062 58.9583L75.5234 58.7708ZM75.6406 58.9817L75.6641 58.8879L75.6875 58.8411L75.7578 58.7942L75.6406 58.9817ZM3.59375 56.2161L3.5 56.3801L3.125 55.8411H3.10156L3.19531 56.1458L3.24219 56.0286L3.5 56.3801L3.59375 56.1926L3.75781 56.7551L3.85156 56.5911L3.59375 56.2161ZM3.61719 56.2161L3.6875 56.3333L3.85156 56.5911L3.75781 56.7551L3.61719 56.2161ZM4.64844 56.2161V56.2629L4.69531 56.1223L4.64844 56.2161ZM4.64844 56.2629V56.2161L4.69531 56.1223L4.64844 56.2629ZM3.24219 56.0286L3.19531 56.1458L3.10156 55.8411H3.125L3.24219 56.0286ZM77.7266 55.5598L77.7969 55.4895L77.6562 55.5364L77.7266 55.5598ZM77.7266 55.5598L77.6562 55.5364L77.7969 55.4895L77.7266 55.5598ZM76.0625 54.7864L75.9688 54.8801H76.0156L76.0625 54.7864ZM4.71875 54.5051V54.5754L4.67188 54.6692L4.64844 54.552L4.46094 54.6458L4.60156 54.4348L4.46094 54.5051L4.36719 54.6926L4.46094 54.6458L4.36719 54.8098L4.4375 55.0676L4.78906 54.4583L4.71875 54.5051ZM4.8125 54.8801L4.74219 54.9739L4.8125 54.9504V54.8801ZM4.67188 54.6692L4.4375 55.0676L4.36719 54.8098L4.46094 54.6458L4.64844 54.552L4.67188 54.6692ZM4.8125 54.9504L4.74219 54.9739L4.76562 54.9504L4.8125 54.8801V54.9504ZM76.0391 54.8098L76.0156 54.8801H75.9688L76.0391 54.7864V54.8098ZM76.3438 54.8333H76.3906L76.4375 54.8098L76.3438 54.8333ZM4.46094 54.6458L4.36719 54.6926L4.46094 54.5051L4.60156 54.4348L4.46094 54.6458ZM4.71875 54.5754V54.5051L4.78906 54.4583L4.71875 54.5754ZM4.625 54.1301L4.64844 54.2708L4.88281 54.1301L4.76562 53.7786L4.625 54.1301ZM4.83594 53.9895L4.69531 54.2473L4.64844 54.2708L4.625 54.1301L4.76562 53.7786L4.83594 53.9895ZM4.88281 54.1301L4.69531 54.2473L4.83594 53.9895L4.88281 54.1301ZM77.3281 53.8489L77.7734 53.4036L77.0234 53.6379L77.0703 53.8958L77.1172 54.0833L77.2578 54.1301L77.375 54.0129L77.3281 53.8489ZM77.375 54.0129L77.2578 54.1301L77.1172 54.0833L77.3281 53.8489L77.375 54.0129ZM5.02344 54.0598L5.16406 53.9895L5.14062 53.8723L5.02344 54.0598ZM77.3281 53.8489L77.1172 54.0833L77.0234 53.6379L77.2578 53.5676L77.3281 53.8489ZM5.16406 53.9895L5.02344 54.0598L5.14062 53.8723L5.16406 53.9895ZM77.3281 53.8489L77.2578 53.5676L77.7734 53.4036L77.3281 53.8489ZM76.6719 53.5208L76.8125 53.4739L76.8359 53.4036L76.9062 53.2629L76.6719 53.5208ZM76.8359 53.4036L76.8125 53.4739L76.6719 53.5208L76.8125 53.3567L76.9062 53.2629L76.8359 53.4036ZM3.99219 53.4504L4.01562 53.4036L3.99219 53.3567V53.4504ZM4.01562 53.4036L3.99219 53.4504V53.3567L4.01562 53.4036ZM4.74219 50.8958L4.53125 50.9426L4.60156 50.7083L4.50781 50.8489H4.55469L4.53125 50.9426L4.71875 50.8958L4.67188 51.0129L4.74219 50.8958ZM3.78125 51.2942H3.85156L3.875 51.1536L3.75781 51.177L3.78125 51.2942ZM3.85156 51.2942H3.78125L3.75781 51.177L3.875 51.1536L3.85156 51.2942ZM7.48438 50.8723C7.48531 50.7934 7.46641 50.7166 7.46094 50.6379C7.47457 50.7192 7.47742 50.794 7.48438 50.8723ZM4.55469 50.8489H4.50781L4.60156 50.7083L4.55469 50.8489ZM76.4609 50.5911L76.3203 50.6379C76.3217 50.6376 76.3539 50.648 76.3906 50.6379C76.4081 50.6331 76.4272 50.602 76.4609 50.5911ZM76.2969 50.4739V50.5208L76.3438 50.3801L76.2969 50.4739ZM76.2969 50.5208V50.4739L76.3438 50.3801L76.2969 50.5208ZM3.99219 49.6067L3.38281 49.6301L3.42969 49.7239H3.64062L3.59375 49.8411H3.38281L3.47656 50.1458L3.52344 50.0051L3.45312 49.8411H3.80469L3.99219 50.3567L4.20312 49.8176L3.89844 49.8411L3.99219 49.6067ZM4.76562 49.9348L4.83594 49.8411L4.92969 50.0754V50.0989L4.95312 50.0754L4.83594 49.8411L4.8125 49.8645L4.78906 49.8176L4.76562 49.9348ZM3.99219 50.3567L3.80469 49.8411L4.20312 49.8176L3.99219 50.3567ZM3.52344 50.0051L3.47656 50.1458L3.38281 49.8411H3.45312L3.52344 50.0051ZM76.9062 49.7942V49.8176L76.8828 49.9114L77.0703 49.9583L77.1172 49.8645L76.9062 49.7942ZM77.1172 49.8645L77.0703 49.9583L76.8828 49.9114L76.9062 49.8176L76.9297 49.7942L77.1172 49.8645ZM4.8125 49.8645L4.76562 49.9348L4.78906 49.8176L4.8125 49.8645ZM3.80469 49.8411H3.59375L3.64062 49.7239H3.75781L3.80469 49.8411ZM3.89844 49.8411H3.80469L3.75781 49.7239H3.94531L3.89844 49.8411ZM5.35156 49.5598L5.25781 49.5129L5.21094 49.5598H5.35156ZM3.78125 49.7239H3.42969L3.40625 49.6536V49.6301H3.73438L3.78125 49.7239ZM3.94531 49.7239H3.78125L3.73438 49.6301L3.99219 49.6067L3.94531 49.7239ZM4.71875 49.677L4.69531 49.6067L4.67188 49.677H4.71875ZM4.71875 49.677H4.67188L4.69531 49.6067L4.71875 49.677ZM77.1406 48.7395L77.1172 48.8333H77.1875L77.0469 49.2786V49.2317L76.9766 49.4661L77.0469 49.2786L77.1172 49.6301L77.1875 49.677L77.1406 49.6536L77.1172 49.6301L77.0469 49.2786L77.2109 48.7395H77.1406ZM4.97656 49.5364L5.02344 49.4895L4.95312 49.4661L4.97656 49.5364ZM5.35156 49.5598H5.21094L5.25781 49.5129L5.35156 49.5598ZM5.02344 49.4895L4.97656 49.5364L4.95312 49.4661L5.02344 49.4895ZM75.5703 49.4192V49.4661L75.5938 49.4426V49.4192H75.5703ZM75.5938 49.4192V49.4426L75.5703 49.4661V49.4192H75.5938ZM77.0469 49.2786L76.9766 49.4661L77.0469 49.2317V49.2786ZM76.5078 48.7864V48.8333L76.6016 48.7864H76.5078ZM76.1094 48.9036V48.9504L76.1328 48.927L76.1562 48.9036H76.1094ZM76.1328 48.927L76.1094 48.9504V48.9036H76.1562L76.1328 48.927ZM76.5078 48.8333V48.7864H76.6016L76.5078 48.8333ZM77.1875 48.8333H77.1172L77.1406 48.7395H77.2109L77.1875 48.8333ZM4.03906 48.2239L4.15625 48.4583L4.29688 48.0364L3.89844 47.9661L4.03906 48.2239ZM3.89844 47.9661L4.29688 48.0364L4.15625 48.4583L3.89844 47.9661ZM4.27344 47.9426L4.29688 48.0129L4.32031 47.9426H4.27344ZM4.32031 47.9426L4.29688 48.0129L4.27344 47.9426H4.32031ZM76.1094 47.7083L76.1562 47.5911L76.0859 47.6145L76.1094 47.7083ZM76.1094 47.7083L76.0859 47.6145L76.1562 47.5911L76.1094 47.7083ZM5.09375 46.4426L5.04688 46.5364H5.1875L5.23438 46.4426H5.09375ZM5.16406 46.4426L5.1875 46.5364H5.04688L5.09375 46.4426H5.16406ZM5.23438 46.4426L5.1875 46.5364L5.16406 46.4426H5.23438ZM4.8125 45.7395L4.60156 45.9973L4.64844 46.1379L4.8125 45.7395ZM4.67188 46.0676L4.64844 46.1379L4.60156 45.9973L4.64844 45.9504L4.67188 46.0676ZM4.67188 46.0676L4.64844 45.9504L4.8125 45.7395L4.67188 46.0676ZM77.1406 45.0598L76.9766 45.1301L77.1875 45.1536L77.3281 45.1067V45.0833L77.1406 45.0598ZM77.1406 45.0598L77.3281 45.0833V45.1067L77.1875 45.1536L76.9766 45.1301L77.1406 45.0598ZM75.6172 44.9895V44.9192L75.5703 44.9895H75.6172ZM75.6172 44.9895H75.5703L75.6172 44.9192V44.9895ZM3.75781 44.2395L4.08594 44.3333L4.0625 44.2629L3.75781 44.2395ZM4.0625 44.2629L4.08594 44.3333L4.01562 44.3098L3.99219 44.2629H4.0625ZM3.14844 44.0051H3.3125L3.125 43.9583L3.14844 44.0051ZM3.3125 44.0051H3.14844L3.125 43.9583L3.3125 44.0051ZM76.9766 42.9504L76.8359 43.0208L76.6484 43.302L76.6016 43.3254V43.3489L76.6484 43.302L76.8359 43.1848L76.9766 42.9504ZM75.2422 43.6067L75.3594 43.677L75.7812 43.3723L75.8281 43.1848L75.2422 43.6067ZM75.7812 43.3723L75.3594 43.677L75.2422 43.6067L75.8281 43.1848L75.7812 43.3723ZM76.4609 42.6458L76.3906 42.927L76.5078 42.8567L76.5547 43.1145L76.4375 43.2786L76.4141 43.302L76.3672 43.0911L76.2969 43.3723L76.2734 43.5129L76.4375 43.2786L76.5547 43.1145L76.5078 42.8567L76.3906 42.927L76.4375 42.7395L76.4609 42.7161V42.6458ZM76.4141 43.302L76.2734 43.5129L76.2969 43.3723L76.4141 43.302ZM76.4141 43.302L76.2969 43.3723L76.3672 43.0911L76.4141 43.302ZM76.9766 42.9504L76.8359 43.1848L76.6484 43.302L76.8359 43.0208L76.9766 42.9504ZM5.32812 41.8723L5.07031 42.2239L5.11719 42.4348L5.44531 42.0129L5.32812 41.8723ZM5.375 42.1067L5.11719 42.4348L5.07031 42.2239L5.25781 41.9895L5.375 42.1067ZM5.44531 42.0129L5.375 42.1067L5.25781 41.9895L5.32812 41.8723L5.44531 42.0129ZM4.41406 41.3098L4.34375 41.5208L4.4375 41.4504L4.41406 41.3098ZM4.4375 41.4504L4.34375 41.5208L4.41406 41.3098L4.4375 41.4504ZM75.7344 41.1926L75.6875 41.4036L75.8281 41.2629V41.1926H75.7344ZM75.8281 41.2629L75.6875 41.4036L75.7109 41.3098L75.7344 41.1926H75.8281V41.2629ZM3.75781 40.4426L3.80469 40.5129L3.89844 40.3723L3.80469 40.2551L3.75781 40.4426ZM76.1328 41.1223V41.1926L76.2266 41.1223H76.1328ZM76.1797 41.1458L76.1328 41.1926V41.1223H76.1797V41.1458ZM5.23438 40.9114L5.65625 40.4426L5.21094 40.8176L5.23438 40.9114ZM5.23438 40.9114L5.21094 40.8176L5.65625 40.4426L5.23438 40.9114ZM3.26562 40.6301L3.35938 40.8176L3.40625 40.7473L3.17188 40.4661L3.26562 40.6301ZM3.17188 40.4661L3.40625 40.7473L3.35938 40.8176L3.17188 40.4661ZM3.89844 40.3723L3.80469 40.5129L3.75781 40.4426L3.80469 40.2551L3.89844 40.3723ZM5.07031 39.0598L4.95312 39.2239H4.92969L4.90625 39.2708L4.88281 39.3879V39.3176L4.50781 39.7629L4.55469 39.9973L4.8125 39.6692L4.88281 39.3879L4.90625 39.2708L5.11719 39.0364H5.07031V39.0598ZM4.88281 39.3879L4.8125 39.6692L4.55469 39.9973L4.50781 39.7629L4.88281 39.3176V39.3879ZM3.54688 38.3801L3.52344 38.4739H3.75781L3.73438 38.3801H3.54688ZM4.71875 38.3333L4.625 38.2629V38.3333H4.71875ZM3.75781 38.4739H3.52344L3.54688 38.3801H3.73438L3.75781 38.4739ZM4.71875 38.3333H4.625V38.2629L4.71875 38.3333ZM76.9766 36.3879V36.4348L77.2109 36.2239L76.9766 36.3879ZM76.9766 36.4348V36.3879L77.2109 36.2239L76.9766 36.4348ZM4.92969 34.5598L5 34.7942L5.14062 34.3254L4.92969 34.5598ZM5 34.7942L4.92969 34.5598L5.14062 34.3254L5 34.7942ZM75.5938 33.9973H75.5469L75.5938 34.1145L75.8516 34.0442L75.7812 33.8567L75.6172 33.8801L75.5938 33.9973ZM75.8516 34.0442L75.5938 34.1145L75.6641 33.9739L75.8047 33.9504L75.8516 34.0442ZM75.5938 34.1145L75.5703 34.0676L75.5938 33.9973L75.6641 33.9739L75.5938 34.1145ZM75.5703 34.0676L75.5469 33.9973H75.5938L75.5703 34.0676ZM76.2031 33.9504H76.2734L76.25 33.8567L76.2031 33.9504ZM75.6641 33.9739L75.5938 33.9973L75.6172 33.8801L75.7109 33.8567L75.6641 33.9739ZM75.8047 33.9504L75.6641 33.9739L75.7109 33.8567H75.7812L75.8047 33.9504ZM76.2734 33.9504H76.2031L76.25 33.8567L76.2734 33.9504ZM79.5547 33.5754C79.5557 33.489 79.5623 33.4041 79.5547 33.3176C79.571 33.4045 79.5461 33.4905 79.5547 33.5754ZM76.4844 32.2629L76.4375 32.4504V32.4036L76.2734 32.7083H76.3438L76.3203 32.6145L76.4375 32.4036L76.5547 32.9661L76.4375 32.9426L76.5781 33.177L76.6719 32.9895L76.5547 32.9661L76.4375 32.4504L76.4844 32.2629L76.6484 31.9348L76.625 31.7942L76.4844 32.2629ZM76.6719 32.9895L76.5781 33.177L76.4375 32.9426L76.6719 32.9895ZM4.48438 32.6145V32.5208L4.41406 32.6145H4.48438ZM76.3438 32.7083H76.2734L76.3203 32.6145L76.3438 32.7083ZM4.48438 32.5208L4.46094 32.6145H4.41406V32.5911L4.48438 32.5208ZM4.4375 31.7942L4.36719 31.9114L4.41406 32.2395L4.50781 32.0754L4.4375 31.7942ZM76.6484 31.9348L76.4844 32.2629L76.625 31.7942L76.6484 31.9348ZM4.50781 32.0754L4.41406 32.2395L4.36719 31.9114L4.4375 31.7942L4.50781 32.0754ZM76.6484 30.3411L76.7422 30.0364L76.6953 29.8723L76.6016 30.2473L76.6484 30.3411ZM76.7422 30.0364L76.6484 30.3411L76.6016 30.2473L76.6953 29.8723L76.7422 30.0364ZM3.89844 29.1692L3.94531 28.9817L3.82812 28.8645L3.89844 29.1692ZM3.94531 28.9817L3.89844 29.1692L3.82812 28.8645L3.94531 28.9817ZM75.875 27.9036L75.8516 27.9973H75.9453L75.9219 27.9036H75.875ZM75.9453 27.9973H75.8516L75.875 27.9036H75.9219L75.9453 27.9973ZM75.9688 27.4348L76.0156 27.4114L75.9922 27.3411L75.9688 27.4348ZM76.0156 27.4114L75.9688 27.4348L75.9922 27.3411L76.0156 27.4114ZM77.4219 26.8489L77.2344 26.9192L77.4219 26.9661L77.5859 26.8958L77.4219 26.8489ZM4.53125 26.7786L4.60156 26.9661L4.67188 26.7083L4.53125 26.7786ZM77.5859 26.8958L77.4219 26.9661L77.2344 26.9192L77.4219 26.8489L77.5859 26.8958ZM4.60156 26.9661L4.53125 26.7786L4.67188 26.7083L4.60156 26.9661ZM74.7969 26.4504L74.8438 26.3567L74.75 26.3333L74.7969 26.4504ZM74.8438 26.3567L74.7969 26.4504L74.75 26.3333L74.8438 26.3567ZM4.64844 25.9817V26.0286L4.67188 26.0754V26.052L4.64844 25.9817ZM4.67188 26.052V26.0754L4.64844 26.0286V25.9817L4.67188 26.052ZM76.0156 24.1301L75.9219 24.3879L76.0156 24.177V24.1301ZM76.0156 24.177L75.9219 24.3879L76.0156 24.1301V24.177ZM34.3906 20.5676L34.3438 20.7786L34.4609 20.7083L34.5078 20.4739L34.3906 20.5676ZM76.8594 20.3567V20.3333L76.7422 20.3567V20.3801H76.7656L76.8594 20.3567ZM34.4609 20.7083L34.3438 20.7786L34.3906 20.5676L34.5078 20.4739L34.4609 20.7083ZM40.25 20.4739H40.2266V20.4504H40.25V20.4739ZM33.125 20.0286L33.5234 19.8645L33.3594 19.7708L33.125 20.0286ZM35.8672 19.6536L35.8203 19.7708L35.9609 19.677L35.8672 19.6536ZM33.5234 19.8645L33.125 20.0286L33.3594 19.7708L33.5234 19.8645ZM47.7266 19.2083H47.7734L47.8906 19.1145L47.7266 19.2083ZM44.0234 19.7239L43.9062 19.7942L44.0234 19.8176L44.1172 19.7473L44.0234 19.7239ZM44.1172 19.7473L44.0234 19.8176L43.9062 19.7942L44.0234 19.7239L44.1172 19.7473ZM35.9609 19.677L35.8203 19.7708L35.8672 19.6536L35.9609 19.677ZM4.57812 19.5129L4.76562 19.3723L4.74219 19.2317L4.64844 19.302L4.57812 19.5129ZM4.76562 19.3723L4.57812 19.5129L4.64844 19.302L4.74219 19.2317L4.76562 19.3723ZM47.8906 19.1145L47.7734 19.2083H47.7266L47.8906 19.1145ZM49.6719 17.8489L49.1328 18.4114L48.8516 18.552H48.7109L48.5234 18.7395L48.3594 18.8333L48.4297 18.8567L48.4062 18.8801L48.5938 18.9036L48.4297 18.8567L48.3594 18.8333L48.5234 18.7395L48.7109 18.552H49.6016L49.5781 18.5754L49.625 18.552L50.8438 18.5286L50.9141 18.3645L51.0078 18.1067H51.4531L51.2656 18.0833L51.0312 18.0598L51.0078 18.1067H50.3984L50.4922 18.0598H50L50.0938 17.9426L49.9766 17.9192L50.0234 17.8958L49.6719 17.8489ZM43.3438 18.6692L43.5078 18.6926L43.6484 18.4817L43.3438 18.6692ZM76.1562 18.2004H76.2031L76.2266 18.3176H76.1797L76.0156 18.7864L75.9922 18.8098L75.9688 18.7395L75.9219 18.927L76.3203 18.3411L76.2266 18.3176L76.2031 18.2004H76.1562L76.1797 18.1067H76.25V18.0833L76.2266 18.1067H76.1797L76.1562 18.2004ZM36.8047 18.9504V18.9739L36.9219 18.9504V18.8567L36.8047 18.9504ZM36.9219 18.8567V18.9504L36.8047 18.9739V18.9504L36.9219 18.8567ZM75.9922 18.8098L75.9219 18.927L75.9688 18.7395L75.9922 18.8098ZM76.9297 18.4348L76.6953 18.4114L76.8125 18.9036L76.9297 18.4348ZM76.9297 18.4348L76.8125 18.9036L76.6953 18.4114L76.9297 18.4348ZM43.25 18.7161V18.7629L43.3203 18.6926L43.25 18.7161ZM76.2266 18.3176L76.25 18.4114L76.0156 18.7864L76.1797 18.3176H76.2266ZM43.25 18.7629V18.7161L43.3203 18.6926L43.25 18.7629ZM46.2266 18.5754H45.9922V18.552H45.9219L45.8516 18.5754H46.7188L46.7422 18.552L46.5781 18.5051L46.6484 18.3879L46.5078 18.4817L46.3672 18.4348L46.2266 18.5754ZM27.7812 18.5286L27.8516 18.5754L27.8984 18.5286H27.7812ZM31.25 18.1301L31.3672 18.177L31.0625 18.4817L31.8359 18.4583L31.4844 18.2473L31.7188 18.0364H31.3438L31.25 18.1301ZM43.5078 18.6926L43.3438 18.6692L43.6484 18.4817L43.5078 18.6926ZM43.4844 18.2239L43.2734 18.3879H43.2266V18.5286L43.4844 18.2239ZM51.7578 18.2473V18.4348L51.7344 18.5051H51.7578V18.4348L51.8516 18.2473H51.7578ZM27.8516 18.5754L27.7812 18.5286H27.8984L27.8516 18.5754ZM45.9922 18.552V18.5754H45.8516L45.9219 18.552H45.9922ZM46.5078 18.4817L46.3672 18.5754H46.2266L46.3672 18.4348L46.5078 18.4817ZM46.5781 18.5051L46.5312 18.5754H46.3672L46.5078 18.4817L46.5781 18.5051ZM46.7422 18.552L46.7188 18.5754H46.5312L46.5781 18.5051L46.7422 18.552ZM48.9922 18.552H48.8516L49.1328 18.4114L48.9922 18.552ZM49.8828 18.2004L49.6016 18.552H48.9922L49.4141 18.1067L49.4609 18.0598H50L49.8828 18.2004ZM50.0938 18.2239L50.0234 18.3176L49.625 18.552H49.6016L49.8828 18.2004L50.0938 18.2239ZM51.0078 18.1067L50.8438 18.5286L49.625 18.552L50.0234 18.3176L50.2109 18.1067H51.0078ZM52.625 18.2942H52.6719L53.3047 17.9192L52.625 18.2942ZM75.8516 18.2708L75.7812 18.4583L75.8984 18.2708H75.8516ZM43.3203 18.4114L43.2266 18.5286V18.4348L43.3203 18.3645V18.4114ZM46.5781 18.5051L46.5078 18.4817L46.6484 18.3879L46.5781 18.5051ZM31.3906 18.2004L31.8359 18.4583L31.0625 18.4817L31.3438 18.2004H31.3906ZM43.2734 18.3879L43.2266 18.4348V18.3879H43.2734ZM51.8516 18.2473L51.7578 18.4348V18.2473H51.8516ZM76.3203 18.3411L76.25 18.4114L76.2266 18.3176L76.3203 18.3411ZM43.3203 18.4114V18.3645L43.4844 18.2239L43.3203 18.4114ZM75.8984 18.2708L75.8047 18.4114V18.3879L75.8516 18.2708H75.8984ZM47.2344 17.4504L47.0234 17.7786L47.1406 17.7317H47.2344L47.0234 18.0833L46.9531 18.177L47.1172 18.0833H47.0234L47.2344 17.7317L47.3281 17.5911L47.3984 17.4739L47.2344 17.4504ZM52.9297 18.1301L52.6719 18.2942H52.625L52.9062 18.1301H52.9297ZM75.2422 18.1536L75.2656 18.2708L75.3359 18.177L75.2422 18.1536ZM75.3359 18.177L75.2656 18.2708L75.2422 18.1536L75.3359 18.177ZM31.6016 18.1301L31.4844 18.2473L31.3906 18.2004H31.3438L31.3672 18.177L31.25 18.1301L31.3438 18.0364H31.7188L31.6016 18.1301ZM76.4375 18.1536H76.5547L76.6484 17.8489L76.4375 18.1536ZM50.1875 18.1067H50.2109L50.0938 18.2239L49.8828 18.2004L50 18.0598H50.1875V18.1067ZM46.9531 18.177L47.0234 18.0833H47.1172L46.9531 18.177ZM76.6484 17.8489L76.5547 18.1536H76.4375L76.6484 17.8489ZM53.0469 18.0598L52.9297 18.1301H52.9062L53.0234 18.0598H53.0469ZM51.0312 18.0598L51.4531 18.1067H51.0078L51.0312 18.0598ZM50.3984 18.1067H50.1875V18.0598H50.4453L50.3984 18.1067ZM54.6172 17.9661L55.0156 17.7551H54.7812L54.6172 17.9661ZM49.9766 17.9192L49.7422 18.0598H49.4609L49.6484 17.8723L49.9766 17.9192ZM50.0938 17.9426L50 18.0598H49.7422L49.9766 17.9192L50.0938 17.9426ZM26.5156 17.8254L26.375 17.9426L26.4453 18.0364L26.6328 17.8723H26.6094L26.5156 17.8254ZM26.6094 17.8723H26.6328L26.5859 17.9192L26.4453 18.0364L26.375 17.9426L26.5156 17.8254L26.6094 17.8723ZM55.0156 17.7551L54.6172 17.9661L54.7812 17.7551H55.0156ZM50.0234 17.8958L49.9766 17.9192L49.6484 17.8723L49.6719 17.8489L50.0234 17.8958ZM27.0781 17.5208L27.5 17.4504L27.3359 17.3098L27.0781 17.5208ZM50.4219 17.6614L50.5391 17.6848L50.6562 17.5442L50.4219 17.6614ZM47.3984 17.4739L47.3281 17.5911L47.2344 17.7317H47.1406L47.0234 17.7786L47.0703 17.7083L47.2344 17.4504L47.3984 17.4739ZM50.5625 17.6614H50.4453L50.6562 17.5442L50.5625 17.6614ZM20.0234 17.3567L20.0938 17.4504L20.1641 17.3098L20.0234 17.3567ZM27.5 17.4504L27.0781 17.5208L27.3359 17.3098L27.5 17.4504ZM20.0938 17.4504L20.0234 17.3567L20.1641 17.3098L20.0938 17.4504ZM59.1875 16.8645L58.9062 17.1926L59.4453 16.8645H59.1875ZM47.7031 17.2864L47.6562 17.3567L47.7734 17.2864H47.7031ZM47.7734 17.2864L47.6562 17.3567L47.7031 17.2864H47.7734ZM57.8281 17.1223L57.7109 17.2161H57.6875V17.2395L57.8516 17.1223V17.1458L57.875 17.1223H57.8281ZM27.3594 16.9583L27.0547 17.0286L27.1484 17.1458L27.3594 16.9583ZM59.4219 16.8645L59.3984 16.8879L58.9062 17.1926L59.1875 16.8645H59.4219ZM27.3125 17.0051L27.1484 17.1458L27.0547 17.0286L27.3594 16.9583L27.3125 17.0051ZM76.5078 16.6536H76.5312V16.6067L76.5078 16.6301V16.6536ZM76.5312 16.6536H76.5078V16.6301L76.5312 16.6067V16.6536ZM39.5 7.4895C39.0324 7.77805 38.5745 7.88259 38.1406 7.91138C38.1123 7.93228 38.1001 7.98469 38.0703 8.00513C37.4013 8.46251 36.5917 8.63623 35.8203 8.49731C35.7543 8.48526 35.6947 8.41904 35.6328 8.40356C35.2177 8.62017 34.7188 8.81183 34.0859 8.77856C33.9326 8.76998 33.8 8.68866 33.6641 8.66138V8.70825L32.8203 9.38794L32.7266 9.45825L32.6328 9.50513C32.0699 9.81806 31.5207 9.87876 31.0391 9.85669C30.8681 9.97365 30.6916 10.1002 30.4766 10.1848L29.3281 10.3958H29.1172C28.5814 10.3919 28.142 10.2243 27.8047 10.0676C27.7415 10.1137 27.7108 10.212 27.6406 10.2551C27.0579 10.6128 26.49 10.6959 25.9766 10.677C25.4307 10.9008 24.8538 11.0159 24.2891 10.9114C24.1841 10.8916 24.1038 10.7992 24.0078 10.7708C23.9104 10.773 23.8192 10.7776 23.7266 10.7708C23.3496 11.0471 22.8872 11.2862 22.3203 11.3567C21.9383 11.4029 21.5882 11.3531 21.2891 11.2864C20.9651 11.3667 20.6642 11.3978 20.375 11.3801C20.1952 11.515 20.0106 11.6745 19.7656 11.7786H19.7188C19.6462 11.8624 19.5755 11.9517 19.4844 12.0364C19.575 12.0954 19.6397 12.1837 19.7188 12.2473C20.1017 12.079 20.5981 11.891 21.1953 11.9426L22.1328 12.177L22.2266 12.2239L22.3203 12.2473L23.0234 12.6692C23.2563 12.8518 23.4191 13.0665 23.5625 13.2551C23.9474 13.0806 24.5146 12.928 25.1797 12.9973C25.6936 13.0525 26.1247 13.2551 26.4922 13.4895C26.9101 13.6021 27.2407 13.813 27.5234 14.0286C27.9372 14.0081 28.3599 13.9902 28.7656 14.1458C29.1608 14.0742 29.6194 14.0666 30.1016 14.1926C30.2491 14.2318 30.3932 14.3013 30.5234 14.3567C30.7639 14.3854 31.0058 14.4498 31.25 14.5442C31.5293 14.4818 31.8562 14.4626 32.2109 14.4973C33.0171 14.5794 33.6528 14.9791 34.0625 15.3879C34.1237 15.4492 34.1503 15.5364 34.2031 15.5989L34.4375 15.7161L34.6953 15.8567C35.0025 15.7027 35.4065 15.5555 35.8906 15.5286L36.8516 15.6223L37.0391 15.6692L37.6719 15.9973L38.2578 16.0208L38.375 16.0442H38.4688L39.2891 16.3254C39.3765 16.3688 39.4443 16.4408 39.5234 16.4895C39.7431 16.4142 39.981 16.349 40.25 16.3254L40.3672 16.302H40.4609C40.6239 16.2879 40.7809 16.3161 40.9297 16.3254C41.42 16.1932 41.9015 16.1885 42.3359 16.2786C42.4081 16.2937 42.4793 16.3297 42.5469 16.3489C42.7947 16.2363 43.0759 16.1571 43.3906 16.1145C43.7932 15.7651 44.3558 15.4488 45.125 15.3879C45.453 15.3621 45.7507 15.3768 46.0156 15.4348C46.1056 15.4021 46.1984 15.3668 46.2969 15.3411C46.5337 15.2793 46.7635 15.278 46.9766 15.2708L47.0234 15.2473C47.2265 15.1116 47.4577 15.0476 47.6797 14.9661L47.7266 14.9426C48.2387 14.5844 48.8112 14.4471 49.3672 14.427L49.4375 14.4036L49.625 14.3098L51.0547 13.9817C51.3928 13.9804 51.7032 14.0612 51.9922 14.1458C52.0242 14.1469 52.0545 14.1672 52.0859 14.1692C52.4986 13.7304 53.134 13.2488 54.0781 13.1848C54.1322 13.1812 54.1898 13.2091 54.2422 13.2083C54.6195 13.0311 55.0401 12.9341 55.5078 12.927C55.6527 12.8855 55.8128 12.8309 55.9766 12.8098C56.292 12.7703 56.5828 12.7909 56.8438 12.8333C57.0548 12.732 57.2892 12.6517 57.5469 12.5989C58.1534 12.4749 58.6974 12.5536 59.1172 12.6926C59.3892 12.5278 59.7188 12.3964 60.1016 12.3176L60.2891 12.2708L60.5 12.2473C60.2904 12.1814 60.0594 12.1379 59.8438 12.0129L59.8203 11.9895C59.4703 12.051 59.0641 12.0859 58.625 11.9895C58.5567 11.9743 58.5019 11.9144 58.4375 11.8958L58.4141 11.9192C57.3345 11.9066 56.6537 11.3307 56.2109 10.8411C55.99 10.7873 55.7602 10.7242 55.5312 10.6067C55.1912 10.7342 54.7577 10.8559 54.2422 10.8176C53.5183 10.7628 52.918 10.4655 52.4844 10.0911C52.4369 10.0497 52.4103 9.96941 52.3672 9.927C52.0773 9.886 51.8117 9.8126 51.5469 9.69263C51.5178 9.69177 51.4827 9.71776 51.4531 9.71606C51.3096 9.70765 51.1844 9.62305 51.0547 9.59888C50.3639 9.67908 49.6836 9.55568 49.0859 9.177C48.6395 9.31011 48.0836 9.37137 47.4453 9.20044C46.9582 9.06995 46.5899 8.83639 46.2969 8.59106C45.8841 8.65859 45.4102 8.66578 44.8906 8.49731C44.6881 8.43123 44.5386 8.28469 44.375 8.19263C43.9404 8.37402 43.3692 8.55874 42.7109 8.45044L41.8906 8.19263L41.7031 8.09888C41.6689 8.08256 41.6423 8.04569 41.6094 8.02856C41.4562 8.04527 41.2883 8.10737 41.1172 8.09888C40.4624 8.06395 39.9284 7.79947 39.5 7.4895ZM77.0938 16.4426L77.1406 16.3958H77.0703L77.0938 16.4426ZM77.0938 16.4426L77.0703 16.3958H77.1406L77.0938 16.4426ZM77.4219 16.302L77.3516 16.4192L77.6328 16.3489L77.7031 16.2317L77.4219 16.302ZM77.6328 16.3489L77.3516 16.4192L77.4219 16.302L77.7031 16.2317L77.6328 16.3489ZM59.8672 16.2083L59.5859 16.3723L59.7266 16.2083H59.8672ZM19.7422 16.1379H19.8359V16.0676L19.7422 16.0442V16.1379ZM59.9375 16.1614L59.8672 16.2083H59.7266L59.7734 16.1614H59.9375ZM19.8359 16.0676V16.1379H19.7422V16.0442L19.8359 16.0676ZM59.0938 16.0911L59.0234 16.1379L58.7891 16.1145L58.8359 16.0911H59.0938ZM20.5859 16.0208L20.7031 15.9973L20.7266 15.9504H20.6094L20.5859 16.0208ZM20.7031 15.9973L20.5859 16.0208L20.6094 15.9504H20.7266L20.7031 15.9973ZM61.7891 15.5989H61.9062L61.9766 15.5286L62.0938 15.4348L61.7891 15.5989ZM61.9766 15.5286L61.9062 15.5989H61.7891L61.9297 15.5051L62.0938 15.4348L61.9766 15.5286ZM62.4219 15.0364H62.4688L62.5625 14.9426L62.4219 15.0364ZM16.9766 15.0129L17.0469 15.0364L17.0938 14.9895L16.9766 15.0129ZM67.8125 14.7551L68.0703 14.8254L68.2109 14.7551H67.8125ZM17.0469 15.0364L16.9766 15.0129L17.0938 14.9895L17.0469 15.0364ZM62.4688 15.0364H62.4219L62.5625 14.9426L62.4688 15.0364ZM67.3203 14.6614L67.1562 14.7786H67.3203V14.6614ZM64.6719 14.8723L64.7188 14.8958L64.7656 14.8723H64.6719ZM64.7188 14.8958L64.6719 14.8723H64.7656L64.7188 14.8958ZM61.1328 14.5208H61.2969L61.2734 14.6379L61.3906 14.5208H61.1797L61.2031 14.4504L61.1328 14.5208ZM68.0703 14.8254L67.8125 14.7551H68.2109L68.0703 14.8254ZM67.3203 14.7786H67.1562L67.3203 14.6614V14.7786ZM61.2734 14.6379L61.2969 14.5208H61.3906L61.2734 14.6379ZM61.1797 14.5208H61.1328L61.2031 14.4504L61.1797 14.5208ZM13.25 14.4036L13.3906 14.4739L13.5312 14.4036H13.25ZM13.3906 14.4739L13.25 14.4036H13.5312L13.3906 14.4739ZM17.6562 14.2161H17.7266L17.75 14.1223L17.6562 14.2161ZM17.75 14.1223L17.7266 14.2161H17.6562L17.75 14.1223ZM63.7812 13.4661C63.7315 13.5401 63.6726 13.5962 63.6406 13.6536L63.6641 13.677V13.6067L63.7344 13.5364L63.7812 13.7239L63.8984 13.6067L63.7344 13.5364L63.7812 13.4661ZM63.8984 13.6067L63.7812 13.7239L63.7344 13.5364L63.8984 13.6067ZM3.24219 12.3879L3.28906 12.4583L3.64062 12.4817L3.66406 12.552L3.89844 12.5754L3.85156 12.4817H3.64062V12.4348L3.24219 12.3879ZM3.85156 12.4817L3.89844 12.5754L3.66406 12.552L3.64062 12.4817H3.85156ZM3.64062 12.4348V12.4817L3.28906 12.4583L3.24219 12.3879L3.64062 12.4348ZM4.0625 12.1536L4.03906 12.1067H4.20312L4.22656 12.1536H4.0625ZM4.22656 12.1536L4.25 12.2004V12.1536H4.22656L4.20312 12.1067H4.03906L4.0625 12.1536H4.22656ZM3.80469 11.3098L3.99219 11.6614H4.15625L3.80469 11.3098ZM4.15625 11.6614H3.99219L3.80469 11.3098L4.15625 11.6614ZM62.9844 9.62231L63.0312 9.69263L63.0781 9.62231H62.9844ZM67.5312 9.7395H67.5547L67.2031 9.99731H67.4375L67.5078 9.95044L67.4141 9.99731H67.2031L67.25 9.95044L67.6016 9.71606L67.5312 9.7395ZM64.0156 9.62231L64.0625 9.71606L64.2266 9.62231H64.0156ZM13.5078 9.83325L13.5312 9.97388L13.6484 9.85669L13.5078 9.83325ZM13.6484 9.85669L13.5312 9.97388L13.5078 9.83325L13.6484 9.85669ZM18.125 9.7395L18.1016 9.78638V9.80981L18.5703 9.83325L18.1719 9.7395H18.125ZM18.5703 9.83325L18.1016 9.80981V9.78638L18.1719 9.7395L18.5703 9.83325ZM18.1719 9.7395L18.1016 9.78638L18.125 9.7395H18.1719ZM17.2344 9.52856L17.2578 9.69263H17.3281L17.4453 9.57544L17.2344 9.52856ZM57.7812 9.15356V9.48169L57.875 9.45825V9.10669L57.7812 9.15356ZM64.2266 9.62231L64.0625 9.71606L64.0156 9.62231H64.2266ZM17.3281 9.552L17.3516 9.66919L17.3281 9.69263H17.2578L17.2344 9.52856L17.3281 9.552ZM63.0781 9.62231L63.0312 9.69263L62.9844 9.62231H63.0781ZM14.5156 9.34106L14.2344 9.52856H14.1641L14.0469 9.66919L14.3984 9.41138L14.8906 9.45825L14.5156 9.34106ZM14.2344 9.52856L14.0469 9.66919L14.1641 9.52856H14.2344ZM17.4453 9.57544L17.3516 9.66919L17.3281 9.552L17.4453 9.57544ZM16.1328 9.57544H16.1797L16.5547 9.38794L16.1328 9.57544ZM12.2422 9.22388L12.5938 9.24731L12.7109 9.05981L12.7578 9.03638L12.4297 8.94263L12.2422 9.22388ZM64.6719 9.3645L64.7656 9.31763L64.6484 9.24731L64.6719 9.3645ZM16.5547 9.38794L16.1797 9.57544H16.1328L16.5547 9.38794ZM57.875 9.45825L57.7812 9.48169V9.29419L57.875 9.27075V9.45825ZM14.8906 9.45825L14.3984 9.41138L14.5156 9.34106L14.8906 9.45825ZM64.7656 9.31763L64.6719 9.3645L64.6484 9.24731L64.7656 9.31763ZM57.875 9.27075L57.7812 9.29419V9.15356L57.875 9.10669V9.27075ZM12.5938 9.24731L12.4297 9.22388L12.4531 9.20044L12.7109 9.05981L12.5938 9.24731ZM12.5938 8.9895L12.4531 9.20044L12.4062 9.22388H12.2422L12.4297 8.94263L12.5938 8.9895ZM12.7344 9.03638L12.7109 9.05981L12.4531 9.20044L12.5938 8.9895L12.7344 9.03638ZM20.375 8.45044L20.3281 8.59106L20.5625 8.45044H20.375ZM18.7344 8.16919L18.5 8.63794L18.4062 8.73169H18.4766L18.4531 8.75513L18.6406 8.66138L18.7578 8.427L18.8281 8.38013H18.7812L18.9219 8.07544L18.7344 8.16919ZM24.0547 8.66138L24.3594 8.75513L24.5938 8.59106L24.2656 8.49731L24.0547 8.66138ZM24.5938 8.59106L24.3594 8.75513L24.0547 8.66138L24.2656 8.49731L24.5938 8.59106ZM18.6406 8.66138L18.5 8.73169H18.4062L18.7578 8.427L18.6406 8.66138ZM18.7812 8.38013L18.7578 8.427L18.5 8.63794L18.7344 8.16919L18.9219 8.07544L18.7812 8.38013ZM20.5156 8.45044L20.4922 8.49731L20.3281 8.59106L20.375 8.45044H20.5156ZM20.5625 8.45044L20.4922 8.49731L20.5156 8.45044H20.5625ZM18.8281 8.38013L18.7578 8.427L18.7812 8.38013H18.8281ZM55.8594 8.07544L56.0703 8.16919L56.2812 8.09888L56.3047 7.93481L56.2578 7.91138L55.8594 8.07544ZM24.6641 8.21606L24.7812 8.2395L24.9219 8.09888L24.8516 8.07544L24.6641 8.21606ZM57.7578 7.51294L57.4297 7.63013H57.6172L57.7578 7.70044V7.51294ZM24.9219 8.09888L24.7812 8.2395L24.6641 8.21606L24.8516 8.07544L24.9219 8.09888ZM59.7031 8.14575L59.8906 8.2395L60.5 7.93481L60.1016 7.95825L59.7031 8.14575ZM59.8906 8.2395L59.7031 8.14575L60.1016 7.95825L60.5 7.93481L59.8906 8.2395ZM56.2812 8.09888L56.0703 8.16919L55.8828 8.07544H56.2812V8.09888ZM56.3047 7.93481L56.2812 8.07544H55.8594L56.2578 7.91138L56.3047 7.93481ZM22.7188 7.25513L22.4609 7.41919H22.3906L22.3203 7.44263L22.8359 7.55981L22.2266 7.91138H22.2734L22.8359 7.55981L22.3906 7.46606L22.6719 7.27856L23.0234 7.34888L22.7188 7.25513ZM22.8359 7.55981L22.2734 7.91138H22.2266L22.8359 7.55981ZM62.2109 6.927L62 7.02075V7.20825L62.2109 7.09106V6.927ZM57.7578 7.70044L57.6172 7.63013H57.7578V7.70044ZM23.5156 7.55981L23.8438 7.677L23.9375 7.60669L23.5156 7.55981ZM23.9375 7.60669L23.8438 7.677L23.5156 7.55981L23.9375 7.60669ZM57.7578 7.63013H57.4297L57.5469 7.58325L57.7578 7.51294V7.63013ZM22.4609 7.41919L22.3906 7.46606L22.3203 7.44263L22.3906 7.41919H22.4609ZM23.0234 7.34888L22.6719 7.27856L22.7188 7.25513L23.0234 7.34888ZM25.8125 7.13794L26.1406 7.16138L26.3984 6.95044L26.0938 7.16138L25.8828 7.13794L25.9531 7.06763L25.8125 7.13794ZM52.2734 7.23169L52.3906 7.27856L52.5078 7.13794H52.3438L52.2734 7.23169ZM52.3906 7.27856L52.2734 7.23169L52.3438 7.13794H52.5078L52.3906 7.27856ZM50.2812 6.7395L50.3047 6.95044L50.2109 7.06763L50.2344 7.23169L50.3281 7.1145L50.2812 6.78638L50.3047 6.7395H50.2812ZM50.3281 7.1145L50.2344 7.23169L50.2109 7.06763L50.3047 6.95044L50.3281 7.1145ZM62.0938 7.16138L62 7.20825V7.02075L62.0938 6.97388V7.16138ZM26.1406 7.16138L26.2109 7.09106L26.3984 6.95044L26.1406 7.16138ZM26.1406 7.16138H26.0938L26.2109 7.09106L26.1406 7.16138ZM62.2109 7.09106L62.0938 7.16138V6.97388L62.2109 6.927V7.09106ZM25.8828 7.13794H25.8125L25.9531 7.06763L25.8828 7.13794ZM47.1875 6.80981L47.2578 6.69263L47.1406 6.7395L47.1875 6.80981ZM29.7969 6.85669L29.8906 6.80981H29.8438L29.7969 6.85669ZM56.3281 6.80981L56.2344 6.83325H56.2578L56.3281 6.80981H56.4453V6.927H56.5391V6.76294L56.3281 6.80981ZM56.5391 6.927H56.4453V6.80981H56.5391V6.927ZM29.8906 6.80981L29.7969 6.85669L29.8438 6.80981H29.8906ZM56.5391 6.80981H56.4453V6.78638L56.5391 6.76294V6.80981ZM47.1875 6.80981L47.1406 6.7395L47.2578 6.69263L47.1875 6.80981ZM30.9688 6.31763L30.8984 6.20044L30.6875 6.31763H30.9688ZM27.2891 6.27075L27.3125 6.29419H27.2891L27.2188 6.34106H27.3359C27.3303 6.33069 27.3117 6.30746 27.2891 6.27075ZM27.3125 6.29419L27.3359 6.34106H27.2188L27.3125 6.29419ZM30.9688 6.31763H30.6875L30.8984 6.20044L30.9688 6.31763ZM26.9375 6.08325L27.0547 6.01294H27.0078L26.9375 6.08325ZM27.0547 6.01294L26.9375 6.08325L27.0078 6.01294H27.0547ZM53.4219 6.01294H53.5391L53.4688 5.9895L53.4219 6.01294ZM32.1641 5.82544L32.1875 5.802L32.3281 5.73169H32.3047L32.2344 5.77856L32.1406 5.82544H32.1641ZM53.5391 6.01294H53.4219L53.4688 5.9895L53.5391 6.01294ZM32.1875 5.802L32.1641 5.82544H32.1406L32.1641 5.802H32.1875ZM53.3281 5.802H53.3516V5.77856L53.3281 5.75513V5.802ZM52.4844 5.75513L52.4609 5.77856H52.4375L52.4609 5.75513H52.4844ZM32.5859 5.33325L32.8438 5.40356L32.9844 5.33325H32.5859ZM29.3516 5.00513L29.2344 5.14575V4.88794L29.2812 4.84106L29.1406 4.93481V5.00513L28.8594 5.35669H29.2344V5.427L29.2812 5.35669H29.3516V5.00513ZM29.2344 5.427V5.35669H29.2812L29.2344 5.427ZM32.8438 5.40356L32.5859 5.33325H32.9844L32.8438 5.40356ZM29.1406 5.26294L29.0703 5.35669H28.8594L29.1406 5.00513V5.26294ZM29.1406 5.35669H29.0703L29.1406 5.26294V5.35669ZM29.2344 5.35669H29.1406V5.26294L29.2344 5.14575V5.35669ZM29.3516 5.26294L29.2812 5.35669H29.2344V5.14575L29.3516 5.00513V5.26294ZM29.3516 5.35669H29.2812L29.3516 5.26294V5.35669ZM47.8438 5.28638L47.8906 5.21606L47.7969 5.26294L47.8438 5.28638ZM31.7891 5.02856L31.5781 4.95825L31.4375 5.07544L31.6719 5.14575L31.7891 5.02856ZM38.5625 4.95825L38.9609 5.00513L38.8203 5.14575L39.1484 5.07544L39.1953 5.02856L38.9609 5.00513L39.1016 4.84106L38.5625 4.95825ZM47.8438 5.28638L47.7969 5.26294L47.8906 5.21606L47.8438 5.28638ZM44.9141 5.26294H45.0547V5.21606L44.9141 5.26294ZM45.0547 5.26294H44.9141L45.0547 5.21606V5.26294ZM29.2344 5.14575L29.1406 5.26294V5.00513L29.2344 4.88794V5.14575ZM50.6094 5.00513C50.5393 5.09 50.5098 5.16532 50.4922 5.19263L50.5391 5.09888L50.6094 4.98169V5.00513ZM46.6953 5.12231L46.8125 5.16919L46.9531 5.052L46.7422 5.07544L46.6953 5.12231ZM46.8125 5.16919L46.6953 5.12231L46.7422 5.07544L46.9531 5.052L46.8125 5.16919ZM31.7891 5.02856L31.6719 5.14575L31.4375 5.07544L31.5781 4.95825L31.7891 5.02856ZM39.1953 5.02856L39.1484 5.07544L38.8203 5.14575L38.9609 5.00513L39.1953 5.02856ZM36.5938 5.07544H36.6641L36.7578 5.02856L36.6875 5.00513L36.5938 5.07544ZM36.7578 5.02856L36.6641 5.07544H36.5938L36.6875 5.00513L36.7578 5.02856ZM38.9609 5.00513L38.5625 4.95825L39.1016 4.84106L38.9609 5.00513ZM29.2344 4.88794L29.1406 5.00513V4.93481L29.2344 4.8645V4.88794ZM36.2891 4.72388L36.1016 4.8645H36.1719L36.4531 4.72388H36.2891ZM37.5547 4.70044L37.3672 4.84106H37.4375L37.6719 4.70044H37.5547ZM43.6953 4.37231L43.5547 4.39575L43.4844 4.55981L43.625 4.4895L43.6953 4.37231ZM36.4531 4.72388L36.1719 4.8645H36.1016L36.2891 4.72388H36.4531ZM37.8594 4.44263H37.9062L37.9766 4.39575H37.9297L37.8594 4.44263ZM37.6719 4.70044L37.4375 4.84106H37.3672L37.5547 4.70044H37.6719ZM45.8281 4.58325C45.8143 4.60595 45.8084 4.62337 45.8047 4.63013H45.8281L45.8516 4.77075V4.677L45.8281 4.63013H45.8047V4.60669L45.8281 4.55981V4.58325ZM43.625 4.4895L43.4844 4.55981L43.5547 4.39575L43.6953 4.37231L43.625 4.4895ZM37.9531 4.39575L37.9062 4.44263H37.8594L37.9297 4.39575H37.9531ZM36.875 4.23169L36.8047 4.302L37.4609 4.34888L36.875 4.23169ZM37.4609 4.34888L37.1797 4.32544L37.2266 4.302L37.4609 4.34888ZM37.2266 4.302L37.1797 4.32544L36.8047 4.302L36.875 4.23169L37.2266 4.302ZM38.5156 4.32544L38.5859 4.27856L38.4219 4.302L38.5156 4.32544ZM38.5156 4.32544L38.4219 4.302L38.5859 4.27856L38.5156 4.32544ZM43.5781 4.13794L43.4141 4.16138L43.5312 4.20825L43.5781 4.13794ZM43.5547 4.16138L43.5312 4.20825L43.4141 4.16138L43.5781 4.13794L43.5547 4.16138ZM38.9609 4.02075L39.1484 3.927L38.6562 3.99731L38.9609 4.02075ZM38.9609 4.02075L38.6562 3.99731L39.1484 3.927L38.9609 4.02075ZM40.4609 3.7395H40.5078L40.5781 3.83325L40.6719 3.7395H40.5078V3.71606L40.4609 3.7395ZM40.6719 3.7395L40.5781 3.83325L40.5078 3.7395H40.6719ZM51.9688 66.5989L51.8516 66.7395V67.0208L52.0625 66.7161H51.9688V66.5989ZM59.5859 16.3723L59.9375 16.1614H59.7734L59.5859 16.3723ZM58.8359 16.0911L58.7891 16.1145L59.0234 16.1379L59.0938 16.0911H58.8359ZM27.8984 66.0364L28.0859 66.1301L27.3125 66.1536L27.8984 66.0364ZM3.99219 44.2629L4.01562 44.3098L3.75781 44.2395L3.99219 44.2629Z" fill="#8195FF"/>
</svg>

