<svg width="81" height="63" viewBox="0 0 81 63" fill="none" xmlns="http://www.w3.org/2000/svg">
<path d="M56.4922 4.64844C56.9579 4.45781 57.5735 4.36891 58.2969 4.53125C58.9237 4.67369 59.3707 4.98537 59.7031 5.30469C60.3491 5.16109 61.0415 5.18031 61.6953 5.46875C62.186 5.55804 62.6462 5.73228 63.0312 6.03125L64.2266 6.14844C64.4521 6.22293 64.6313 6.36404 64.8125 6.47656C65.296 6.39303 65.8229 6.37211 66.3594 6.57031C66.406 6.56537 66.4521 6.54973 66.5 6.54688L67.9062 6.80469L68 6.85156L68.0938 6.875L68.4219 7.10938C68.5059 7.10106 68.5908 7.08737 68.6797 7.08594H68.8906L69.6641 7.15625C70.1625 7.2765 70.5355 7.56662 70.8594 7.83594C71.3314 7.73014 71.9155 7.7276 72.5469 7.95312C73.0766 8.14392 73.4676 8.4336 73.7422 8.72656L74.2578 9.5L74.2812 9.52344C74.404 9.47071 74.5416 9.44386 74.6797 9.40625C75.028 9.25579 75.4825 9.11804 76.0391 9.14844H76.1094C76.3259 9.10419 76.5566 9.02299 76.8125 9.03125C77.9697 9.07029 78.7103 9.7231 79.0391 10.1094C79.1173 10.2014 79.1173 10.3445 79.1797 10.4375L80 10.625V11.8906L80.0469 11.9375L80.6562 12.9922L80.6797 13.0859L80.7266 13.2031C80.9555 13.8837 80.8432 14.5282 80.6562 15.1016C80.8599 15.7814 80.8606 16.4926 80.5859 17.1406C80.5748 17.1668 80.5273 17.1856 80.5156 17.2109C80.5541 17.4398 80.5599 17.6761 80.5391 17.9375C80.6324 18.2227 80.7315 18.5325 80.7266 18.8984C80.7235 19.0841 80.6173 19.2502 80.5859 19.4141C80.8297 19.9667 80.9749 20.6093 80.7734 21.3594C80.8294 21.6844 80.8489 22.0419 80.7734 22.4375C80.7261 22.6816 80.626 22.8979 80.5391 23.0938C80.5391 23.1968 80.5494 23.2967 80.5391 23.3984C80.8567 23.9933 81.1139 24.7848 80.8203 25.7188C80.7857 25.8286 80.6758 25.9019 80.6328 26C80.6684 26.2245 80.7151 26.4299 80.7031 26.6328C80.7436 26.8031 80.8095 26.9761 80.8203 27.1719C80.8264 27.2846 80.7784 27.3946 80.7734 27.5C80.8478 27.7134 80.9354 27.9417 80.9609 28.2031C81.0696 29.3227 80.5229 30.0545 80.1172 30.5C80.2823 30.7958 80.3921 31.1492 80.4453 31.5781C80.5979 31.8304 80.7405 32.1404 80.8203 32.5156C80.9157 32.9663 80.8589 33.39 80.7734 33.7812C80.8067 34.1956 80.7997 34.6147 80.6562 35.0234C80.6026 35.1745 80.489 35.2961 80.4219 35.4219C80.3752 36.3976 79.8919 37.0274 79.5312 37.3906C79.5507 37.5137 79.527 37.6354 79.5312 37.7656L79.5547 37.8125L79.5781 37.9531C79.6397 37.9999 79.7276 38.0155 79.7891 38.0703C80.0618 38.314 80.5672 38.8459 80.75 39.7109C80.9068 40.453 80.7127 41.093 80.4688 41.6094C80.4668 41.7259 80.4384 41.8409 80.4219 41.9609C80.4353 42.0522 80.4635 42.1444 80.4688 42.2422C80.4877 42.6084 80.4108 42.9371 80.3281 43.2266C80.4741 43.6601 80.5654 44.1681 80.4453 44.7734L80.4219 44.8906L80.3984 44.9844C80.3856 45.0486 80.3432 45.1085 80.3281 45.1719C80.4461 45.3811 80.5823 45.6145 80.6562 45.8984C80.745 46.2429 80.754 46.5976 80.7266 46.9297L80.4922 47.8906L80.4219 48.0312C80.4269 48.1087 80.4696 48.1846 80.4688 48.2656C80.458 49.1346 80.1056 49.7985 79.7891 50.1875C79.7168 50.2762 79.6068 50.3236 79.5312 50.3984C79.4937 50.528 79.4872 50.6582 79.4375 50.7734V50.9375C79.4318 51.1513 79.4132 51.434 79.3672 51.7109L78.875 53L78.8047 53.1406L78.7344 53.2578C78.5129 53.6085 78.0849 54.1197 77.375 54.4531C76.8674 54.6911 76.3534 54.7371 75.875 54.7109C75.61 54.8999 75.3002 55.0975 74.9141 55.2031C74.3249 55.3625 73.7897 55.2953 73.3438 55.1797C72.897 55.1957 72.52 55.0885 72.1953 54.9688C71.9935 55.2193 71.7859 55.5295 71.4219 55.7422C70.8601 56.068 70.299 56.1347 69.8047 56.1172L69.7812 56.1406C69.1931 56.2564 68.6655 56.1542 68.2578 56.0234C67.7776 56.4713 67.0907 56.9069 66.1719 56.8906C66.0419 56.8879 65.915 56.814 65.7969 56.7969C65.5283 57.0331 65.1945 57.2844 64.7422 57.4297C64.0217 57.6605 63.4101 57.5451 62.9141 57.3828C62.5244 57.5673 62.0906 57.7003 61.5547 57.6875C61.1899 57.9774 60.7314 58.257 60.1016 58.3438C59.8047 58.3841 59.5336 58.3538 59.2812 58.3203L58.5781 58.7891H58.5312L58.5078 58.8125C57.3007 59.5203 56.1651 59.1501 55.5312 58.8125C55.4144 58.8941 55.3059 58.9827 55.1797 59.0469C54.9934 59.2952 54.7759 59.5775 54.4531 59.7969L53.4453 60.2422L53.3281 60.2656L53.2344 60.2891C52.4601 60.4813 51.8163 60.2953 51.3359 60.1016C51.1964 60.0926 51.0635 60.1035 50.9375 60.0781C50.6634 60.2938 50.3333 60.5191 49.9062 60.6406C49.5707 60.7351 49.2568 60.7213 48.9688 60.7109C48.5921 60.9335 48.1563 61.0973 47.6328 61.1328C47.483 61.1873 47.337 61.2868 47.1641 61.3203C46.8515 61.3805 46.5635 61.345 46.2969 61.3203C46.2548 61.3622 46.2493 61.4435 46.2031 61.4844C45.7548 61.881 45.1119 62.1838 44.3516 62.2344C44.1855 62.245 44.0327 62.201 43.8828 62.1875C43.7424 62.283 43.623 62.4155 43.4609 62.4922L42.4297 62.7969L42.3125 62.8203H42.2188C41.5706 62.8946 41.0258 62.7384 40.6016 62.5625C39.8496 62.5352 39.2115 62.3211 38.7734 61.9531C38.7436 61.9281 38.731 61.8847 38.7031 61.8594C38.5763 61.8775 38.4452 61.9518 38.3047 61.9531C38.1637 61.9541 38.0377 61.8761 37.9062 61.8594C37.5681 61.9196 37.1846 61.9489 36.7578 61.8594C36.2276 61.7477 35.8334 61.5036 35.5156 61.25C35.171 61.1554 34.88 61.0045 34.625 60.8281C34.4199 60.9348 34.1739 61.021 33.8984 61.0859L32.9844 61.1562H32.7734C31.7555 61.0852 31.1123 60.5441 30.7109 60.0781C30.5806 60.0896 30.4517 60.1555 30.3125 60.1484L29.0703 59.8203L28.8828 59.7266C28.8409 59.7056 28.8056 59.6549 28.7656 59.6328C28.5811 59.5969 28.3716 59.6401 28.1797 59.5625C27.9623 59.4742 27.8086 59.3023 27.6406 59.1875C27.4236 59.1824 27.2224 59.1609 27.0312 59.1172C26.7568 59.1387 26.4666 59.1349 26.1641 59.0703L25.2969 58.7422L25.1094 58.6484C25.0286 58.6031 24.9708 58.5102 24.8984 58.4609C24.6643 58.464 24.4121 58.5011 24.1484 58.4375C23.9607 58.3921 23.8147 58.2734 23.6562 58.2031C23.4003 58.2891 23.1075 58.3832 22.7656 58.3906C22.5023 58.3962 22.2729 58.2806 22.0391 58.2266C21.9978 58.2341 21.9647 58.2909 21.9219 58.2969C21.1914 58.398 20.5698 58.1683 20.0469 57.875C19.9833 57.8712 19.9238 57.836 19.8594 57.8281C19.5234 57.8746 19.1475 57.9061 18.7344 57.8047C17.9418 57.6095 17.4502 57.1276 17.1406 56.75C16.9716 56.7559 16.7883 56.8235 16.6016 56.7969C16.1705 56.7348 15.8107 56.5594 15.5 56.375C15.229 56.3812 14.9687 56.3119 14.6797 56.2344C14.2213 56.3971 13.6612 56.5351 12.9922 56.375C12.265 56.2006 11.7888 55.77 11.4688 55.4141L11.1641 55.5547H11.0703L11.0234 55.5781L10.9062 55.6016C10.168 55.8075 9.38262 55.7124 8.70312 55.3672C8.63725 55.3645 8.56055 55.3978 8.49219 55.3906C7.81607 55.3178 7.32322 55.0401 6.94531 54.7344C6.70324 54.6802 6.47344 54.6496 6.26562 54.5469C5.0507 54.3492 4.43287 53.5374 4.15625 53.0469C3.6032 52.8118 3.12721 52.4674 2.79688 51.9453C2.49923 51.7092 1.76496 51.0304 1.64844 49.8359C1.63786 49.7252 1.67119 49.6122 1.67188 49.5078C1.36903 49.0504 1.07475 48.4392 1.10938 47.6328V47.4219L1.13281 47.1875V46.9766L1.46094 45.8984C1.34236 45.6828 1.17853 45.4632 1.10938 45.1719C0.93132 44.4184 1.12891 43.7736 1.36719 43.25C1.20596 42.8989 1.06299 42.4862 1.0625 41.9844C1.06263 41.2941 1.27475 40.75 1.53125 40.3438C1.54998 40.2109 1.56849 40.0884 1.60156 39.9688C1.40963 39.566 1.22951 39.0883 1.25 38.5156C1.26701 38.0507 1.40017 37.6562 1.55469 37.3203C1.52114 37.2491 1.44341 37.187 1.41406 37.1094C1.0369 36.1043 1.34022 35.2426 1.69531 34.6016C1.65518 34.4226 1.65369 34.2407 1.64844 34.0391C1.32601 33.569 0.971457 32.886 1.08594 31.9766C1.1033 31.8387 1.19436 31.725 1.22656 31.6016C0.977103 30.8724 1.08821 30.1931 1.32031 29.5859C1.32346 29.5332 1.26745 29.4759 1.27344 29.4219L1.29688 29.3984C0.984849 28.6976 0.824481 27.8761 1.15625 27.0312C1.06065 26.5861 1.07285 26.1756 1.15625 25.7891C1.14337 25.5894 1.13465 25.4046 1.15625 25.2266C1.11083 24.9152 1.11337 24.591 1.17969 24.2422C0.92676 23.7086 0.74378 23.0398 0.96875 22.2031L0.992188 22.0859L1.03906 21.9922L1.50781 20.9609L1.55469 20.9141C1.60761 20.7547 1.5922 20.572 1.67188 20.4219C1.71512 20.3404 1.78907 20.2831 1.83594 20.2109C1.73951 20.0134 1.61087 19.81 1.55469 19.5547C1.44727 19.0661 1.49995 18.6107 1.60156 18.1953C1.40294 17.8406 1.25136 17.4197 1.22656 16.8828C1.12529 16.5546 1.04983 16.1858 1.08594 15.7578L0.921875 14.8672C0.890734 13.9937 1.25824 13.2548 1.64844 12.7812C1.75337 12.6541 1.89236 12.5743 2 12.4766V10.625L2.9375 10.3906C3.2821 9.96778 3.94854 9.36381 5 9.26562C5.23401 9.06983 5.51439 8.88084 5.86719 8.75C6.64205 8.23716 7.58994 8.10993 8.46875 8.375C8.5604 8.40284 8.64324 8.45859 8.72656 8.49219C9.14729 8.15539 9.73128 7.88281 10.5078 7.85938C11.1405 7.84202 11.6454 8.02497 12.0312 8.23438C12.1884 8.10447 12.3596 8.00608 12.5469 7.90625C12.5733 7.8702 12.5882 7.82514 12.6172 7.78906C12.8626 7.48401 13.254 7.1135 13.8359 6.875C14.4477 6.62622 15.0774 6.59739 15.6172 6.71094L15.6641 6.73438C15.7323 6.68127 15.7984 6.61995 15.875 6.57031C16.5428 6.13948 17.3401 6.01317 18.0781 6.14844C18.137 6.15924 18.1866 6.20521 18.2422 6.21875C18.5261 5.94342 18.9164 5.66036 19.4375 5.49219C19.5301 5.46239 19.6282 5.46553 19.7188 5.44531C20.1382 5.23684 20.6508 5.10599 21.2422 5.14062C21.9757 5.18497 22.5068 5.49178 22.8359 5.72656C22.9031 5.63574 22.9384 5.51278 23.0234 5.42188C23.4396 4.97758 24.0437 4.65414 24.7344 4.53125C24.79 4.504 24.8389 4.43884 24.8984 4.41406C25.672 4.09496 26.3854 4.21971 26.9375 4.39062C26.9922 4.38248 27.0445 4.32593 27.1016 4.32031C27.1891 4.31179 27.2761 4.3683 27.3594 4.36719C27.5735 4.08547 27.8825 3.76492 28.3203 3.52344C28.9491 3.17878 29.578 3.15562 30.125 3.21875C30.337 3.19182 30.5369 3.2041 30.7344 3.21875C31.1002 3.02453 31.4628 2.90503 31.8359 2.86719C32.3442 2.55063 32.974 2.30604 33.7578 2.39844C33.9484 2.42153 34.1112 2.53617 34.2734 2.58594C34.6444 2.47408 35.0045 2.43865 35.375 2.46875C35.7281 2.1105 36.2123 1.78809 36.8984 1.64844C37.1139 1.53058 37.3222 1.36511 37.6016 1.29688C38.4789 1.08494 39.1991 1.32749 39.6641 1.55469C39.9458 1.31181 40.593 0.84952 41.5625 0.828125C42.2992 0.812787 42.8628 1.09216 43.2969 1.39062C44.4683 1.26873 45.4111 1.80662 45.9453 2.44531L45.9688 2.51562C46.0086 2.5399 46.0484 2.56066 46.0859 2.58594C46.1857 2.59136 46.2868 2.59304 46.3906 2.60938C46.5693 2.58672 46.7459 2.59964 46.9297 2.60938C47.3713 2.41285 47.981 2.2297 48.7344 2.375C49.0267 2.43215 49.2808 2.54301 49.5078 2.65625C49.5775 2.65023 49.6456 2.61063 49.7188 2.60938C50.3387 2.60072 50.8363 2.79875 51.2422 3.03125C51.4985 3.08534 51.7651 3.13635 52.0156 3.26562C52.2146 3.36848 52.3587 3.51945 52.5078 3.64062C52.7784 3.70861 53.0542 3.77631 53.3047 3.92188C53.5225 4.04942 53.6914 4.22318 53.8438 4.36719C53.9923 4.374 54.1256 4.43408 54.2656 4.46094C54.6308 4.35652 55.0597 4.26678 55.5547 4.34375C55.9154 4.40042 56.2262 4.50975 56.4922 4.64844ZM44.8906 59.8203L44.6797 60.3359L44.9375 60.0312L45.1484 59.5156L44.8906 59.8203ZM44.9375 60.0312L44.6797 60.3359L44.8906 59.8203L45.1484 59.5156L44.9375 60.0312ZM47.6797 58.6484L47.7969 58.5547L47.7031 58.5312L47.6797 58.6484ZM47.7969 58.5547L47.6797 58.6484L47.7031 58.5312L47.7969 58.5547ZM47.4453 57.6172L47.2344 57.7344L47.3281 57.7812L47.4453 57.6172ZM47.3984 57.6875L47.3281 57.7812L47.2344 57.7344L47.4453 57.6172L47.3984 57.6875ZM49.5547 57.0078L49.3203 57.2188L49.7188 57.0078H49.5547ZM46.0391 57.3594H46.625L46.1797 57.0078L46.0391 57.3594ZM46.625 57.3594H46.0391L46.1797 57.0078L46.625 57.3594ZM54.5234 56L54.7578 56.0234V56.0469L54.8281 56.0234H54.7578L54.875 55.625L54.6172 55.6016L54.5234 56ZM49.6484 57.0547L49.3203 57.2188L49.5312 57.0312L49.6484 57.0547ZM47.2109 56.9609L47.375 57.0078L47.4219 56.9609H47.2109ZM49.7188 57.0078L49.6484 57.0547L49.5312 57.0312L49.5547 57.0078H49.7188ZM47.4219 56.9609L47.375 57.0078L47.2109 56.9609H47.4219ZM52.2031 56.9375H52.4141L52.25 56.8906L52.2031 56.9375ZM60.1016 55.8125L59.9141 56.0469L60.1016 56.0703L60.2656 55.8359L60.1016 55.8125ZM52.4141 56.9375H52.2031L52.25 56.8906L52.4141 56.9375ZM30.9922 56.1875V56.2109L30.9453 56.2578L30.8281 56.3047H30.5703L30.5234 56.375L30.5 56.4219L30.5469 56.3984L30.5938 56.4688L30.6406 56.375L30.7812 56.3281L30.8047 56.3047H30.9219L30.9453 56.2578L31.25 56.1406L30.9922 56.1875ZM31.6719 56.3516L31.5781 56.5859L31.6953 56.5625L31.7422 56.4453L31.7891 56.3516H31.6719ZM31.7891 56.3516L31.6953 56.5625L31.5781 56.5859L31.6719 56.3516H31.7891ZM30.5938 56.4688L30.5469 56.3984L30.6406 56.375L30.5938 56.4688ZM30.6875 56.3047L30.6406 56.375L30.5 56.4219L30.5234 56.375L30.5703 56.3047H30.6875ZM30.8047 56.3047L30.7812 56.3281L30.6406 56.375L30.6875 56.3047H30.8047ZM30.9219 56.3047H30.8281L30.9453 56.2578L30.9219 56.3047ZM30.9453 56.2578L30.9688 56.2109L31.25 56.1406L30.9453 56.2578ZM60.2656 55.8359L60.1016 56.0703L59.9141 56.0469L60.1016 55.8125L60.2656 55.8359ZM54.875 55.625L54.7578 56.0234L54.6406 56L54.7344 55.625H54.875ZM54.7344 55.625L54.6406 56H54.5234L54.6172 55.6016L54.7344 55.625ZM53.7734 55.9766H53.75V56L53.7734 55.9766H53.8906L53.9141 55.8594L53.7734 55.9766ZM53.8906 55.9766H53.7734L53.9141 55.8594L53.8906 55.9766ZM61.3672 55.8828L61.3906 55.7656L61.25 55.8359L61.3672 55.8828ZM61.3672 55.8828L61.25 55.8359L61.3906 55.7656L61.3672 55.8828ZM61.4141 55.7422L61.4844 55.8594L61.5078 55.7422L61.4375 55.7188L61.4141 55.7422ZM61.5078 55.7422L61.4844 55.8594L61.4141 55.7422L61.4375 55.7188L61.5078 55.7422ZM29.6797 55.4844L29.375 55.6016L29.7266 55.5078L29.6797 55.4844ZM29.7266 55.5078L29.375 55.6016L29.6797 55.4844L29.7266 55.5078ZM57.9219 55.2031L57.5938 55.3438L57.7344 55.3672L57.9453 55.2031H57.9219ZM72.8281 17.0469C72.6232 17.1343 72.4034 17.1461 72.1719 17.1875C72.0819 17.3105 72.0403 17.4853 71.9141 17.6094C71.3228 18.1861 70.4162 18.5813 69.4062 18.4531C69.2348 18.4308 69.0841 18.3328 68.9375 18.2891C68.6253 18.4283 68.3432 18.539 68.0469 18.5703C67.9668 18.6382 67.9065 18.7409 67.8125 18.8047C67.0335 19.3327 66.1079 19.4389 65.3047 19.2266C65.142 19.1831 65.0182 19.0517 64.8828 18.9922C64.5758 19.0886 64.2934 19.1298 64.0156 19.1328C63.8115 19.2312 63.616 19.3815 63.3594 19.4375C63.1026 19.4933 62.8595 19.4423 62.6328 19.4375C61.9365 19.7391 61.3239 19.7479 60.8047 19.625C60.7278 19.6815 60.658 19.737 60.5703 19.7891C60.5359 19.8481 60.5405 19.9405 60.5 20C60.254 20.3599 59.7582 20.8975 58.9531 21.1719C58.4243 21.3499 57.9285 21.3127 57.5 21.2422C57.4349 21.271 57.3826 21.3341 57.3125 21.3594C56.9654 21.4846 56.6325 21.5183 56.3281 21.5234C56.1512 21.5786 55.9921 21.6655 55.8125 21.6875C55.6348 21.7615 55.4559 21.8111 55.25 21.8516C54.9186 22.0208 54.5409 22.1716 54.1016 22.2031C53.9004 22.2175 53.7157 22.1533 53.5391 22.1328C53.2466 22.1906 52.9584 22.2064 52.6719 22.1797C52.4366 22.2559 52.1802 22.3283 51.8984 22.3438C51.5708 22.3615 51.292 22.2429 51.0312 22.1797C50.9376 22.197 50.8505 22.2178 50.75 22.2266C50.6128 22.4789 50.4575 22.7992 50.1641 23.0703L49.3672 23.6094L49.2734 23.6562L49.1797 23.6797C48.793 23.8583 48.3884 23.9594 48.0078 23.9844L46.9062 23.8672L46.7891 23.8438L46.7422 23.8203C46.5788 23.8849 46.409 23.9244 46.2266 23.9609V23.9844C45.8821 24.24 45.4621 24.3848 45.0078 24.4766C45.0383 24.7723 45.0748 25.09 45.0078 25.4141C44.9825 25.535 44.9034 25.6338 44.8672 25.7422C44.9277 25.9081 44.9985 26.084 45.0312 26.2812C45.1227 26.8366 45.0329 27.3498 44.8672 27.8047C44.95 28.381 44.9265 28.976 44.6797 29.5156C44.6559 29.5674 44.6114 29.6078 44.5859 29.6562C44.5479 29.7552 44.5138 29.8489 44.4688 29.9375V29.9844C44.5515 30.1278 44.686 30.2549 44.75 30.4297C45.1246 31.4576 44.7808 32.3101 44.4219 32.9375C44.421 32.9691 44.4238 32.9991 44.4219 33.0312C44.4754 33.1021 44.5591 33.1621 44.6094 33.2422C44.8538 33.6341 45.0636 34.1673 45.0781 34.8125C45.0903 35.3659 44.9173 35.8286 44.7266 36.2188L44.6094 36.9453L44.5859 37.0625L44.5391 37.1562L44.4922 37.1797C44.4902 37.2448 44.4981 37.3042 44.4922 37.3672C44.822 37.8486 45.157 38.5497 45.0312 39.4766C45.0177 39.5743 44.9586 39.6674 44.9375 39.7578L45.0078 40.0391V40.1562L44.9844 40.2266C44.9918 40.5211 44.8951 40.7902 44.8203 41.0703C44.7926 41.1664 44.7845 41.2629 44.75 41.3516C44.7476 41.4203 44.7808 41.4919 44.7734 41.5625C44.7465 41.8144 44.6351 42.0363 44.5625 42.2422C44.8651 42.8018 45.1027 43.544 44.8906 44.3984C44.8817 44.4342 44.8302 44.4576 44.8203 44.4922C44.8258 44.532 44.8631 44.5683 44.8672 44.6094C44.9345 45.3022 44.744 45.8658 44.5156 46.2969L44.5391 46.3203C44.6002 46.8173 44.5176 47.2411 44.3984 47.6094C44.4266 47.9883 44.3802 48.3284 44.2812 48.6641C44.2838 48.9306 44.2485 49.1713 44.1875 49.4141C44.1729 49.4887 44.1371 49.552 44.1172 49.625C44.1848 49.8405 44.2153 50.0657 44.2344 50.3047L44.7031 50.8672L44.75 50.9844L44.8203 51.0781L45.1016 51.875C45.2666 52.6852 45.0744 53.5053 44.6562 54.1484C44.6333 54.1837 44.5627 54.1855 44.5391 54.2188C44.4899 54.3551 44.4839 54.4992 44.4219 54.6172C44.4254 54.7863 44.4217 54.9495 44.3984 55.1094C44.4507 55.1897 44.4912 55.2759 44.5391 55.3672C44.6009 55.3523 44.665 55.3547 44.7266 55.3438C44.8329 55.291 44.9363 55.2213 45.0547 55.1797C45.1567 54.9097 45.3359 54.4916 45.7109 54.1016C46.1833 53.6116 46.8551 53.2332 47.6328 53.1641L48.4297 53.2109L48.6641 53.2578H48.7109C48.8539 53.1609 49.0036 53.0552 49.1797 52.9766L49.3672 52.8828L50.2344 52.6484C50.8511 52.571 51.3765 52.7374 51.7812 52.9062C52.0022 52.6632 52.3049 52.4008 52.7188 52.2031C53.3098 51.9217 53.9243 51.8857 54.4766 51.9688C55.1056 51.5914 55.842 51.4048 56.5859 51.5469C56.7323 51.5751 56.8583 51.6444 56.9844 51.6875C57.3967 51.4345 57.9015 51.2308 58.5078 51.2188C59.0512 51.2083 59.5039 51.3451 59.8438 51.5C59.9925 51.4553 60.1554 51.4755 60.3125 51.4531C60.4709 51.3037 60.6366 51.1379 60.8516 51.0078L60.9453 50.9609L61.0391 50.8906L61.9062 50.5625C62.1027 50.3418 62.3614 50.1345 62.6797 49.9531C63.3537 49.57 63.9885 49.5298 64.5312 49.6016C64.9821 49.19 65.5664 48.8512 66.2656 48.7578H67.1797C67.4229 48.742 67.6485 48.6765 67.8594 48.7109C68.224 48.6549 68.6031 48.648 68.9844 48.7344L69.0547 48.7578C69.4455 48.6185 69.8233 48.5797 70.1797 48.5938C70.5861 48.3584 71.0534 48.1699 71.5859 48.1484C71.6254 48.1469 71.6646 48.1485 71.7031 48.1484C71.8465 48.113 71.996 48.0923 72.1484 48.0781C72.4081 47.7587 72.8078 47.4184 73.3672 47.1875L73.4375 47.1406C73.2389 46.7422 73.0844 46.2483 73.1094 45.6641C73.1281 45.2446 73.2087 44.8684 73.3438 44.5625C73.2696 44.3397 73.2215 44.0972 73.2031 43.8359C73.0345 43.3457 72.981 42.8264 73.0859 42.2891C73.0776 42.2046 73.0404 42.1208 73.0391 42.0312C73.032 41.5663 73.1349 41.1693 73.2734 40.8359C73.2837 40.726 73.2522 40.6123 73.2734 40.5078C73.1388 39.9179 73.1301 39.2912 73.3672 38.7031V38.6797C73.1201 38.1915 72.9787 37.6059 73.0625 36.9219L73.0391 36.875C72.7821 35.9069 73.0406 35.0227 73.4375 34.4141C73.5032 34.3136 73.6026 34.2401 73.6719 34.1562C73.7022 34.0156 73.7204 33.882 73.7656 33.7578C73.7591 33.6398 73.7107 33.509 73.7188 33.3828C73.7232 33.3176 73.7575 33.2577 73.7656 33.1953C73.681 33.0777 73.5361 32.9914 73.4609 32.8438C73.2667 32.4608 73.1492 32.0269 73.1328 31.5781C73.0052 31.2246 72.9125 30.8149 72.9453 30.3359V30.2188L72.9688 30.125L73.3672 28.7891C73.4109 28.7129 73.4619 28.6451 73.5078 28.5781C73.5268 28.4461 73.5452 28.322 73.5781 28.2031C73.4279 27.9006 73.3289 27.53 73.2969 27.1016C73.2725 27.0383 73.2241 26.9819 73.2031 26.9141C72.9284 26.0241 73.1688 25.2659 73.4609 24.6875C73.4022 24.4821 73.3138 24.2712 73.2969 24.0312V23.8203C73.2912 23.7403 73.3199 23.6627 73.3203 23.5859C73.0885 22.8911 73.0391 22.132 73.3672 21.4062C73.4218 21.2856 73.4919 21.1806 73.5547 21.0781C73.1465 20.5057 72.7217 19.6471 73.0625 18.5C73.1946 18.0562 73.4245 17.717 73.6484 17.4453H73.5781C73.2615 17.3663 73.0394 17.1694 72.8281 17.0469ZM57.9453 55.2031L57.7344 55.3672L57.5938 55.3438L57.9453 55.2031ZM60.7344 54.875L60.8281 55.0156L60.8984 54.9219L60.8047 54.7812L60.7344 54.875ZM58.0625 55.1328L58.1562 55.0859V55.0391L58.0625 55.1094V55.1328ZM58.1562 55.0859L58.0625 55.1328V55.1094L58.1562 55.0391V55.0859ZM60.8984 54.9219L60.8281 55.0156L60.7344 54.875L60.8047 54.7812L60.8984 54.9219ZM62.7031 54.2891L62.6094 54.7109L62.7266 54.6641L62.7734 54.5469L62.6328 54.6172L62.7031 54.2891H62.9375L62.8438 54.2422L62.8203 54.2891H62.7031ZM62.7266 54.6641L62.6094 54.7109L62.6328 54.6172L62.7734 54.5469L62.7266 54.6641ZM64.9531 54.0547H65.0703L65.1172 53.9375L64.9531 54.0312V54.0547ZM63.6406 53.6094H63.5938H63.6406ZM61.4375 53.8906L61.2266 54.1953L61.625 54.2188L61.6484 54.1484L61.5312 54.1016L61.5078 54.2188H61.3906L61.4141 54.1953H61.3906L61.4375 53.8906ZM62.9375 54.2891H62.8203L62.8438 54.2422L62.9375 54.2891ZM61.6484 54.1484L61.625 54.2188H61.5078L61.5312 54.1016L61.6484 54.1484ZM61.4141 54.0312L61.3906 54.2188L61.2266 54.1953L61.4375 53.8906L61.4141 54.0312ZM9.05469 18.5469L8.70312 19.6016L8.65625 19.7188L8.58594 19.8125C8.55928 19.8605 8.49697 19.8846 8.46875 19.9297C8.62725 20.2156 8.78689 20.5625 8.84375 20.9844C8.95851 21.849 8.63688 22.5218 8.32812 23C8.45728 23.26 8.60639 23.5543 8.65625 23.9141C8.72963 24.4518 8.63415 24.9207 8.49219 25.3203C8.75667 25.7395 9.04086 26.3131 9.00781 27.0547C8.98098 27.6448 8.75416 28.1037 8.53906 28.4609C8.60928 28.8562 8.62795 29.2823 8.51562 29.7266C8.4891 29.8315 8.40952 29.9133 8.375 30.0078V30.0312C8.70319 30.4665 9.07308 31.1612 9.00781 32.0703C8.96072 32.7199 8.66781 33.1918 8.42188 33.5469C8.72982 34.0062 9.04573 34.654 8.96094 35.5156C8.93334 35.7875 8.85313 36.0231 8.77344 36.2422L8.82031 36.3125L9.10156 37.0859C9.22478 37.683 9.12714 38.282 8.91406 38.8203C9.02813 39.092 9.14427 39.3908 9.17188 39.7344L9.125 40.5781L9.10156 40.6719L9.07812 40.7891C8.9474 41.4431 8.60206 41.8859 8.32812 42.1953C8.36529 42.2632 8.45841 42.3078 8.49219 42.3828C8.68227 42.8062 8.71876 43.2711 8.70312 43.7422C8.77653 43.8954 8.86463 44.0513 8.91406 44.2344L9.00781 45.2188V45.3359C9.11661 45.7439 9.15224 46.2197 9.05469 46.7188C8.99164 47.0364 8.82557 47.2821 8.70312 47.5156C8.91832 47.5344 9.13938 47.5618 9.35938 47.6328L10.1562 48.0312L10.25 48.1016L10.3438 48.1484L10.5547 48.3594C10.9405 48.4507 11.2679 48.5997 11.5391 48.7812C11.5994 48.7637 11.6623 48.7488 11.7266 48.7344C11.9155 48.6927 12.1208 48.7399 12.3125 48.7344C12.515 48.6663 12.7383 48.5714 12.9922 48.5469C13.7187 48.4782 14.3572 48.7251 14.8906 49.0625C14.9492 49.0546 15.0166 49.0437 15.0781 49.0391C15.6762 48.996 16.2094 49.1512 16.6719 49.3906C16.881 49.4255 17.0747 49.4834 17.2578 49.5547H17.3047L17.3984 49.5078L18.5469 49.4375C18.9464 49.4848 19.3589 49.6163 19.7422 49.8359C19.7859 49.8611 19.8182 49.9033 19.8594 49.9297C20.6867 50.0609 21.314 50.4577 21.6875 50.8906C21.7559 50.9704 21.7734 51.0935 21.8281 51.1719C21.8946 51.1861 21.9527 51.2247 22.0156 51.2422C22.4033 51.0061 23.1124 50.7013 23.9609 50.7969L24.875 51.0547L25.0625 51.1484C25.2207 51.2196 25.3533 51.3203 25.4844 51.4062C25.6358 51.4478 25.7669 51.5314 25.9062 51.5938C26.448 51.6558 26.8722 51.8167 27.2188 52.0625C27.2788 52.0825 27.3452 52.0849 27.4062 52.1094C27.6358 52.2017 27.84 52.3153 28.0156 52.4375C28.7301 52.2649 29.5999 52.2474 30.4297 52.7891C30.4667 52.8133 30.4884 52.8578 30.5234 52.8828C30.8333 52.7337 31.2053 52.5809 31.6484 52.5547L32.8438 52.7422L32.9375 52.7656L33.0547 52.8125L33.8047 53.1875C33.8279 53.2038 33.8527 53.2177 33.875 53.2344C34.1658 53.3367 34.4602 53.4358 34.7188 53.6328C34.8096 53.7022 34.8769 53.7947 34.9531 53.8672C35.2237 53.8712 35.4808 53.9144 35.7266 53.9844C36.2739 53.9178 36.8387 53.9278 37.3672 54.1719C37.3567 54.132 37.3294 54.0959 37.3203 54.0547C37.1847 53.4382 37.2889 52.8658 37.4609 52.3672C37.206 51.9514 36.9442 51.3946 36.9688 50.6797C36.9861 50.1863 37.1301 49.7739 37.2969 49.4375C37.2903 49.3731 37.2758 49.3126 37.2734 49.25C37.1312 48.8422 37.0478 48.3484 37.1328 47.7969C37.1546 47.6589 37.2371 47.5446 37.2734 47.4219C37.2383 47.1625 37.2208 46.912 37.25 46.6484C37.1965 46.4505 37.1224 46.2463 37.1094 46.0156C37.1041 45.9208 37.1299 45.8252 37.1328 45.7344V45.7109C37.1074 45.4631 37.1269 45.2299 37.1562 45.0078L37.1328 44.9609V44.9141C36.9865 44.3493 37.0253 43.8627 37.1328 43.4375C37.1084 42.8032 37.2901 42.2911 37.5078 41.8906C37.5277 41.4741 37.6011 41.1203 37.7422 40.8125C37.7435 40.7058 37.7057 40.5979 37.7188 40.4844C37.4935 40.1949 37.2473 39.7924 37.1328 39.2656C37.0137 38.7128 37.0724 38.2026 37.2031 37.7656C37.2301 37.1761 37.4456 36.7059 37.6719 36.3359C37.5264 36.0606 37.3989 35.736 37.3438 35.3516C37.3192 35.1802 37.3417 35.0161 37.3438 34.8594C37.2271 34.4189 37.2005 33.9702 37.2969 33.5V33.4766L37.25 33.3594C37.0232 32.8755 36.9028 32.2868 36.9922 31.6484C37.0426 31.2904 37.1216 30.9703 37.25 30.7109C37.1466 30.4966 37.0701 30.2428 37.0156 29.9609C36.8987 29.3533 36.9927 28.7825 37.1797 28.2969C37.1504 27.9892 37.1494 27.7144 37.2031 27.4531C37.1949 27.4056 37.1623 27.3619 37.1562 27.3125C37.0927 26.7876 37.1637 26.3341 37.2969 25.9531C37.3028 25.5154 37.3676 25.1278 37.5078 24.8047C37.4307 24.6472 37.3505 24.4821 37.2969 24.2891C37.0707 24.272 36.834 24.2719 36.5938 24.1953C36.242 24.0831 35.9455 23.9285 35.7031 23.75L35.1172 23.2109L35.0469 23.0938L34.9297 22.9766L34.8594 23C34.7969 23 34.7319 22.9563 34.6719 22.9531C34.2688 23.2145 33.6807 23.4943 32.9141 23.4688C32.2157 23.4446 31.7029 23.1749 31.2969 22.8828L31.0156 22.9766L30.9219 23H30.8047C29.5219 23.0678 28.7542 22.4003 28.2969 21.8281C28.2337 21.8406 28.1762 21.8896 28.1094 21.8984C27.309 22.0027 26.6013 21.7295 26.0234 21.3359C25.7567 21.3982 25.4685 21.4999 25.1328 21.4766C25.0356 21.4696 24.9432 21.3979 24.8516 21.3828C24.6024 21.4238 24.3312 21.5326 24.0312 21.5C23.2961 21.4183 22.7803 21.0465 22.3906 20.7031C22.1025 20.6973 21.7803 20.6756 21.4531 20.5625C21.1907 20.4709 20.9694 20.342 20.7734 20.2109L20.7031 20.2344L20.5859 20.2578C20.1833 20.3291 19.7721 20.2996 19.3672 20.2109C19.0336 20.2367 18.6643 20.2338 18.2656 20.1172C17.7926 19.9781 17.4305 19.7339 17.1406 19.4844C16.8453 19.4514 16.5386 19.3904 16.2266 19.25C16.0805 19.2423 15.9154 19.2816 15.7578 19.25C15.4671 19.1907 15.2325 19.0585 15.0078 18.9453C14.8528 18.9397 14.7093 18.9027 14.5625 18.875C13.9768 18.9494 13.298 18.9164 12.6172 18.5C12.2781 18.5536 11.8873 18.572 11.4688 18.4766C10.9714 18.362 10.5802 18.1336 10.2734 17.8906C9.85065 17.9669 9.42609 17.9486 9.00781 17.8438C9.03024 18.0885 9.08763 18.3183 9.05469 18.5469ZM15.5469 53.8438L15.3359 54.0547L15.5469 54.0078L15.6641 53.8906L15.8516 53.6797L15.6406 53.7266L15.5469 53.8438ZM15.6641 53.8906L15.5469 54.0078L15.3359 54.0547L15.5469 53.8438L15.6641 53.8906ZM65.0703 54.0547H64.9531V54.0312L65.1172 53.9375L65.0703 54.0547ZM15.6641 53.8906L15.5469 53.8438L15.6406 53.7266L15.8516 53.6797L15.6641 53.8906ZM67.2734 53.5625H67.6719L67.625 53.3984L67.2734 53.5625ZM67.6719 53.5625H67.2734L67.625 53.3984L67.6719 53.5625ZM15.6406 53.1406L15.6875 53.1172H15.5469L15.5938 53.1406H15.6406ZM68.4922 52.2969L68.5391 52.3203L68.1875 52.5312L68.0234 52.625L67.8359 52.7422H67.1094L66.7812 52.9062V52.9531L67.1562 52.7422H67.8594L68.0938 52.625H68.1406L68.4688 52.4609L68.3047 52.5312H68.1875L68.5391 52.3203L68.5859 52.2969H68.4922ZM15.6406 53.1406H15.5938L15.5469 53.1172H15.6875L15.6406 53.1406ZM65.2578 53.0703H65.375L65.3984 53L65.2578 53.0703ZM65.375 53.0703H65.2578L65.3984 53L65.375 53.0703ZM67.1562 52.7422L66.7812 52.9531V52.9062L67.1094 52.7422H67.1562ZM71.3516 52.3203V52.4609H71.3984L71.4688 52.3203H71.3516ZM65.5391 52.5781L65.4688 52.7891L65.9375 52.5781H65.5391ZM65.4688 52.7891L65.5391 52.5781H65.9375L65.4688 52.7891ZM68.0938 52.625L67.8594 52.7422H67.8359L68.0234 52.625H68.0938ZM67.4609 52.5547H67.3906V52.5781L67.3672 52.6016L67.4609 52.5547H67.4844V52.5312L67.4609 52.5547ZM68.1406 52.625H68.0938L68.3047 52.5312H68.3281L68.1406 52.625ZM68.0938 52.625H68.0234L68.1875 52.5312H68.3047L68.0938 52.625ZM67.3906 52.1562L67.4609 52.2969V52.2734C67.4475 52.2498 67.4245 52.2078 67.3906 52.1562ZM71.4688 52.3203L71.3984 52.4609H71.3516V52.3203H71.4688ZM68.5859 52.2969L68.5391 52.3203L68.4922 52.2969H68.5859ZM74.6328 51.5469L74.7734 51.4766H74.6797L74.6328 51.5469ZM70.8828 51.3125L70.6484 51.2656V51.2422L70.7891 51.2891L70.625 51.5469L70.9062 51.3359L70.9531 51.2891L70.8828 51.3125ZM6.14844 51.3359L6.21875 51.5234H6.33594V51.5938H6.54688V51.5L6.33594 51.5234V51.3359H6.14844ZM6.45312 51.5938H6.33594V51.5234H6.45312V51.5938ZM6.54688 51.5938H6.45312V51.5234L6.54688 51.5V51.5938ZM8.04688 51.5469C8.05717 51.5231 8.08293 51.5036 8.09375 51.4766C8.10082 51.4588 8.10349 51.4206 8.11719 51.3828C8.08995 51.4375 8.07623 51.4957 8.04688 51.5469ZM70.7188 51.4766L70.625 51.5469L70.6719 51.4766H70.7188ZM74.6328 51.5469L74.6797 51.4766H74.7734L74.6328 51.5469ZM6.33594 51.5234H6.21875L6.14844 51.3359H6.33594V51.5234ZM70.9062 51.3359L70.7188 51.4766H70.6719L70.7188 51.3828L70.9531 51.2891L70.9062 51.3359ZM74.9844 50.9609H75.0547L75.0781 50.9375L75.0078 50.9141L74.9844 50.9609ZM70.8828 51.3125L70.7188 51.3828L70.7891 51.2891L70.8828 51.3125ZM6.42969 51.0078L6.52344 51.0547V51.1719H6.42969V51.0078ZM9.42969 50.8906L9.61719 51.1016L9.57031 50.8906H9.42969ZM76.0625 50.4219L76.0156 50.4453L75.4531 50.4688L75.1719 50.75L75.0312 50.8203H75.3125L75.5234 50.5859L75.6641 50.5391L75.6406 50.5156L75.8047 50.4688L76.2266 50.4453L76.1094 50.8438H75.5703L75.4062 50.9609L76.0859 50.9375L76.1094 50.8438H76.1328L76.25 50.7969L76.3672 50.4453H76.2266V50.4219H76.1094L76.1562 50.2812L75.875 50.4219H76.0625ZM9.61719 51.1016L9.42969 50.8906H9.57031L9.61719 51.1016ZM71.9844 51.0078H72.125L72.0312 50.8906L71.9844 51.0078ZM72.125 51.0078H71.9844L72.0312 50.8906L72.125 51.0078ZM74.7031 50.9609H74.7734L74.8203 50.9141L74.7031 50.9609ZM74.7734 50.9609H74.7031L74.8203 50.9141L74.7734 50.9609ZM75.0781 50.9375L75.0547 50.9609H74.9844L75.0078 50.9141L75.0781 50.9375ZM76.1094 50.8438L76.0859 50.9375L75.4062 50.9609L75.5 50.8672L75.5703 50.8438H76.1094ZM76.25 50.7969L76.1328 50.8438H76.1094L76.2266 50.4453H76.3672L76.25 50.7969ZM75.5 50.5859L75.3594 50.7734L75.3125 50.8203H75.2188L75.4297 50.6562L75.4766 50.6094L75.5 50.5859ZM75.3125 50.75L75.2188 50.8203H75.125L75.4297 50.6562L75.3125 50.75ZM75.1484 50.7969L75.125 50.8203H75.1016L75.125 50.7969H75.1484ZM75.1016 50.8203H75.0312L75.1719 50.75L75.1016 50.8203ZM75.6406 50.4922L75.4766 50.6094L75.4297 50.6562L75.1484 50.7969H75.125L75.4531 50.4688H75.6172L75.6406 50.4922ZM74.9844 50.4688H75.2422L75.2891 50.3984H75.1016L74.9844 50.4688ZM75.6406 50.4922L75.6641 50.5391L75.5234 50.5859H75.5469L75.4766 50.6094L75.6406 50.4922ZM75.6406 50.5156L75.6172 50.4922L75.6641 50.4688H75.8047L75.6406 50.5156ZM75.2891 50.3984L75.2422 50.4688H74.9844L75.1016 50.3984H75.2891ZM76.2266 50.4219V50.4453H76.0156L76.0625 50.4219H76.2266ZM76.1094 50.4219H75.875L76.1562 50.2812L76.1094 50.4219ZM76.4844 50.0469L76.4609 50.0703L76.5547 50.0938L76.6719 50.0469H76.4844ZM76.6719 50.0469L76.5547 50.0938L76.4609 50.0703L76.4844 50.0469H76.6719ZM4.8125 49.8594L4.71875 49.7891V49.8125L4.8125 49.8594ZM4.71875 49.7891L4.8125 49.8594L4.71875 49.8125V49.7891ZM3.89844 44.8906H4.0625L3.875 44.8438L3.89844 44.8906ZM76.3438 45.3828H76.2969L76.3438 45.5L76.6016 45.4297L76.5312 45.2422L76.3672 45.2656L76.3438 45.3828ZM76.6016 45.4297L76.3438 45.5L76.4141 45.3594L76.5547 45.3359L76.6016 45.4297ZM76.3438 45.5L76.3203 45.4531L76.3438 45.3828L76.4141 45.3594L76.3438 45.5ZM76.3203 45.4531L76.2969 45.3828H76.3438L76.3203 45.4531ZM77.3047 45.0312L77.0703 45.0781L76.9531 45.3359H77.0234L77 45.2422L77.0234 45.1953L77.3281 45.125L77.3047 45.0312ZM76.4141 45.3594L76.3438 45.3828L76.3672 45.2656L76.4609 45.2422L76.4141 45.3594ZM76.5547 45.3359L76.4141 45.3594L76.4609 45.2422H76.5312L76.5547 45.3359ZM4.50781 45.125L4.76562 45.1953L4.74219 45.1484L4.50781 45.125ZM77.0234 45.3359H76.9531L77 45.2422L77.0234 45.3359ZM77.3281 45.125L77.0234 45.1953L77.0703 45.0781L77.3047 45.0312L77.3281 45.125ZM80.3047 44.9609C80.3057 44.8745 80.3123 44.7896 80.3047 44.7031C80.321 44.79 80.2961 44.8759 80.3047 44.9609ZM4.0625 44.8906H3.89844L3.875 44.8438L4.0625 44.8906ZM77.0234 44.0938H77.0938L77.0703 44L77.1875 43.7891L77.3047 44.3516L77.1875 44.3281L77.3281 44.5625L77.4219 44.375L77.3047 44.3516L77.1875 43.8359L77.2344 43.6484L77.3984 43.3203L77.375 43.1797L77.2344 43.6484L77.1875 43.8359V43.7891L77.0234 44.0938ZM77.4219 44.375L77.3281 44.5625L77.1875 44.3281L77.4219 44.375ZM77.0938 44.0938H77.0234L77.0703 44L77.0938 44.0938ZM77.3984 43.3203L77.2344 43.6484L77.375 43.1797L77.3984 43.3203ZM6.07812 42.7578L5.82031 43.1094L5.86719 43.3203L6.19531 42.8984L6.07812 42.7578ZM6.125 42.9922L5.86719 43.3203L5.82031 43.1094L6.00781 42.875L6.125 42.9922ZM6.19531 42.8984L6.125 42.9922L6.00781 42.875L6.07812 42.7578L6.19531 42.8984ZM5.16406 42.1953L5.09375 42.4062L5.1875 42.3359L5.16406 42.1953ZM5.1875 42.3359L5.09375 42.4062L5.16406 42.1953L5.1875 42.3359ZM4.50781 41.3281L4.55469 41.3984L4.64844 41.2578L4.55469 41.1406L4.50781 41.3281ZM77.3984 41.7266L77.4922 41.4219L77.4453 41.2578L77.3516 41.6328L77.3984 41.7266ZM5.98438 41.7969L6.40625 41.3281L5.96094 41.7031L5.98438 41.7969ZM5.98438 41.7969L5.96094 41.7031L6.40625 41.3281L5.98438 41.7969ZM77.4922 41.4219L77.3984 41.7266L77.3516 41.6328L77.4453 41.2578L77.4922 41.4219ZM3.92188 41.3516L4.10938 41.7031L4.15625 41.6328L3.92188 41.3516ZM3.92188 41.3516L4.15625 41.6328L4.10938 41.7031L3.92188 41.3516ZM4.64844 41.2578L4.55469 41.3984L4.50781 41.3281L4.55469 41.1406L4.64844 41.2578ZM5.67969 40.1094L5.65625 40.1562L5.63281 40.2734V40.2031L5.25781 40.6484L5.30469 40.8828L5.5625 40.5547L5.63281 40.2734L5.65625 40.1562L5.70312 40.1094H5.67969ZM5.63281 40.2734L5.5625 40.5547L5.30469 40.8828L5.25781 40.6484L5.63281 40.2031V40.2734ZM4.29688 39.2656L4.27344 39.3594H4.50781L4.48438 39.2656H4.29688ZM76.625 39.2891L76.6016 39.3828H76.6953L76.6719 39.2891H76.625ZM76.6953 39.3828H76.6016L76.625 39.2891H76.6719L76.6953 39.3828ZM4.50781 39.3594H4.27344L4.29688 39.2656H4.48438L4.50781 39.3594ZM76.7188 38.8203L76.7656 38.7969L76.7422 38.7266L76.7188 38.8203ZM76.7656 38.7969L76.7188 38.8203L76.7422 38.7266L76.7656 38.7969ZM78.1719 38.2344L77.9844 38.3047L78.1719 38.3516L78.3359 38.2812L78.1719 38.2344ZM78.3359 38.2812L78.1719 38.3516L77.9844 38.3047L78.1719 38.2344L78.3359 38.2812ZM76.2734 37.9062H76.2969L76.3672 37.8125H76.3203L76.2734 37.9062ZM6.38281 37.2969L5.84375 37.6484L5.82031 37.6953L5.60938 37.8125L5.42188 37.9297L5.44531 37.8828L5.51562 37.8594L5.49219 37.7422L5.44531 37.8828L5.42188 37.9297L5.63281 37.7891L5.82031 37.6953L5.84375 37.6484L6.38281 37.2969L6.33594 37.4609L6.5 37.3438L6.33594 37.4375L6.38281 37.2969ZM76.3672 37.8125L76.2969 37.9062H76.2734L76.3203 37.8125H76.3672ZM5.51562 37.8594L5.44531 37.8828L5.49219 37.7422L5.51562 37.8594ZM75.5469 37.8359L75.5938 37.7422L75.5 37.7188L75.5469 37.8359ZM75.5938 37.7422L75.5469 37.8359L75.5 37.7188L75.5938 37.7422ZM44.75 36.0781C44.779 35.9804 44.802 35.8814 44.8203 35.7734C44.8141 35.8812 44.7657 35.9743 44.75 36.0781ZM76.7656 35.5156L76.6719 35.7734L76.7656 35.5625V35.5156ZM5.67969 35.4453L5.75 35.6797L5.89062 35.2109L5.67969 35.4453ZM76.7656 35.5625L76.6719 35.7734L76.7656 35.5156V35.5625ZM5.75 35.6797L5.67969 35.4453L5.89062 35.2109L5.75 35.6797ZM5.23438 33.5V33.4062L5.16406 33.5H5.23438ZM5.23438 33.4062L5.21094 33.5H5.16406V33.4766L5.23438 33.4062ZM5.1875 32.6797L5.11719 32.7969L5.16406 33.125L5.25781 32.9609L5.1875 32.6797ZM5.25781 32.9609L5.16406 33.125L5.11719 32.7969L5.1875 32.6797L5.25781 32.9609ZM77.6094 31.7422V31.7188L77.4922 31.7422V31.7656H77.5156L77.6094 31.7422ZM76.9062 29.5859H76.9531L76.9766 29.7031H76.9297L76.7656 30.1719L76.7422 30.1953L76.7188 30.125L76.6719 30.3125L77.0703 29.7266L76.9766 29.7031L76.9531 29.5859H76.9062L76.9297 29.4922H77V29.4688L76.9766 29.4922H76.9297L76.9062 29.5859ZM4.64844 30.0547L4.69531 29.8672L4.57812 29.75L4.64844 30.0547ZM76.7422 30.1953L76.6719 30.3125L76.7188 30.125L76.7422 30.1953ZM77.6797 29.8203L77.4453 29.7969L77.5625 30.2891L77.6797 29.8203ZM77.6797 29.8203L77.5625 30.2891L77.4453 29.7969L77.6797 29.8203ZM76.9766 29.7031L77 29.7969L76.7656 30.1719L76.9297 29.7031H76.9766ZM4.69531 29.8672L4.64844 30.0547L4.57812 29.75L4.69531 29.8672ZM76.6016 29.6562L76.5312 29.8438L76.6484 29.6562H76.6016ZM77.0703 29.7266L77 29.7969L76.9766 29.7031L77.0703 29.7266ZM76.6484 29.6562L76.5547 29.7969V29.7734L76.6016 29.6562H76.6484ZM75.9922 29.5391L76.0156 29.6562L76.0859 29.5625L75.9922 29.5391ZM76.0859 29.5625L76.0156 29.6562L75.9922 29.5391L76.0859 29.5625ZM77.1875 29.5391H77.3047L77.3984 29.2344L77.1875 29.5391ZM77.3984 29.2344L77.3047 29.5391H77.1875L77.3984 29.2344ZM77.2578 28.0391H77.2812V27.9922L77.2578 28.0156V28.0391ZM77.2812 28.0391H77.2578V28.0156L77.2812 27.9922V28.0391ZM5.28125 27.6641L5.35156 27.8516L5.42188 27.5938L5.28125 27.6641ZM5.35156 27.8516L5.28125 27.6641L5.42188 27.5938L5.35156 27.8516ZM77.8438 27.8281L77.8906 27.7812H77.8203L77.8438 27.8281ZM77.8438 27.8281L77.8203 27.7812H77.8906L77.8438 27.8281ZM78.1719 27.6875L78.1016 27.8047L78.3828 27.7344L78.4531 27.6172L78.1719 27.6875ZM78.3828 27.7344L78.1016 27.8047L78.1719 27.6875L78.4531 27.6172L78.3828 27.7344ZM5.39844 26.8672V26.9141L5.42188 26.9609V26.9375L5.39844 26.8672ZM5.42188 26.9375V26.9609L5.39844 26.9141V26.8672L5.42188 26.9375ZM76.7188 25.9531L76.5547 26.0469L76.5781 26.1875L76.6719 26.1406V26.1172L76.7188 25.9531ZM76.6719 26.1406L76.5781 26.1875L76.5547 26.0469L76.6016 26.0234L76.6719 26.1406ZM76.6719 26.1172V26.1406L76.6016 26.0234L76.7188 25.9531L76.6719 26.1172ZM76.1328 23.7266H76.1797L76.2266 23.6094H76.1562L76.1328 23.7266ZM76.1797 23.7266H76.1328L76.1562 23.6094H76.2266L76.1797 23.7266ZM77.375 23.5156H77.3047L77.2578 23.6094L77.375 23.5156H77.4922L77.4688 23.4219L77.375 23.5156ZM77.3047 23.5625L77.2578 23.6094L77.3047 23.5156V23.5625ZM77.3047 23.5625V23.5156H77.375L77.3047 23.5625ZM77.4922 23.5156H77.3984L77.4219 23.4688L77.4688 23.4219L77.4922 23.5156ZM77.3984 23.0938V23.1641L77.4688 23.0469L77.3984 23.0938ZM77.3984 23.1641V23.0938L77.4688 23.0469L77.3984 23.1641ZM45.4297 20.7969L45.6875 20.8203L45.8281 20.6797H46.6016L46.2734 21.1484H46.4609L46.6016 20.9141H46.4375L46.6016 20.6797H45.5469L45.4297 20.7969ZM40.8594 22.3203V22.2734L40.8125 22.3203H40.8594ZM40.8594 22.3203H40.8125L40.8594 22.2734V22.3203ZM77.3047 21.1953H77.2812L77.2344 21.3828L77.3281 21.5938L77.3516 21.5234L77.3047 21.1953ZM77.3047 21.1953L77.3516 21.5234L77.3281 21.5938L77.2344 21.3828L77.2812 21.1953H77.3047ZM44.9844 21.1484H45.0547L45.1953 21.0312H45.125L44.9844 21.1484ZM45.0547 21.1484H44.9844L45.125 21.0312H45.1953L45.0547 21.1484ZM46.6016 20.9141L46.4609 21.1484H46.2734L46.4375 20.9141H46.6016ZM45.6875 20.8203L45.4297 20.7969L45.5469 20.6797H45.8281L45.6875 20.8203ZM48.5 20.1172L48.2422 20.4688L48.7344 20.4922L48.7578 20.4688L48.4297 20.4453L48.8047 20.1406L48.5 20.1172ZM46.1328 20.1875H45.8984L46.1094 20.2109L46.1328 20.1875H46.3438L46.2969 20.2344L46.8594 20.2812L46.9297 20.1875H47.1172V20.1641L47.2344 20.0234H47.0469L46.9297 20.1875H46.5078L46.7188 20H46.8594L47.0469 19.7422L46.5078 20.1875H46.3438L46.5547 19.9766H46.3906L46.1328 20.1875ZM48.7578 20.4688L48.7344 20.4922L48.4062 20.4688L48.4297 20.4453L48.7578 20.4688ZM44.9844 20.1875L44.9375 20.2578L45.0078 20.1875H45.2422C45.2372 20.2218 45.2432 20.2466 45.2422 20.2578L45.6406 20.2812L45.7578 20.1875H45.2422V20.1172H45.125L45.0078 20.1875H44.9844ZM48.8047 20.1406L48.4062 20.4688H48.2422L48.5 20.1172L48.8047 20.1406ZM32.8906 20.2578L32.6797 20.3047H32.8906V20.2578ZM5.32812 20.3984L5.51562 20.2578L5.49219 20.1172L5.39844 20.1875L5.32812 20.3984ZM5.51562 20.2578L5.32812 20.3984L5.39844 20.1875L5.49219 20.1172L5.51562 20.2578ZM76.4141 20.2344L76.4844 20.0703L76.3672 20.1172L76.4141 20.2344ZM32.8906 20.3047H32.6797L32.7734 20.2812L32.8906 20.2578V20.3047ZM45.6406 20.2812L45.2422 20.2578V20.2109L45.2891 20.1875H45.7578L45.6406 20.2812ZM46.8594 20.2812L46.6719 20.2578L46.7422 20.1875H46.9297L46.8594 20.2812ZM46.6719 20.2578L46.4375 20.2344L46.5078 20.1875H46.7422L46.6719 20.2578ZM46.4375 20.2344H46.2969L46.3438 20.1875H46.5078L46.4375 20.2344ZM76.4141 20.2344L76.3672 20.1172L76.4844 20.0703L76.4141 20.2344ZM46.1094 20.2109H46.0391L46.0625 20.1875H46.1328L46.1094 20.2109ZM45.1953 20.1172L45.1484 20.1875H45.0078L45.125 20.1172H45.1953ZM45.2422 20.1172V20.1875H45.1484L45.1953 20.1172H45.2422ZM46.5547 19.9766L46.3438 20.1875H46.1328L46.3906 19.9766H46.5547ZM47.1641 20.0234L47.1172 20.1641V20.1875H46.9297L47.0469 20.0234H47.1641ZM47.2344 20.0234L47.1172 20.1641L47.1641 20.0234H47.2344ZM46.8594 20H46.7188L47.0469 19.7422L46.8594 20ZM77.1406 19.5547L76.9766 19.625V19.6016L76.9531 19.6484L76.8359 19.7188L76.8828 19.8359L77.0703 19.7422V19.7656L77.0938 19.7188L77.1406 19.5547ZM77.4922 19.4844L77.5156 19.625L77.5859 19.4375L77.4922 19.4844ZM77 19.7656L76.8828 19.8359L76.9531 19.6484L76.9766 19.625L77 19.7656ZM76.8828 19.8359L76.8359 19.7188L76.9531 19.6484L76.8828 19.8359ZM77.1406 19.5547L77.0703 19.7656V19.7422L77 19.7656L76.9766 19.625L77.1406 19.5547ZM47.2344 19.0391L47.3516 18.9453L47.3047 19.1797V19.2031L47.2812 19.2734L47.4219 19.1562L47.3984 19.2031L47.2812 19.3906V19.3672L47.2578 19.4141L47.2109 19.4844L47.2344 19.5312L47.2578 19.4141L47.2812 19.3906L47.3281 19.4844H47.3516L47.4219 19.1562L47.2812 19.2734L47.3047 19.1797L47.3516 18.9453L47.375 18.875L47.2109 18.9922L47.2344 19.0391ZM77.5156 19.625L77.4922 19.4844L77.5859 19.4375L77.5156 19.625ZM47.2344 19.5312L47.2109 19.4844L47.2578 19.4141L47.2344 19.5312ZM30.6875 19.2969H30.5938V19.4141L30.7109 19.3906V19.2969L30.5938 19.25L30.6875 19.2969ZM47.3984 19.2031L47.3516 19.4844H47.3281L47.2812 19.3906L47.3984 19.2031ZM30.7109 19.2969V19.3906L30.5938 19.4141V19.2969H30.7109ZM52.1562 18.875L52.0625 19.25L52.2031 19.1797L52.2266 19.1094L52.2734 18.875H52.1562ZM52.2734 18.875L52.2031 19.1797L52.0625 19.25L52.1562 18.875H52.2734ZM55.4844 18.5469L55.3672 18.6641L55.4141 18.6172L55.7891 18.6406L55.0859 18.9922H55.0625L55.0391 19.0156H55.3438L55.5078 18.8984L55.3672 18.8516L55.7891 18.6406H55.8359L55.8828 18.6172H55.8359L55.7891 18.6406L55.4141 18.6172L55.5078 18.5469H55.4844ZM30.8047 18.9688V19.0859L31.0156 19.0625L30.8047 18.9688ZM31.0156 19.0625L30.8047 19.0859V18.9688L31.0156 19.0625ZM47.3516 18.9453L47.2344 19.0391L47.2109 18.9922L47.375 18.875L47.3516 18.9453ZM28.5078 18.9922L28.625 18.9688L28.6484 18.8281L28.5312 18.7812L28.5078 18.9922ZM55.5078 18.8984L55.3438 19.0156H55.0391L55.0625 18.9922H55.0859L55.3672 18.8516L55.5078 18.8984ZM28.6484 18.8281L28.625 18.9688L28.5078 18.9922L28.5312 18.7812L28.6484 18.8281ZM52.3672 18.5L52.3438 18.5938L52.4609 18.5469L53.0938 18.6641L52.9297 18.8047L52.7656 18.8984H52.9766L52.8594 18.875L52.9297 18.8047L53.1875 18.6875L53.3516 18.7109L53.5156 18.5469H53.2344L53.0938 18.6641L52.4609 18.5469L52.5078 18.5234L52.5312 18.5H52.3672ZM52.8594 18.875L52.8359 18.8984H52.7656L52.8125 18.875H52.8594ZM52.8594 18.875H52.8125L52.9297 18.8047L52.8594 18.875ZM53.5156 18.5469L53.3516 18.7109L53.1875 18.6875L52.9297 18.8047L53.2344 18.5469H53.5156ZM48.1953 18.6172L48.3125 18.4297L48.2422 18.4062L48.1953 18.6172ZM77.2578 18.3125L77.1641 18.4062L77.2812 18.6641L77.3047 18.5938L77.2578 18.3125ZM77.3047 18.5938L77.2812 18.6641L77.1641 18.4062L77.2578 18.3125L77.3047 18.5938ZM55.8828 18.6172L55.8359 18.6406H55.7891L55.8359 18.6172H55.8828ZM55.5078 18.5469L55.4141 18.6172H55.3906L55.4844 18.5469H55.5078ZM48.3125 18.4297L48.1953 18.6172L48.2422 18.4062L48.3125 18.4297ZM52.4609 18.5469L52.3438 18.5938L52.3672 18.5234L52.4609 18.5469ZM52.5312 18.5L52.4609 18.5469L52.3672 18.5234V18.5H52.5312ZM53.6328 18.4531L54.0078 18.2656L53.8438 18.2422L53.6328 18.4531ZM54.0078 18.2656L53.6328 18.4531L53.8438 18.2422L54.0078 18.2656ZM25.0156 17.9609L24.9219 18.0312H24.875L24.8281 18.0078L24.7578 17.9844L24.7109 18.0078H24.7812L24.875 18.0312H25.0859L25.0625 17.9609H25.0156ZM25.0859 18.0312H24.9219L25.0156 17.9609H25.0625L25.0859 18.0312ZM24.8281 18.0078H24.7109L24.7578 17.9844L24.8281 18.0078ZM28.5781 17.8906L28.4375 17.9141L28.4844 17.9844L28.5781 17.8906ZM28.4844 17.9844L28.4375 17.9141L28.5781 17.8906L28.4844 17.9844ZM24.1953 17.6562L24.1484 17.7031L24.3359 17.7734L24.5234 17.6562H24.1953ZM60.4531 17.5391L60.3594 17.5156V17.375H60.2422V17.6562L60.3594 17.6094V17.5156L60.4531 17.5391L60.6875 17.4219L60.4531 17.3984V17.5391ZM28.3203 17.8203L28.25 17.8906H28.4141L28.3203 17.8203ZM28.4141 17.8906H28.25L28.3203 17.8203L28.4141 17.8906ZM76.9062 17.7969H76.9531L77 17.7031H76.9531L76.9062 17.7969ZM77 17.7031L76.9531 17.7969H76.9062L76.9531 17.7031H77ZM24.3828 17.75L24.3359 17.7734L24.1484 17.7031L24.1953 17.6562H24.5234L24.3828 17.75ZM76.7188 17.5391L76.7422 17.5859L76.7656 17.5391H76.7188ZM60.3594 17.375V17.6094L60.2422 17.6562V17.375H60.3594ZM56.375 17.6094L56.3516 17.5625C56.3428 17.5471 56.3226 17.5207 56.3047 17.4922L56.375 17.6094ZM76.7656 17.5391L76.7422 17.5859L76.7188 17.5391H76.7656ZM60.6875 17.4219L60.4531 17.5391V17.3984L60.6875 17.4219ZM43.1328 8.5625L42.0547 8.79688H41.8438C41.6346 8.80733 41.443 8.75197 41.2578 8.72656L40.2969 8.89062H40.0859C39.5601 8.88671 39.1317 8.73908 38.7969 8.58594C38.7332 8.63247 38.7035 8.72985 38.6328 8.77344C38.0459 9.13449 37.4617 9.19237 36.9453 9.17188C36.403 9.39345 35.8424 9.53192 35.2812 9.42969C35.1796 9.41089 35.0933 9.31604 35 9.28906C34.8865 9.29229 34.7789 9.29807 34.6719 9.28906C34.297 9.55759 33.8464 9.80745 33.2891 9.875C32.8956 9.92257 32.5396 9.87569 32.2344 9.80469C31.9196 9.87903 31.6251 9.9163 31.3438 9.89844C31.1653 10.031 30.9762 10.1947 30.7344 10.2969H30.6641C30.5712 10.4021 30.5052 10.5438 30.3828 10.6484L29.0703 11.3281L28.9766 11.3516L28.8594 11.375C28.6483 11.4229 28.4426 11.3705 28.25 11.375C27.6127 11.6847 27.0141 11.7374 26.4922 11.6562C26.205 11.8654 25.8748 12.0884 25.4375 12.1953C24.8388 12.4957 24.1882 12.6208 23.5156 12.5C23.4197 12.54 23.3405 12.6319 23.2344 12.6641C22.6833 12.8301 22.1826 12.7708 21.7578 12.6875C21.6542 12.8056 21.5212 12.9026 21.3828 13.0156C21.7103 12.9953 22.0405 13.0553 22.3906 13.1562C22.5693 13.1582 22.7564 13.1169 22.9531 13.1562C23.081 13.182 23.1897 13.2587 23.3047 13.2969C24.2751 13.3049 24.9245 13.7665 25.3672 14.2109C25.7989 14.0389 26.3978 13.9021 27.1016 14.0469C27.7381 14.1791 28.1968 14.5095 28.5312 14.8203H29.0469L29.1406 14.8438L29.9609 15.0547C30.2464 15.1733 30.4814 15.3357 30.6875 15.5C31.0736 15.33 31.5834 15.1401 32.1875 15.1953L33.1016 15.4297L33.1953 15.4766L33.3125 15.5234L34.0156 15.9453C34.2412 16.1245 34.4144 16.3234 34.5547 16.5078C34.9388 16.3365 35.4936 16.2052 36.1484 16.2734C36.6804 16.3294 37.1328 16.5198 37.5078 16.7656C37.9029 16.8778 38.2204 17.076 38.4922 17.2812C38.9209 17.2591 39.3619 17.2547 39.7812 17.4219C40.159 17.358 40.5914 17.3314 41.0469 17.4453C41.1461 17.3893 41.2383 17.3055 41.3516 17.2578L41.4453 17.2344L41.5391 17.1875L42.4297 16.9531C42.8536 16.905 43.2362 16.9819 43.5781 17.0703C44.0302 16.9108 44.517 16.837 45.0078 16.9062C45.1617 16.9284 45.2969 16.9841 45.4297 17.0234C45.7607 16.9725 46.1066 16.9553 46.4609 17.0234L46.5078 17L46.6016 16.9297L46.7656 16.8125C47.0433 16.3719 47.5352 15.7888 48.4062 15.5C49.3694 15.1811 50.1643 15.4286 50.7031 15.6875C50.9003 15.6641 51.0881 15.6523 51.2656 15.6641C51.7538 15.2711 52.405 14.934 53.2344 14.9609C53.6811 14.9766 54.0622 15.0874 54.3594 15.2188C54.4804 15.1586 54.6184 15.1244 54.7578 15.0781C54.8959 14.9747 55.0538 14.8832 55.2266 14.7969C55.5552 14.5175 55.9381 14.2416 56.4219 14.1172C56.9048 13.6999 57.5978 13.3099 58.5547 13.3672C58.7357 13.3785 58.9122 13.4238 59.0703 13.4609H59.0938C59.35 13.2839 59.6219 13.1498 59.8906 13.0625C60.0953 12.9055 60.3377 12.7944 60.6172 12.6875C60.4288 12.6158 60.2517 12.5392 60.0781 12.4297C59.6288 12.5667 59.0611 12.6498 58.4141 12.4766C57.9307 12.3463 57.5808 12.0874 57.2891 11.8438C56.8714 11.9146 56.3879 11.9456 55.8594 11.7734C55.6562 11.7071 55.5077 11.5612 55.3438 11.4688C54.9088 11.6485 54.3351 11.8358 53.6797 11.7266L52.8594 11.4688L52.6719 11.375C52.6305 11.3553 52.5941 11.3256 52.5547 11.3047C52.4124 11.3187 52.2668 11.3826 52.1094 11.375C51.2772 11.3337 50.5974 10.9631 50.1406 10.5312C50.0415 10.437 49.9858 10.3008 49.9062 10.2031C49.7934 10.1545 49.6679 10.1284 49.5547 10.0625C49.4823 10.0202 49.4324 9.94381 49.3672 9.89844C49.2357 9.93275 49.1168 10.0453 48.9688 10.0625C48.4057 10.1274 47.9282 9.99384 47.5156 9.82812C47.4757 9.83564 47.4399 9.86892 47.3984 9.875C46.5925 9.99187 45.7812 9.78104 45.1484 9.3125C45.0905 9.26954 45.0597 9.19281 45.0078 9.14844C44.544 9.15659 44.0309 9.10254 43.4844 8.79688C43.3562 8.72504 43.2626 8.61941 43.1562 8.53906L43.1328 8.5625ZM77.5156 16.5547L77.4922 16.6016L77.5625 16.8359L77.5859 16.7656L77.5156 16.5547ZM65.4922 16.1094L64.9766 16.4375H64.6719V16.6484L64.9766 16.4375L65.3047 16.4609L65.6328 16.1094H65.4922ZM20.6562 16.8359L20.6328 16.8828H20.7266L20.75 16.8359H20.6562ZM20.7266 16.8828H20.6328L20.6562 16.8359H20.75L20.7266 16.8828ZM62.9844 15.9453L62.6094 16.2969H62.6562L63.2656 15.9688L62.9844 15.9453ZM77.5859 16.7656L77.5625 16.8359L77.4922 16.6016L77.5156 16.5547L77.5859 16.7656ZM26.0703 16.7656L26.1641 16.8125L26.3281 16.7188L26.0703 16.7656ZM26.1641 16.8125L26.0703 16.7656L26.3281 16.7188L26.1641 16.8125ZM20.7969 16.3672L19.9062 16.3438L19.9766 16.3672L19.9062 16.3906L19.9297 16.6016L19.8359 16.625H19.9297L19.9062 16.3906L19.9766 16.3672L19.9062 16.3438L20.7969 16.3672L20.7734 16.4844V16.5312L20.9141 16.4844L20.7734 16.5078L20.7969 16.3672ZM61.9297 16.625H61.9062V16.7188L62.0234 16.6719V16.5547L61.9297 16.625ZM62.0234 16.6719L61.9062 16.7188V16.625H61.9297L62.0234 16.5547V16.6719ZM64.9766 16.4375L64.6719 16.6484V16.4375H64.9766ZM60.4297 16.1562V16.1328L60.5469 16.0625H60.3359V16.1562H60.4297ZM65.6328 16.1094L65.3047 16.4609L64.9766 16.4375L65.4922 16.1094H65.6328ZM65.0234 16.0625L64.6484 16.0391V16.3203L65.0234 16.0625ZM65.0234 16.0625L64.6484 16.3203V16.2734L64.9531 16.0625H65.0234ZM62.7969 16.2266L62.6562 16.2969H62.6094L62.6797 16.2266H62.7969ZM64.9531 16.0625L64.6484 16.2734V16.0391L64.9531 16.0625ZM63.2656 15.9688L62.7969 16.2266H62.6797L62.9844 15.9453L63.2656 15.9688ZM61.9766 16.1797L62.3984 15.8984L61.9531 15.875L61.9766 16.1797ZM62.3984 15.8984L61.9766 16.1797L61.9531 15.875L62.3984 15.8984ZM60.4297 16.0625V16.1328L60.4062 16.1562H60.3359V16.0625H60.4297ZM66.6641 15.9922L66.8984 16.0391L66.9219 16.0156L66.6875 15.9688L66.6641 15.9922ZM60.5469 16.0625L60.4297 16.1328V16.0625H60.5469ZM66.9219 16.0156L66.8984 16.0391L66.6641 15.9922L66.6875 15.9688L66.9219 16.0156ZM18.3359 15.4297L18.2891 15.4531H17.9609L17.9375 15.5H18.0078L17.9844 15.4766V15.4531H18.3359V15.4297ZM66.7578 14.8906L66.6875 14.9375H66.7109L66.7578 14.8906ZM64.3672 15.2891L64.3203 15.3359L64.0859 15.4766H64.0625L64.0156 15.5234L64.3672 15.3125V15.2891L64.3906 15.2656H64.3672V15.2891ZM18.0078 15.5H17.9375L17.9844 15.4531L18.0078 15.5ZM63.8047 15.4297L63.8281 15.5L63.875 15.4297H63.8047ZM63.875 15.4297L63.8281 15.5L63.8047 15.4297H63.875ZM67.8594 15.1953L67.8125 15.2188L67.9297 15.4297H68L68.3047 15.2188L68.1172 15.1953H67.8594ZM68.3047 15.2188L68 15.4297H67.9297L67.8125 15.2188L67.8594 15.1953H68.1172L68.3047 15.2188ZM64.5547 14.7969L64.4375 14.7734V14.6562L64.1797 15.0078L64.4375 14.8672V14.7734L64.6953 14.8203L64.8359 14.6328L64.5547 14.7969ZM64.3438 14.9141L64.1797 15.0078L64.3438 14.7734V14.9141ZM16.0625 14.9375L16.1094 14.9609L16.1562 14.9375H16.0625ZM16.1562 14.9375L16.1094 14.9609L16.0625 14.9375H16.1562ZM66.7109 14.9375H66.6875L66.7578 14.8906L66.7109 14.9375ZM64.4375 14.7734V14.8672L64.3438 14.9141V14.7734H64.4375ZM67.1562 14.4453L66.9688 14.6562H67.0859L67.0156 14.7031H67.4141L67.5547 14.5625L67.3438 14.5156V14.4922L67.1562 14.4453ZM64.6953 14.8203L64.5547 14.7969L64.8359 14.6328L64.6953 14.8203ZM64.4375 14.7734H64.3438L64.4375 14.6562V14.7734ZM67.1562 14.4453L67.5547 14.5625L67.4141 14.7031H67.0156L67.0859 14.6562H66.9688L67.1562 14.4453ZM67.3906 11.1406L67.3672 11.3281H67.4844L67.5078 11.1875L67.3906 11.1406ZM14.7031 10.7422L14.75 10.7656L14.6328 10.8594L14.4453 10.9766H14.5156L14.7734 10.7422H14.7031ZM67.5078 11.1875L67.4844 11.2812L67.3672 11.3281L67.3906 11.1406L67.5078 11.1875ZM67.4844 11.3281H67.3672L67.4844 11.2812V11.3281ZM16.4609 11.0469L16.3906 11.1406V11.0469H16.4609ZM16.3906 11.0469H16.2734L16.3203 10.9766L16.3906 10.9297V11.0469ZM16.2734 11.0469H16.2031L16.3203 10.9766L16.2734 11.0469ZM14.6328 10.8594L14.5156 10.9766H14.4453L14.6328 10.8594ZM16.3906 10.9297L16.3203 10.9766L16.3906 10.8828V10.9297ZM16.5078 10.8594L16.3906 10.9297V10.8828L16.5312 10.7188L16.5078 10.8594ZM17.5156 10.6953L17.4688 10.7656L17.3984 10.7891L17.2812 10.7656L17.3516 10.6953H17.5156ZM17.3516 10.6953L17.2812 10.7656L16.8125 10.6719L17.3516 10.6953ZM17.5859 10.6953L17.4688 10.7656L17.5156 10.6953H17.5859ZM16.4141 10.3438L16.4375 10.3203L16.5312 10.3438V10.25L16.4375 10.3203H16.4141V10.3438ZM17.6562 10.6953H17.5859L17.7031 10.625L17.6562 10.6953ZM16.5781 10.6484L16.5547 10.6719H16.4141L16.4609 10.6484H16.5781ZM16.625 10.6484V10.6719H16.5547L16.5781 10.6484H16.625ZM16.8594 10.6719L17.3984 10.7891L17.5859 10.6953H17.6562L17.7031 10.625L17.5859 10.6953L16.8125 10.6719H16.8594L16.8828 10.6484L16.625 10.6719V10.6484H16.4609L16.4141 10.6719H16.8828L16.625 10.8594L16.6016 11.0234V11.0469H16.3906V10.9297L16.5078 10.8594V10.9766L16.5781 10.9062L16.5078 10.9531L16.5312 10.7188L16.3203 10.9766L16.2031 11.0469H16.3906V11.1406L16.4609 11.0469H16.6016L16.625 10.8594L16.8594 10.6719ZM14.6328 10.5781H14.7266L14.6797 10.5547L14.6328 10.5781ZM14.7266 10.5781H14.6328L14.6797 10.5547L14.7266 10.5781ZM66.4531 10.3203L66.3594 10.5547L66.4766 10.5312L66.5469 10.3672L66.6172 10.25L66.4766 10.2734L66.4531 10.3203ZM66.5469 10.3672L66.4766 10.5312L66.3594 10.5547L66.4531 10.3203L66.4766 10.2734L66.6172 10.25L66.5469 10.3672ZM61.2734 10.2031L61.1797 10.3203L61.2031 10.4844L61.2969 10.3672L61.2734 10.2031ZM61.2969 10.3672L61.2031 10.4844L61.1797 10.3203L61.2734 10.2031L61.2969 10.3672ZM16.5312 10.3438L16.4375 10.3203L16.5312 10.25V10.3438ZM67.2969 10.0859V10.1797L66.6406 10.1562L66.6641 10.1328L66.4297 10.1562L67.5312 10.1797V10.0391L67.2969 10.0859ZM17.8672 10.1094L17.6094 10.25L17.7031 10.0859H17.8906L17.8672 10.1094ZM67.5312 10.0859V10.1797H67.4141V10.0859H67.5312ZM67.4141 10.1797H67.2969V10.0859H67.4141V10.1797ZM17.7031 10.0859H17.6328L17.75 9.99219L17.7031 10.0859ZM67.5547 10.0859H67.4141V10.0625L67.5312 10.0391L67.5547 10.0859ZM19.9766 10.0859L20.0234 9.99219H20.0703L19.9766 10.0859ZM19.3672 9.71094L19.4609 9.66406L19.625 9.47656L19.3672 9.71094ZM19.9297 9.89844L19.8828 9.99219L19.8125 10.0156L19.9297 9.89844ZM17.6328 10.0859H17.7031L17.6094 10.25L17.9141 10.0859L18.1016 9.96875L18.9922 9.47656L18.4062 9.5L18.5234 9.42969C18.516 9.41993 18.4959 9.40632 18.4766 9.38281L18.4062 9.5L18.1016 9.73438L17.6328 10.0859ZM19.9297 9.89844L19.8125 10.0156L20.0234 9.99219L19.9766 10.0859L20.1406 9.92188L20.0234 9.96875L20.0703 9.89844L20.1641 9.61719L20.3281 9.45312H20.0938L20.0703 9.5L20.1641 9.45312H20.2344L20.0703 9.89844L20.0234 9.96875L19.9766 9.99219H19.8828L19.9297 9.89844ZM20.0703 9.99219H19.9766L20.0234 9.96875L20.1406 9.92188L20.0703 9.99219ZM17.9141 10.0859L17.8672 10.1094L17.8906 10.0859H17.7031L17.75 9.99219L18.4062 9.5L18.9922 9.47656L18.2891 9.89844L17.9141 10.0859ZM19.4609 9.66406L19.3672 9.71094L19.625 9.47656L19.4609 9.66406ZM64.0625 9.40625L63.8984 9.61719H64.0391L64.1562 9.45312L64.0625 9.40625ZM17.3516 9.64062L17.4453 9.52344H17.4922L17.3516 9.64062ZM64.1562 9.45312L64.0391 9.61719H63.8984L64.0625 9.40625L64.1562 9.45312ZM20.1641 9.61719L20.2344 9.45312H20.3281L20.1641 9.61719ZM17.4453 9.52344L17.3516 9.64062L17.4922 9.52344H17.4453ZM20.0703 9.5L20.0938 9.45312H20.1641L20.0703 9.5ZM26.0469 9.14844L26.4219 8.9375L25.8359 8.84375L25.4375 9.05469L26.0469 9.14844ZM64.25 9.33594L64.3906 9.3125L64.4375 9.28906H64.2734L64.25 9.33594ZM18.4766 9.42969V9.38281L18.5234 9.42969L18.4062 9.5L18.4766 9.42969ZM12.5938 9.38281L12.5469 9.42969L12.8281 9.47656L12.7344 9.42969L12.7109 9.45312L12.5938 9.42969V9.38281ZM20.2344 9.125L20.1172 9.38281L20.3516 9.14844L20.2344 9.125ZM20.3516 9.14844L20.1172 9.38281L20.2344 9.125L20.3516 9.14844ZM59.9141 9.14844H59.9844L60.0312 9.10156L59.9141 9.14844ZM64.3906 9.3125L64.25 9.33594L64.2734 9.28906H64.4375L64.3906 9.3125ZM59.3516 9.21875L59.4453 9.19531H59.3047L59.3516 9.21875ZM59.3516 9.21875L59.3047 9.19531H59.4453L59.3516 9.21875ZM26.4219 8.9375L26.0469 9.14844L25.4375 9.05469L25.8359 8.84375L26.4219 8.9375ZM59.9844 9.14844H59.9141L60.0312 9.10156L59.9844 9.14844ZM54.2422 8.53906L54.1484 8.70312L54.1016 8.72656H54.0312L54.0078 8.75L54.1016 8.72656L54.1484 8.70312L54.3828 8.63281L54.2422 8.53906ZM57.6875 8.39844L57.6406 8.42188L57.7812 8.46875L57.8047 8.44531L57.6875 8.39844ZM24.6172 8.63281L24.5 8.79688L24.7578 8.65625L24.6172 8.63281ZM24.5703 8.75L24.5 8.79688L24.5703 8.70312V8.75ZM60.2891 8.72656L60.3359 8.75H60.3594L60.3359 8.65625L60.2891 8.72656ZM24.7578 8.65625L24.5703 8.75V8.70312L24.6172 8.63281L24.7578 8.65625ZM60.3594 8.75H60.3359L60.2891 8.72656L60.3359 8.65625L60.3594 8.75ZM54.3828 8.63281L54.1484 8.70312L54.2422 8.53906L54.3828 8.63281ZM25.1562 8.44531H25.2266L25.8125 8.16406L25.6484 8.11719L25.1562 8.44531ZM59 8.21094H59.1172L59.1641 8.11719L59 8.21094ZM57.8047 8.44531L57.7812 8.46875L57.6406 8.42188L57.6875 8.39844L57.8047 8.44531ZM25.8125 8.16406L25.2266 8.44531H25.1562L25.6484 8.11719L25.8125 8.16406ZM23.6797 7.57812L23.4219 7.71875L23.5859 7.74219L23.3047 8.14062H23.2109L23.2578 8.21094L23.5859 7.74219L23.4219 7.71875L23.7266 7.55469H23.7031L23.6797 7.57812ZM59.375 8.1875L59.3281 8.16406L59.2812 8.1875H59.375ZM24.3125 7.71875H24.2891L24.1484 7.78906H23.9609L23.9141 7.90625L24.3125 7.71875L24.2891 7.67188L24.2656 7.64844L24.3125 7.71875ZM59.1172 8.21094H59L59.1641 8.11719L59.1172 8.21094ZM23.3047 8.14062L23.2578 8.21094L23.2109 8.14062H23.3047ZM59.375 8.1875H59.2812L59.3281 8.16406L59.375 8.1875ZM54.5938 7.76562L54.5703 7.83594L55.1562 7.78906L55.0391 7.74219L54.875 7.8125L54.5703 7.83594L54.5938 7.76562L54.8516 7.64844L54.6875 7.57812L54.5938 7.76562ZM24.125 7.78906L23.9141 7.90625L23.9609 7.78906H24.125ZM35.0234 7.15625L34.7891 7.32031L35.1406 7.41406L35.3516 7.25L35.0234 7.15625ZM55.1562 7.78906L54.875 7.8125L55.0391 7.74219L55.1562 7.78906ZM54.8516 7.64844L54.5938 7.76562L54.6641 7.625L54.7578 7.60156L54.8516 7.64844ZM51.7812 7.20312H51.6875L51.6172 7.17969L51.4062 7.25L51.6406 7.22656L51.6172 7.17969L51.6875 7.20312L51.8047 7.17969H51.7812V7.20312ZM54.7578 7.60156L54.6641 7.625L54.6875 7.57812L54.7578 7.60156ZM50.2812 7.4375L50.3281 7.46094L50.5156 7.41406L50.2812 7.4375ZM29.5859 7.22656L29.6328 7.15625L29.4922 7.22656H29.5859ZM50.3281 7.46094L50.2812 7.4375L50.5156 7.41406L50.3281 7.46094ZM35.3516 7.25L35.1406 7.41406L34.7891 7.32031L35.0234 7.15625L35.3516 7.25ZM51.6406 7.22656L51.4062 7.25L51.6172 7.17969L51.6406 7.22656ZM29.5859 7.22656H29.4922L29.6328 7.15625L29.5859 7.22656ZM29.7266 6.94531L29.8203 6.875H29.75L29.7266 6.94531ZM29.8203 6.875L29.7266 6.94531L29.75 6.875H29.8203ZM34.4141 6.5L34.7188 6.33594L35.2109 6.52344L35.375 6.42969L34.7891 6.3125L34.7188 6.33594L34.6484 6.3125L34.4141 6.5ZM47.7031 6.80469H47.7266L47.6562 6.75781H47.6328L47.7031 6.80469ZM47.7266 6.80469H47.7031L47.6328 6.75781H47.6562L47.7266 6.80469ZM35.375 6.42969L35.2109 6.52344L34.7188 6.33594L34.7891 6.3125L35.375 6.42969ZM34.7188 6.33594L34.4141 6.5L34.6484 6.3125L34.7188 6.33594ZM36.0547 6.33594L36.125 6.35938L36.1484 6.33594L36.0547 6.3125V6.33594ZM36.1484 6.33594L36.125 6.35938L36.0547 6.33594V6.3125L36.1484 6.33594ZM46.3672 6.33594L46.7656 6.26562H46.25L46.3672 6.33594ZM46.3672 6.33594L46.25 6.26562H46.7656L46.3672 6.33594ZM31.4375 5.91406L31.5547 5.9375L31.625 5.77344L31.4375 5.91406ZM31.5547 5.9375L31.4375 5.91406L31.625 5.77344L31.5547 5.9375ZM34.0859 5.89062H34.1094L34.2969 5.79688H34.2266L34.0859 5.89062ZM34.2969 5.79688L34.1094 5.89062H34.0859L34.2266 5.79688H34.2969ZM41.6797 5.75H41.7734V5.44531H41.6797V5.75ZM41.7734 5.44531V5.75H41.6797V5.44531H41.7734ZM37.5781 5.23438H37.625L37.7422 5.14062L37.5781 5.23438ZM37.625 5.23438H37.5781L37.7422 5.14062L37.625 5.23438ZM38.3047 4.85938L38.0938 4.95312L38.0469 4.97656H38.0234L38 5L38.3047 4.85938C38.3021 4.85467 38.2754 4.84203 38.2578 4.8125H38.2812L38.3047 4.85938ZM36.3359 4.32031L36.3828 4.39062C36.3705 4.37223 36.3562 4.3479 36.3359 4.32031ZM40.3203 4.08594L40.6719 4.10938L40.3438 3.80469L40.3203 4.08594ZM40.6719 4.10938L40.3203 4.08594L40.3438 3.80469L40.6719 4.10938ZM6.42969 51.1719L6.28906 51.1953L6.3125 51.2422V51.1953L6.52344 51.1719L6.54688 51.1484L6.52344 51.0547L6.42969 51.0078V51.1719ZM4.74219 45.1484L4.76562 45.1953L4.50781 45.125L4.74219 45.1484ZM25.0391 16.9766H24.7578L24.8281 17.0703L25.0391 16.9766ZM24.7578 16.9766H25.0391L24.8281 17.0703L24.7578 16.9766Z" fill="#FF7878"/>
</svg>
