<svg width="81" height="47" viewBox="0 0 81 47" fill="none" xmlns="http://www.w3.org/2000/svg">
<path d="M40.9297 0.890625C41.0862 0.874292 41.2464 0.809772 41.4219 0.820312C42.2635 0.873633 42.8755 1.28777 43.2969 1.6875C43.3458 1.70336 43.4112 1.69224 43.4609 1.71094C43.5412 1.74128 43.5984 1.81669 43.6719 1.85156C43.9862 1.69531 44.3973 1.57091 44.8906 1.54688C45.6177 1.51297 46.2054 1.75854 46.6719 2.0625C46.8696 2.13159 47.0435 2.22164 47.2109 2.32031C47.6333 2.30818 48.026 2.34776 48.3828 2.48438C48.973 2.43215 49.6525 2.50425 50.3047 2.92969C50.462 3.03329 50.5349 3.21366 50.6562 3.32812C51.0432 3.39211 51.3889 3.50908 51.7109 3.70312C52.1933 3.53661 52.7811 3.44307 53.4688 3.63281C53.7037 3.62591 53.9521 3.57345 54.2188 3.63281C54.9022 3.78595 55.3617 4.16167 55.6953 4.5C56.3781 4.33173 57.2301 4.25919 58.0625 4.80469C58.09 4.8228 58.1065 4.85643 58.1328 4.875C59.2877 4.7706 60.2073 5.32013 60.7344 5.95312V5.97656C60.7956 6.0128 60.8657 6.03177 60.9219 6.07031C60.984 6.07454 61.0457 6.08537 61.1094 6.09375C61.317 6.06225 61.5272 6.08111 61.7422 6.09375C62.1844 5.90038 62.8005 5.71347 63.5469 5.85938C63.8367 5.91676 64.0949 6.00461 64.3203 6.11719C64.3866 6.11191 64.4618 6.09472 64.5312 6.09375C65.1669 6.08639 65.6679 6.296 66.0781 6.53906C66.3181 6.5934 66.5701 6.62958 66.8047 6.75C67.0075 6.85462 67.1691 7.0015 67.3203 7.125C67.5889 7.19394 67.8687 7.28416 68.1172 7.42969C68.3094 7.54328 68.4456 7.70067 68.5859 7.82812C68.7493 7.83277 68.9014 7.89308 69.0547 7.92188C69.4188 7.81827 69.851 7.75173 70.3438 7.82812C70.7241 7.88727 71.0525 8.00729 71.3281 8.15625C71.7917 7.97226 72.398 7.85396 73.1094 8.01562C73.7359 8.15933 74.184 8.46905 74.5156 8.78906C75.1696 8.64786 75.8727 8.6752 76.5312 8.97656C77.0194 9.07269 77.4867 9.23525 77.8672 9.53906C78.155 9.77008 78.2807 10.088 78.4297 10.3125L79.5312 10.5703L79.3203 12.2109C79.556 12.4869 79.8378 12.8444 79.9766 13.3359C80.0919 13.7511 80.0641 14.1346 80.0234 14.4844C80.1988 15.4855 79.8583 16.3455 79.4375 16.875L79.3672 16.8984C79.3757 16.9226 79.406 16.9439 79.4141 16.9688C79.4555 17.0969 79.4371 17.237 79.4609 17.3672L79.8359 18.4688V18.5625L79.8594 18.6797L79.8125 19.8516V19.9453L79.7891 20.0625C79.7841 20.0884 79.7477 20.1075 79.7422 20.1328C79.8224 20.3175 79.9076 20.5152 79.9531 20.7422C80.026 21.1065 80.0181 21.4438 79.9766 21.75C80.2672 22.7983 79.8961 23.6378 79.5078 24.2109C79.7878 24.5873 80.0776 25.1091 80.1172 25.8281C80.338 26.584 80.206 27.2375 79.9766 27.7969C80.1205 28.176 80.2269 28.615 80.1875 29.1094C80.1684 29.3437 80.0841 29.5452 80.0234 29.7422C80.0637 30.1772 80.0292 30.561 79.9062 30.9375C80.1097 31.6173 80.1107 32.3286 79.8359 32.9766C79.8246 33.003 79.7774 33.0213 79.7656 33.0469C79.7763 33.1104 79.8293 33.1683 79.8359 33.2344L79.7656 34.1953L79.7422 34.2891L79.7188 34.4062C79.5753 35.0719 79.225 35.5252 78.9453 35.8359C78.9268 35.9157 78.9493 36.0092 78.9219 36.0938C78.8267 36.3831 78.5286 37.1278 77.7266 37.6641C77.1661 38.0369 76.5799 38.1335 76.0625 38.1328C75.5836 38.4571 75.0147 38.7329 74.2812 38.6953C73.9878 38.812 73.6556 38.9154 73.2734 38.9297C73.0172 38.939 72.7861 38.8789 72.5703 38.8359C72.4757 38.8572 72.3845 38.8707 72.2891 38.8828C71.7831 39.3283 71.0858 39.7748 70.1094 39.7031C69.9934 39.6943 69.8874 39.6058 69.7812 39.5859C69.5501 39.6796 69.3434 39.7877 69.125 39.8203C68.983 39.8873 68.8466 39.9827 68.6797 40.0312C68.5709 40.0628 68.4557 40.0356 68.3516 40.0547C68.161 40.1754 67.9669 40.3221 67.7188 40.4062C66.6375 40.7719 65.7816 40.3996 65.2578 40.1016C65.0013 40.3319 64.6897 40.5406 64.2734 40.6875C64.0659 40.8847 63.8097 41.0942 63.4766 41.25C63.059 41.4448 62.6349 41.5028 62.2344 41.5078C61.8381 41.6329 61.4227 41.6968 60.9922 41.6484C60.8125 41.6282 60.6521 41.5749 60.5 41.5312C59.5637 41.6834 58.8628 41.3499 58.4375 41.0859C58.3027 41.1408 58.1646 41.1667 58.0156 41.2031L57.9219 41.25C57.8878 41.3276 57.8951 41.428 57.8516 41.5078C57.6761 41.8287 57.2463 42.4227 56.4453 42.7969C55.7419 43.1239 55.0649 43.0914 54.5 42.9609C54.3707 42.9868 54.2393 42.9993 54.1016 43.0078C54.0386 43.0305 53.9812 43.0822 53.9141 43.1016C53.5601 43.2031 53.2314 43.211 52.9297 43.1953C52.8789 43.2265 52.8434 43.2838 52.7891 43.3125L51.4531 43.6641H51.0312C50.8572 43.8208 50.6502 43.9777 50.3984 44.1094C50.0803 44.2754 49.7465 44.3895 49.4141 44.4375L48.4297 44.4141L48.3125 44.3906L48.2656 44.3672C48.1932 44.3889 48.1317 44.4674 48.0547 44.4844C47.5624 44.5919 47.1193 44.5446 46.7422 44.4609C46.5068 44.8037 46.119 45.2613 45.4766 45.5625C44.9836 45.7925 44.4899 45.8404 44.0234 45.8203C43.7547 46.0162 43.436 46.2033 43.0391 46.3125C42.4515 46.4733 41.9149 46.403 41.4688 46.2891C40.8315 46.3147 40.3129 46.1267 39.9453 45.9375C39.6538 45.9618 39.3281 46.0204 38.9844 45.9375C38.7972 45.8918 38.6502 45.7735 38.4922 45.7031C38.2381 45.7876 37.9396 45.8832 37.6016 45.8906C37.3388 45.8956 37.1083 45.781 36.875 45.7266C36.8348 45.7338 36.7994 45.7911 36.7578 45.7969C36.0053 45.9002 35.3664 45.662 34.8359 45.3516C34.7953 45.3484 34.7597 45.3095 34.7188 45.3047C34.3778 45.3539 33.9917 45.4085 33.5703 45.3047C32.7714 45.107 32.2609 44.6293 31.9531 44.25C31.7959 44.2538 31.6332 44.2975 31.4609 44.2734C31.0309 44.2122 30.6465 44.0816 30.3359 43.8984C30.0656 43.9038 29.8037 43.8122 29.5156 43.7344C29.0587 43.895 28.4928 44.0106 27.8281 43.8516C27.1065 43.6757 26.623 43.2684 26.3047 42.9141L26 43.0312L25.9062 43.0547L25.8594 43.0781L25.7422 43.1016C25.0026 43.3079 24.2194 43.2141 23.5391 42.8672C23.4781 42.8645 23.4146 42.8971 23.3516 42.8906C22.6632 42.8182 22.162 42.5227 21.7812 42.2109C21.5457 42.1572 21.328 42.1232 21.125 42.0234C20.2793 41.8896 19.7319 41.4922 19.3672 41.0625C19.0923 41.1106 18.7894 41.1534 18.4531 41.1094C18.33 41.0928 18.2138 41.0205 18.1016 40.9922C17.8127 41.0967 17.495 41.2404 17.1172 41.25L16.1797 41.1328L16.0625 41.0859L15.9688 41.0625L15.7344 40.9922L15.5469 40.9453C15.1364 40.826 14.8325 40.5888 14.5625 40.3828C14.3286 40.4478 14.0835 40.5687 13.7891 40.5703C13.0142 40.5729 12.417 40.2418 11.9609 39.8906C11.5855 39.9656 11.1548 40.0025 10.6719 39.8906C10.0001 39.7345 9.50959 39.4118 9.17188 39.0703C9.052 39.0238 8.94879 38.9628 8.84375 38.9062C8.40741 39.0039 7.89925 39.0785 7.34375 38.9297C6.8851 38.8055 6.51404 38.576 6.21875 38.3438C6.14766 38.3585 6.08339 38.4274 6.00781 38.4375C5.28729 38.5332 4.66974 38.3737 4.17969 38.1094L3.10156 37.1484L3.03125 37.0312L2.9375 36.9141V36.8906L2.35156 36.5625L2.23438 36.4453L2.09375 36.3516C1.74175 36.0751 0.932614 35.2265 0.898438 33.9141C0.576011 33.444 0.221452 32.761 0.335938 31.8516C0.353296 31.7137 0.444356 31.6 0.476562 31.4766C0.227105 30.7474 0.338212 30.0681 0.570312 29.4609C0.573456 29.4082 0.517447 29.3509 0.523438 29.2969L0.546875 29.2734C0.234853 28.5726 0.0744881 27.751 0.40625 26.9062C0.310657 26.4611 0.322848 26.0506 0.40625 25.6641C0.393934 25.4731 0.386846 25.2962 0.40625 25.125C0.357351 24.8071 0.361722 24.4747 0.429688 24.1172C0.176766 23.5836 -0.00621206 22.9148 0.21875 22.0781L0.242188 21.9609L0.289062 21.8672L0.757812 20.8359L0.804688 20.7891C0.857609 20.6297 0.842199 20.447 0.921875 20.2969C0.965121 20.2154 1.03907 20.1581 1.08594 20.0859C0.989519 19.8884 0.860864 19.685 0.804688 19.4297C0.69727 18.9411 0.749956 18.4856 0.851562 18.0703C0.652947 17.7156 0.501356 17.2947 0.476562 16.7578C0.375294 16.4296 0.299834 16.0607 0.335938 15.6328L0.171875 14.7422C0.140735 13.8687 0.508257 13.1298 0.898438 12.6562C0.983468 12.5532 1.11566 12.5054 1.20312 12.4219L0.96875 10.5703L2.02344 10.3125C2.18332 10.0778 2.412 9.79916 2.72656 9.5625C3.10015 9.28404 3.60762 9.04295 4.22656 8.97656C4.3542 8.96301 4.48106 8.97459 4.60156 8.97656C5.31512 8.56112 6.09256 8.53862 6.78125 8.69531C7.0173 8.60195 7.28429 8.51779 7.57812 8.48438H7.67188L7.78906 8.46094H8.25781C8.73148 8.17172 9.21929 8.03434 9.6875 8.01562C9.87405 7.82096 10.1304 7.62159 10.4375 7.45312C10.7373 7.28977 11.0551 7.18026 11.375 7.125H12.3594L12.4766 7.14844H12.6172C12.8004 7.12118 12.9981 7.09416 13.2031 7.10156H13.2734C13.5163 6.85941 13.858 6.6207 14.2812 6.44531C14.7964 6.23404 15.2938 6.19092 15.7344 6.23438C16.0095 6.0216 16.3418 5.81588 16.7656 5.69531L16.8828 5.67188L16.9766 5.64844L18.1719 5.53125C18.375 5.55364 18.5587 5.61751 18.7344 5.67188C18.796 5.66259 18.8576 5.63071 18.9219 5.625C19.0353 5.61502 19.144 5.64637 19.25 5.64844L19.7656 5.50781C19.9933 5.31566 20.2914 5.17072 20.6328 5.03906C21.4155 4.50561 22.3875 4.34571 23.2812 4.61719C23.3743 4.64569 23.4546 4.69996 23.5391 4.73438C23.9583 4.40411 24.5314 4.12466 25.2969 4.10156C25.9316 4.08315 26.4335 4.29012 26.8203 4.5C26.9852 4.36277 27.1611 4.25222 27.3594 4.14844C27.3819 4.11819 27.3819 4.0615 27.4062 4.03125C27.652 3.72719 28.0463 3.35426 28.625 3.11719C29.2345 2.86935 29.8679 2.84105 30.4062 2.95312C30.4377 2.95975 30.4694 2.99256 30.5 3C30.5632 2.95171 30.6172 2.88127 30.6875 2.83594C31.3521 2.4086 32.1328 2.25801 32.8672 2.39062C32.9329 2.40269 32.9931 2.46893 33.0547 2.48438C33.3372 2.21147 33.7109 1.9252 34.2266 1.75781C34.3158 1.72902 34.4204 1.75425 34.5078 1.73438C34.9306 1.52087 35.4318 1.34777 36.0312 1.38281C36.7567 1.42531 37.2702 1.75869 37.6016 1.99219C37.6931 1.86663 37.7797 1.71848 37.9062 1.59375C38.2346 1.27088 38.7454 0.938489 39.4297 0.796875C39.9965 0.681046 40.5093 0.761195 40.9297 0.890625ZM44.8906 42.6328L44.8203 42.7266L44.8672 42.7031L44.8906 42.6328ZM44.8672 42.7031L44.8203 42.7266L44.8906 42.6328L44.8672 42.7031ZM43.7422 41.625L43.9062 41.5781L44.4688 41.5547L44.375 41.9062L44.2578 41.9531H44.3516L44.3281 42.0703H44.0703L44.0938 42.0469L44.0234 42.0703H44.3281L44.3516 41.9531L44.375 41.9062L44.6562 41.7656V41.5547H44.7734V41.1562L44.5625 41.25L44.4688 41.5312H43.8125L43.7656 41.5781H43.7188L43.7422 41.625ZM44.7734 41.9766V42.0469H44.7969L44.8203 41.9766H44.7734ZM44.8203 41.9766L44.7969 42.0469H44.7734V41.9766H44.8203ZM44.3516 41.9531H44.2578L44.375 41.9062L44.3516 41.9531ZM44.6562 41.7656L44.375 41.9062L44.4688 41.5547H44.6562V41.7656ZM43.7422 41.625L43.7188 41.5781H43.9062L43.7422 41.625ZM30.3828 41.3438L30.1953 41.5312L30.4062 41.4844L30.5 41.3906L30.3828 41.3438ZM44.2109 41.5312L44.1641 41.5547L43.7656 41.5781L43.8125 41.5312H44.2109ZM44.2344 41.5312L44.2109 41.5547H44.1641L44.2109 41.5312H44.2344ZM44.4688 41.5312V41.5547H44.2109L44.2344 41.5312H44.4688ZM44.6562 41.5547H44.4688V41.5312L44.5625 41.25L44.6562 41.2031V41.5547ZM44.7734 41.5547H44.6562V41.2031L44.7734 41.1562V41.5547ZM30.5 41.3906L30.4062 41.4844L30.1953 41.5312L30.3828 41.3438L30.5 41.3906ZM48.7578 41.2031L48.8281 41.1562H48.7578V41.2031ZM48.8281 41.1562L48.7578 41.2031V41.1562H48.8281ZM48.9688 40.6406L48.8516 40.7109L48.8047 40.9219L48.9453 40.8047L48.9688 40.6406ZM48.0547 41.1562L48.2422 41.0625H48.1953L48.0547 41.1562ZM48.1953 41.0625H48.2422L48.0547 41.1562L48.1953 41.0625ZM48.9453 40.8047L48.8281 40.8984H48.8047L48.8516 40.7109L48.9688 40.6406L48.9453 40.8047ZM31.25 40.6406L31.2031 40.6172L31.25 40.5703H31.4609C31.4605 40.5619 31.4646 40.5374 31.4609 40.5V40.5703H31.25L31.1797 40.6406H31.25ZM51.4766 39.75L51.6406 39.6094L51.3594 39.75H51.3125V39.7734L51.1953 39.8438V39.8906H51.3125L51.125 39.9844H51.5469L51.2656 40.2656H51.125V40.3359L51.0781 40.3594L50.9375 40.3359V40.3125L51.0078 40.2422H50.8203V40.4297L50.9141 40.3359H50.9375V40.4297L51.125 40.3359V40.5L51.3125 40.4297H51.3359V40.2656H51.2656L51.5469 39.9844L52.2734 39.9609L52.2969 39.9375H51.9688L51.8984 39.9609L51.125 39.9844L51.3125 39.8906V39.7734L51.3594 39.75H51.4766ZM51.2188 40.4531L51.125 40.5V40.4062L51.2188 40.3125V40.4531ZM51.3359 40.2656V40.4297H51.3125L51.2188 40.4531V40.3125L51.2422 40.2891L51.2891 40.2656H51.3359ZM25.6953 40.2891L25.7422 40.3125L25.8828 40.2188L25.6953 40.2891ZM51.0781 40.3594L50.9375 40.4297V40.3359L51.0781 40.3594ZM50.9375 40.2422V40.3125L50.8203 40.4297V40.2422H50.9375ZM51.2188 40.3125L51.1484 40.3828H51.125V40.3359L51.2188 40.2891V40.3125ZM51.2656 40.2656L51.2422 40.2891L51.125 40.3359V40.2656H51.2656ZM25.7422 40.3125L25.6953 40.2891L25.8828 40.2188L25.7422 40.3125ZM51.0078 40.2422L50.9375 40.3125V40.2422H51.0078ZM56.5391 39.7031H56.4922V39.75L56.3516 39.8906H56.4453L56.4922 40.0312L56.6328 39.8906H56.3516L56.5391 39.7031ZM56.6328 39.8906L56.4922 40.0312L56.4453 39.8906H56.6328ZM52.2969 39.9375L52.2734 39.9609H51.8984L51.9688 39.9375H52.2969ZM53.1172 39.9141L53.3516 39.8203H53.2578L53.1172 39.9141ZM53.3516 39.8203L53.1172 39.9141L53.2578 39.8203H53.3516ZM51.3125 39.8906H51.1953V39.8438L51.3125 39.7734V39.8906ZM53.6797 39.7734L53.6094 39.8203H53.9141L54.0078 39.75L53.6797 39.7734ZM53.9141 39.8203H53.6094L53.6797 39.7734L54.0078 39.75L53.9141 39.8203ZM26.8438 39.75L26.9141 39.7734L26.9844 39.75H26.8438ZM26.9141 39.7734L26.8438 39.75H26.9844L26.9141 39.7734ZM51.4766 39.75H51.3594L51.6406 39.6094L51.4766 39.75ZM56.4922 39.75V39.7031H56.5391L56.4922 39.75ZM27.7812 39.5625L27.8047 39.7266V39.6094L27.7812 39.5625ZM54.5234 39.2344H54.6875L54.4297 39.4219H54.1016L54.0547 39.4453H54.4062L54.2891 39.5391L54.1016 39.6328H54.1719L54.2891 39.5391L54.4766 39.4453H54.8281L54.5234 39.4219L54.9219 39.2344H55.0859L55.3438 39.0234L54.9219 39.2344H54.6875L54.9219 39.0469L54.5234 39.2344ZM53.4688 39.3984L53.3281 39.4453H53.6797L53.75 39.3984H53.4688ZM54.1719 39.6328H54.1016L54.2891 39.5391L54.1719 39.6328ZM58.9062 37.9688L59.5156 38.0391L59.0938 38.3203L58.4141 38.2969L58.3438 38.2734L57.9688 38.6484H57.5938L57.9219 38.3203L57.7344 38.2734V38.5078L57.5938 38.6484H57.7344V38.7891L57.3594 39.1641H57.7344L57.8516 39.0469V38.6719L57.875 38.6484H57.9688L58.3438 38.2734L58.4141 38.2969L59.0938 38.3203L59.5156 38.0391L59.9375 38.0859L60.0078 38.0625L59.5859 37.9922L59.3047 37.9688V37.9453H58.9531L58.9062 37.9688ZM24.7344 39.5391L24.7109 39.4219L24.1719 39.4453L24.4062 39.5391H24.7344ZM59.5625 39.2812L59.8203 39.1172L59.8672 39.0469L59.6328 39.1641L59.5625 39.2812ZM24.7344 39.5391H24.4062L24.1719 39.4453L24.7109 39.4219L24.7344 39.5391ZM54.2891 39.5391L54.4062 39.4453H54.4766L54.2891 39.5391ZM56.2109 39.1875L56.1641 39.2344L56.2578 39.4922H56.375L56.2578 39.1875H56.2109ZM56.375 39.4922H56.2578L56.1641 39.2344L56.2109 39.1875H56.2578L56.375 39.4922ZM52.4141 39.3516L53.1172 39.375L53.3516 39.2578L52.5547 39.2812L52.4141 39.3516ZM53.75 39.3984L53.6797 39.4453H53.3281L53.4688 39.3984H53.75ZM54.1484 39.4219L54.0781 39.4453H54.0547L54.1016 39.4219H54.1484ZM54.5234 39.4219L54.4766 39.4453H54.0781L54.1484 39.4219H54.5234ZM54.8281 39.4453H54.4766L54.5234 39.4219L54.8281 39.4453ZM54.5234 39.4219H54.4297L54.6875 39.2344H54.9219L54.5234 39.4219ZM51.1719 38.9766V39H51.2891L51.7344 39.0938L51.9219 39H51.2891L51.1719 38.9766ZM53.1172 39.375H53L52.5547 39.2812L53.3516 39.2578L53.1172 39.375ZM53 39.375L52.4141 39.3516L52.5547 39.2812L53 39.375ZM53.75 39.2578H53.9141L54.1484 39.0703L53.75 39.2578ZM59.8203 39.1172L59.5625 39.2812L59.6328 39.1641L59.8672 39.0469L59.8203 39.1172ZM53.9141 39.2578H53.75L54.1484 39.0703L53.9141 39.2578ZM20.8906 39.0234L21.0078 39.0938H21.2891V39L20.8906 39.0234ZM54.6875 39.2344H54.5234L54.9219 39.0469L54.6875 39.2344ZM55.0859 39.2344H54.9219L55.3438 39.0234L55.0859 39.2344ZM57.7344 38.8828L57.4531 39.1641H57.3594L57.7344 38.7891V38.8828ZM57.8516 39.0469L57.7344 39.1641H57.4531L57.8516 38.7656V39.0469ZM21.1719 39.0938H21.0078L20.8906 39.0234L21.1719 39V39.0938ZM21.2891 39.0938H21.1719V39H21.2891V39.0938ZM51.7344 39.0938L51.2891 39H51.9219L51.7344 39.0938ZM22.8359 38.8359H22.9766L22.8594 38.7891L22.8359 38.8359ZM62.5156 38.4375H62.4922V38.4844L62.2812 38.7188L62.4922 38.7422V38.4609L62.5156 38.4375ZM55.3438 38.6953L55.0391 38.9531H55.1094L55.625 38.7188L55.6016 38.6953H55.3438ZM54.5 38.7188H54.5703L54.6406 38.6484L54.5 38.7188ZM55.625 38.7188L55.1094 38.9531H55.0391L55.3438 38.6953H55.6016L55.625 38.7188ZM57.8516 38.7656L57.7344 38.8828V38.7891L57.8516 38.6719V38.7656ZM22.9766 38.8359H22.8359L22.8594 38.7891L22.9766 38.8359ZM56.9844 38.6719H57.1719V38.5312L56.9844 38.6719ZM57.8516 38.6719L57.7344 38.7891V38.6484H57.8516V38.6719ZM62.4922 38.4844V38.7422L62.2812 38.7188L62.4922 38.4844ZM54.5703 38.7188H54.5L54.6406 38.6484L54.5703 38.7188ZM57.1719 38.6719H56.9844L57.1719 38.5312V38.6719ZM8.30469 18.4219L7.95312 19.4766L7.90625 19.5938L7.83594 19.6875C7.80928 19.7355 7.74698 19.7596 7.71875 19.8047C7.87726 20.0906 8.03689 20.4375 8.09375 20.8594C8.20851 21.724 7.88689 22.3968 7.57812 22.875C7.70728 23.135 7.85639 23.4293 7.90625 23.7891C7.97963 24.3268 7.88415 24.7957 7.74219 25.1953C8.00667 25.6145 8.29086 26.1881 8.25781 26.9297C8.23098 27.5199 8.00416 27.9787 7.78906 28.3359C7.85928 28.7312 7.87795 29.1573 7.76562 29.6016C7.7391 29.7065 7.65952 29.7883 7.625 29.8828V29.9062C7.82794 30.1754 8.00219 30.5479 8.11719 31.0078C8.57086 31.0797 8.99222 31.2495 9.35938 31.5C9.65185 31.4496 9.97645 31.4249 10.3203 31.4766L11.1172 31.7109L11.3047 31.8047L12.3359 32.5547C12.4168 32.6448 12.4626 32.7513 12.5234 32.8359C12.5947 32.8162 12.6576 32.7574 12.7344 32.7422C13.1889 32.6526 13.6626 32.6917 14.1172 32.8125C14.2779 32.7774 14.45 32.7492 14.6328 32.7422L15.6406 32.8828L15.7344 32.9062H15.8281C16.2247 32.9054 16.6632 32.9943 17.0938 33.1875C17.6321 33.4318 17.9785 33.7972 18.2188 34.1016C18.3326 34.0984 18.45 34.0907 18.5703 34.1016L19.5078 34.3359L19.6484 34.4062H19.7656C20.2738 34.2296 20.9642 34.1048 21.7344 34.3594C22.2479 34.5309 22.6271 34.8107 22.9062 35.0859C23.3147 35.035 23.7484 34.9894 24.1953 35.1328L25.0859 35.5781L25.1797 35.6484L25.3672 35.8359C25.774 35.9275 26.1169 36.0906 26.3984 36.2812C26.458 36.2642 26.5226 36.2483 26.5859 36.2344C26.7712 36.1937 26.9605 36.2403 27.1484 36.2344C27.3525 36.1651 27.5714 36.0718 27.8281 36.0469C28.5507 35.9771 29.194 36.2061 29.7266 36.5391C29.7868 36.5308 29.8507 36.5204 29.9141 36.5156C30.4926 36.4728 31.0077 36.6432 31.4609 36.8672C31.6783 36.8992 31.8803 36.9599 32.0703 37.0312H32.1406L32.2578 37.0078L33.4062 36.9375C33.8005 36.9863 34.2 37.1192 34.5781 37.3359C34.622 37.3612 34.654 37.4033 34.6953 37.4297C35.5257 37.5594 36.1489 37.9567 36.5234 38.3906C36.5872 38.4651 36.6122 38.5752 36.6641 38.6484C36.6814 38.6201 36.7166 38.6051 36.7344 38.5781L36.6875 38.4844L36.6172 38.3672C36.3313 37.83 36.1709 37.13 36.3125 36.375C36.4268 35.7661 36.7038 35.3137 36.9453 35.0156C36.6802 34.6866 36.4191 34.2384 36.3125 33.6562C36.1373 32.6867 36.4334 31.9399 36.7812 31.4297C36.6302 30.9549 36.6103 30.4695 36.7109 29.9531C36.6702 29.846 36.6006 29.7459 36.5703 29.625C36.3991 28.9381 36.4916 28.2891 36.7109 27.75C36.6439 27.5535 36.5509 27.353 36.5234 27.1172C36.4975 26.8938 36.5524 26.6857 36.5703 26.4844C36.4858 26.3276 36.3746 26.1662 36.3125 25.9688C36.1119 25.3251 36.1495 24.6448 36.3594 24.0469C36.3311 24.038 36.2942 24.0567 36.2656 24.0469C36.0004 23.9552 35.7602 23.8506 35.5625 23.7188L35.4922 23.7422H35.4219L35.1641 23.7656L35.0469 23.7422C34.747 23.7632 34.4537 23.7612 34.1562 23.6953C33.8227 23.7206 33.4532 23.7187 33.0547 23.6016C32.579 23.4612 32.22 23.2204 31.9297 22.9688C31.6616 22.9382 31.3918 22.8757 31.1094 22.7578C30.9387 22.754 30.7573 22.7948 30.5703 22.7578C30.3005 22.7037 30.0802 22.5544 29.8672 22.4531V22.4766C29.6883 22.4737 29.5197 22.3915 29.3516 22.3594C28.7695 22.4325 28.1059 22.3949 27.4297 21.9844C27.0861 22.0409 26.6843 22.0816 26.2578 21.9844C25.765 21.8706 25.3914 21.6156 25.0859 21.375C24.2693 21.5278 23.4159 21.3608 22.7188 20.8359C22.6921 20.8158 22.6738 20.7861 22.6484 20.7656C22.5051 20.7978 22.3635 20.8233 22.2031 20.8359L22.1328 20.8828L22.0156 20.9062C21.1399 21.1282 20.1804 20.95 19.4141 20.3672C19.3221 20.2972 19.2569 20.2061 19.1797 20.1328C18.761 20.118 18.3466 20.0124 17.9375 19.8047C17.5257 19.7489 17.131 19.6297 16.7656 19.4062C16.4691 19.4899 16.1298 19.5759 15.7344 19.5469C15.1457 19.5036 14.6964 19.2948 14.3281 19.0547C14.0779 19.0877 13.8042 19.1202 13.5078 19.0781C13.2318 19.0379 12.9858 18.918 12.7578 18.8203C12.3632 18.8414 11.982 18.777 11.5859 18.6328L11.375 18.6797H11.2812L11.1641 18.6562C10.142 18.5517 9.52451 17.969 9.14844 17.5078C9.05674 17.5095 8.96427 17.5618 8.86719 17.5547C8.64575 17.5384 8.45316 17.4469 8.25781 17.3906C8.33044 17.75 8.35215 18.0926 8.30469 18.4219ZM56.3516 38.3203L56.4453 38.5078L56.4219 38.4375C56.4085 38.4136 56.3852 38.3722 56.3516 38.3203ZM57.8516 38.2969V38.3906L57.7344 38.5078V38.2734L57.8516 38.2969ZM60.1016 38.3438L59.9844 38.4141H60.0547L60.1016 38.3438ZM60.0781 38.3672L60.0547 38.4141H59.9844L60.0547 38.3672H60.0781ZM57.9219 38.3203L57.8516 38.3906V38.2969L57.9219 38.3203ZM40.5547 38.2969L40.6016 38.2266V38.1328L40.5547 38.2969ZM61.1562 38.2266L61.3203 38.25L61.2734 38.2734H61.3672L61.7188 38.0625H61.6719L61.3438 38.2266L61.2031 38.2031L61.1562 38.2266ZM40.6016 38.2266L40.5547 38.2969L40.6016 38.1328V38.2266ZM60.1484 38.25H60.2188L60.3828 38.1562L60.2188 38.1328L60.1484 38.25ZM61.7188 38.0625L61.3672 38.2734H61.2734L61.6719 38.0625H61.7188ZM60.3594 38.1562L60.3359 38.1797L60.2188 38.25H60.1484L60.2188 38.1328L60.3594 38.1562ZM61.3438 38.2266L61.3203 38.25L61.1562 38.2266L61.2031 38.2031L61.3438 38.2266ZM62.7266 38.1094H62.7734L62.8906 37.9688L62.7266 38.1094ZM18.2891 38.0625L18.3828 38.1328L18.7109 38.0625L18.6172 38.0156L18.2891 38.0625ZM18.7109 38.0625L18.3828 38.1328L18.2891 38.0625L18.6172 38.0156L18.7109 38.0625ZM71.4453 17.7188C70.7561 17.9047 70.168 17.7788 69.7109 17.625C69.5163 17.8027 69.3254 18.0084 69.0547 18.1406L67.6953 18.4453H67.4609C67.2912 18.445 67.1437 18.352 66.9922 18.3281C66.8034 18.5747 66.6065 18.8843 66.2656 19.1016C65.3484 19.6841 64.4419 19.5686 63.7578 19.3594C63.4031 19.7084 62.9314 20.0724 62.2344 20.2031C61.7983 20.2841 61.4056 20.2514 61.0625 20.1797C60.7473 20.4188 60.3562 20.5791 59.8672 20.6719C59.5086 20.9227 59.0563 21.1452 58.4844 21.2109C57.9296 21.273 57.4508 21.1619 57.0781 21.0234C56.7712 21.2772 56.3961 21.533 55.8828 21.6562C55.5708 21.7307 55.2838 21.7174 55.0156 21.7031C54.9552 21.7367 54.9171 21.813 54.8516 21.8438C54.2551 22.1208 53.6787 22.1436 53.1875 22.0781C52.7726 22.3703 52.2508 22.6408 51.5703 22.6641C51.4481 22.6681 51.3317 22.6029 51.2188 22.5938C50.976 22.6342 50.7204 22.6651 50.4453 22.6406C50.2255 22.6208 50.0426 22.5081 49.8594 22.4531C49.6578 22.4612 49.4631 22.4582 49.2734 22.4297C49.0294 22.6338 48.7405 22.8566 48.3594 22.9922C47.9603 23.1328 47.5552 23.151 47.1875 23.1328C47.1115 23.1653 47.0118 23.1296 46.9297 23.1562C46.9066 23.1771 46.9071 23.2294 46.8828 23.25C46.3206 23.7256 45.6508 23.9193 44.9844 23.9297C44.9249 23.9493 44.858 23.9371 44.7969 23.9531C44.5364 24.1062 44.2684 24.1667 44 24.2344C43.9621 24.3811 43.9593 24.5293 43.9062 24.6562L43.5547 25.2891L43.4844 25.3594C43.4883 25.4269 43.5319 25.5 43.5312 25.5703C43.5274 25.9145 43.4349 26.2122 43.3438 26.4844C43.4773 26.8118 43.6278 27.1834 43.625 27.6328L43.6016 27.6797C43.639 27.8237 43.7258 27.9618 43.7422 28.125C43.8196 28.8978 43.5784 29.5375 43.2969 30C43.4316 30.3779 43.4871 30.8142 43.4375 31.3125C43.545 31.5286 43.7083 31.7536 43.7656 32.0391C43.869 32.5597 43.79 33.0313 43.6719 33.4453C43.7078 33.5182 43.8044 33.5767 43.8359 33.6562C44.0362 34.1675 44.0514 34.7293 43.9531 35.2969C43.9669 35.3313 44.0106 35.3548 44.0234 35.3906C44.2412 36.004 44.1936 36.5913 44.0703 37.1016C44.1203 37.3136 44.141 37.5375 44.1406 37.7812C44.3251 37.7479 44.5211 37.732 44.7266 37.7344H44.9375L45.5 37.8281C45.6603 37.7816 45.8079 37.7077 45.9688 37.6875L47.0703 37.7344H47.1641C47.2075 37.683 47.2555 37.621 47.3047 37.5703C47.66 37.2058 48.2014 36.8391 48.9219 36.7031C49.3237 36.6283 49.701 36.645 50.0234 36.7031C50.2492 36.5618 50.506 36.4327 50.7969 36.3516C51.1865 36.1216 51.6137 35.9897 52.0859 35.9531C52.199 35.9095 52.3105 35.8445 52.4375 35.8125C52.8757 35.7035 53.284 35.7347 53.6328 35.7891C53.7453 35.7724 53.8514 35.7228 53.9609 35.7188C54.1471 35.626 54.3214 35.5139 54.5234 35.4609L55.7656 35.3906C56.1818 35.0373 56.723 34.7661 57.4062 34.6875L57.4531 34.6641C58.3399 34.1904 59.2764 34.2274 59.9609 34.4766C60.0874 34.5228 60.1819 34.6325 60.2891 34.6875C60.3963 34.6867 60.4935 34.6778 60.5938 34.6875C60.7312 34.6431 60.8608 34.5492 61.0156 34.5234C61.0782 34.5131 61.1424 34.5298 61.2031 34.5234C61.2988 34.4135 61.3568 34.256 61.4844 34.1484C61.8096 33.8756 62.2053 33.6575 62.6328 33.5391C62.9514 33.3308 63.3463 33.1707 63.8281 33.0938L63.9219 33.0703L64.0391 33.0469L65.4219 33.1406C65.498 33.1636 65.5636 33.2079 65.6328 33.2344C65.7719 33.2212 65.9026 33.2059 66.0312 33.2109C66.2903 32.9967 66.6319 32.8242 67.0391 32.6953C67.0978 32.6552 67.1621 32.5923 67.2266 32.5547C68.0329 32.0893 68.8248 32.1406 69.4531 32.2969C69.6357 32.1967 69.8156 32.0611 70.0391 31.9922L70.1328 31.9688L70.25 31.9453L70.4609 31.9219C71.0879 31.532 71.8295 31.2966 72.6172 31.4531C72.728 31.4752 72.8226 31.5392 72.9219 31.5703C72.8931 31.2519 72.8852 30.9693 72.9453 30.7031C72.9337 30.4616 72.8892 30.2077 72.9453 29.9297C72.9786 29.7652 73.0569 29.6255 73.1094 29.4844C72.8092 29.0847 72.4828 28.4631 72.4766 27.6562C72.4748 27.3199 72.5574 27.0138 72.6406 26.7422L72.3594 26.1797L72.3359 26.0625L72.3125 25.9688C72.0619 25.0662 72.3005 24.2885 72.6172 23.6953C72.6358 23.5818 72.6578 23.4742 72.6875 23.3672C72.6756 23.2779 72.6681 23.1948 72.6641 23.1094C72.4885 22.627 72.3674 22.0532 72.5234 21.3984C72.5655 21.2231 72.6714 21.0774 72.7344 20.9297C72.7143 20.4739 72.7586 20.0975 72.8984 19.7578C72.7604 19.5001 72.6309 19.186 72.5703 18.8203C72.5248 18.541 72.573 18.2873 72.5938 18.0469C72.5213 17.915 72.393 17.804 72.3359 17.6484L71.8672 17.6016L71.75 17.5547V17.5312C71.6444 17.5732 71.5633 17.6869 71.4453 17.7188ZM62.7734 38.1094H62.7266L62.8906 37.9688L62.7734 38.1094ZM59.3047 37.9453V37.9688L60.0078 38.0625L59.9375 38.0859L58.9062 37.9688L58.9531 37.9453H59.3047ZM55.4609 37.9688L55.5547 37.875V37.8516L55.4375 37.8984L55.4609 37.9688ZM55.5547 37.875L55.4609 37.9688L55.4375 37.8984L55.5547 37.8516V37.875ZM18.3359 37.5703L18.2422 37.8047L18.5938 37.7344L18.3359 37.5703ZM18.5938 37.7344L18.2422 37.8047L18.2656 37.7344L18.3359 37.5703L18.5938 37.7344ZM63.5938 37.125L63.3594 37.4062L63.125 37.5469H63.2422L63.3594 37.4062L63.8281 37.125H64.3438L63.7812 37.5703H64.5312L64.5547 37.7578L64.6484 37.7109V37.5703H63.7812L64.3438 37.125H63.5938ZM64.6484 37.5703V37.7109L64.5547 37.7578L64.5312 37.5703H64.6484ZM40.625 37.7344L40.6484 37.6875H40.6016L40.625 37.7344ZM40.6484 37.6875L40.625 37.7344L40.6016 37.6875H40.6484ZM20.5391 37.6406L20.3281 37.6875L20.5625 37.6406H20.5391ZM20.5625 37.6406L20.4688 37.6641H20.4453L20.5391 37.6406H20.5625ZM60.8047 37.0781L60.7109 37.2188L60.9453 37.0781H60.9688L60.7109 37.5H61.3438L61.9531 37.1016H62.5859V37.2656L62.4688 37.3594V37.5469H62.6797V37.4531L63.2422 37.1016H62.6797V37.2188L62.5859 37.2656V37.1016L60.8047 37.0781ZM38.4688 37.5L38.6562 37.4062L38.4922 37.3828H38.4219L38.4688 37.5ZM63.2422 37.5469H63.125L63.3594 37.4062L63.2422 37.5469ZM62.6797 37.5469H62.5859V37.5L62.6797 37.4531V37.5469ZM62.5859 37.5469H62.5391L62.5859 37.5V37.5469ZM62.5859 37.5L62.5391 37.5469H62.4688V37.3594L62.5859 37.2656V37.5ZM19.7656 37.5234L19.9297 37.5L19.9766 37.3125L19.7656 37.5234ZM19.9297 37.5L19.7656 37.5234L19.9766 37.3125L19.9297 37.5ZM19.2031 37.4531C19.1789 37.4919 19.1602 37.5163 19.1562 37.5234V37.4766L19.2031 37.4531ZM38.4922 37.3828L38.6562 37.4062L38.4688 37.5L38.4219 37.3828H38.4922ZM61.9531 37.1016L61.3438 37.5H60.8281L61.4375 37.0781L61.9531 37.1016ZM61.4375 37.0781L60.8281 37.5H60.7109L60.9688 37.0781H61.4375ZM62.6797 37.4531L62.5859 37.5V37.2656L62.6797 37.2188V37.4531ZM63.2422 37.1016L62.6797 37.4531V37.2188L62.8438 37.1016H63.2422ZM17.5859 37.2188L17.8438 37.4062L18.0547 37.3594L17.7734 37.1719L17.5859 37.2188ZM18.0547 37.3594L17.8438 37.4062L17.5859 37.2188L17.7734 37.1719L18.0547 37.3594ZM63.8047 37.125L63.7812 37.1484L63.3594 37.4062L63.5938 37.125H63.8047ZM16.625 37.1953L16.7188 37.1719V37.2188L16.7422 37.1719H16.7188L16.6484 37.1016L16.625 37.1953ZM60.9453 37.0781L60.7109 37.2188L60.8047 37.0781H60.9453ZM62.8438 37.1016L62.6797 37.2188V37.1016H62.8438ZM16.7188 37.1719L16.625 37.1953L16.6484 37.1016L16.7188 37.1719ZM64.3906 36.7734L64.4375 37.0312L64.5312 36.9609L64.6719 36.9141C64.6692 36.9092 64.6416 36.895 64.625 36.8672V36.8438L64.6719 36.9141H64.6484L64.5312 36.9609L64.5078 36.75H64.3906V36.7734ZM64.5078 36.75L64.5312 36.9609L64.4375 37.0312L64.3906 36.7734L64.4375 36.75H64.5078ZM14.8438 36.6797L14.7031 36.9375L14.8203 36.9141L14.9609 36.6797H14.8438ZM66.6406 36.7734L66.8281 36.8438L66.9922 36.7734H66.6406ZM14.8203 36.9141L14.7031 36.9375L14.8438 36.6797H14.9609L14.8203 36.9141ZM66.8281 36.8438L66.6406 36.7734H66.9922L66.8281 36.8438ZM68.5391 36.2578H68.0469L68.4922 36.0469L68.6094 36H68.5391L68.4922 36.0469L68.0469 36.2578L68 36.2812L67.5547 36.2578L67.5078 36.2812H68L68.0469 36.2578H68.3047L68.2578 36.3047L68.1172 36.4688L67.9297 36.5625L68.3047 36.5391L68.0703 36.7734L68.1406 36.75L68.5859 36.5391H68.3047L68.5156 36.3047L68.5859 36.2344L68.5391 36.2578ZM10.6953 36.7266L10.7422 36.75L10.8828 36.6797L10.6953 36.7266ZM10.7422 36.75L10.6953 36.7266L10.8828 36.6797L10.7422 36.75ZM68.1406 36.75H68.0938L68.3047 36.5391H68.5859L68.1406 36.75ZM70.6719 36.2344L70.7188 36.1641L70.625 36.2344H70.6719ZM70.4844 36.4453L70.4375 36.4688H70.5547L70.6016 36.4453H70.4844ZM68.5156 36.3047L68.3047 36.5391L67.9297 36.5625L68.1172 36.4688L68.4219 36.3047H68.5156ZM70.6016 36.4453L70.5547 36.4688H70.4375L70.4844 36.4453H70.6016ZM68.4219 36.3047L68.1172 36.4688L68.2578 36.3047H68.4219ZM17 36.2812L16.9766 36.3516H17.0703L17 36.2812ZM65.3281 36.1875L65.1875 36.1406L65.0234 36.2578L65.1641 36.3047H65.4922V36.2109L65.4453 36.2344L65.375 36.2109V36.1641L65.3281 36.1875ZM17.0703 36.3516H16.9766L17 36.2812L17.0703 36.3516ZM65.2812 36.3047H65.1641L65.2812 36.2344V36.3047ZM65.1875 36.1406L65.3281 36.1875L65.1641 36.3047L65.0234 36.2578L65.1875 36.1406ZM65.375 36.2812L65.3516 36.3047H65.2812V36.2344L65.375 36.1641V36.2812ZM65.4922 36.2578V36.3047H65.375V36.2812L65.4453 36.2344L65.4922 36.2578ZM68.5156 36.3047H68.4219L68.5391 36.2578H68.5625L68.5156 36.3047ZM68.4219 36.3047H68.2578L68.3047 36.2578H68.5391L68.4219 36.3047ZM65.4453 36.2344L65.375 36.2812V36.2109L65.4453 36.2344ZM67.8125 36.2812H67.5078L67.5547 36.2578L67.8125 36.2812ZM65.4922 36.2578L65.4453 36.2344L65.4922 36.2109V36.2578ZM70.6719 36.2344H70.625L70.7188 36.1641L70.6719 36.2344ZM68.4922 36.0469L68.5391 36H68.6094L68.4922 36.0469ZM73.4609 34.9453L73.1094 35.2266H73.1797L73.25 35.1562H73.5078L73.4141 35.25H73.4844L73.2969 35.3906H73.3672L73.2266 35.4375L73.1094 35.5312H73.1562L73.25 35.4375L73.3672 35.3906L74.0234 35.4141L73.7891 35.625H73.6719L74.0938 35.6484L74.1406 35.625H73.7891L74.0234 35.4141L74.0469 35.3906L73.8828 35.4141L73.5312 35.3906L73.7422 35.1797L73.5312 35.2031L73.6016 35.1562H73.25L73.3438 35.0391L73.3906 35.0156H73.625L73.7188 34.9219L73.4609 34.9453ZM69.9219 35.7656L69.5703 35.9531H69.8047L70.2031 35.7656H69.9219ZM65.4688 35.8125V35.9062L65.5859 35.8125H65.4688ZM69.8047 35.9531H69.5703L69.9219 35.7656H70.2031L69.8047 35.9531ZM9.61719 35.9531L9.66406 35.9297L9.6875 35.8828V35.8594L9.61719 35.9531ZM15.4531 35.7422L15.4297 35.7891L15.3594 35.8828L15.4531 35.7422ZM65.4688 35.9062V35.8125H65.5859L65.4688 35.9062ZM71.0234 35.5781L70.8594 35.6719H70.9297L71.0234 35.5781ZM70.9297 35.6719H70.8594L71.0234 35.5781L70.9297 35.6719ZM9.05469 35.0625L8.89062 35.2031H9.03125L9.05469 35.0625ZM74.0938 35.6484L73.6719 35.625H74.1406L74.0938 35.6484ZM73.1562 35.5312H73.1094L73.2266 35.4375H73.25L73.1562 35.5312ZM71.6797 35.1797L71.5625 35.2969H71.5391L71.4453 35.3438H71.2344L71.2109 35.3672H71.2578L71.2344 35.3438H71.5156L71.5625 35.2969H71.8672L72.0781 35.1797H71.6797ZM73.6719 35.25L73.5312 35.3906H73.2969L73.4844 35.25H73.6719ZM71.5625 35.2969L71.5156 35.3438H71.4453L71.5391 35.2969H71.5625ZM72.0781 35.1797L71.8672 35.2969H71.5625L71.6094 35.25L71.75 35.1797H72.0781ZM75.6641 35.1328H75.5234L75.5 35.1562L75.6172 35.1328H75.8047L75.7812 35.1094L75.6641 35.1328ZM73.5312 35.2031L73.7422 35.1797L73.6719 35.25H73.4141L73.5078 35.1562H73.6016L73.5312 35.2031ZM71.6094 35.25L71.6797 35.1797H71.75L71.6094 35.25ZM73.1797 35.2266H73.1094L73.2031 35.1562H73.25L73.1797 35.2266ZM9.03125 35.2031H8.89062L8.9375 35.1562L9.05469 35.0625L9.03125 35.2031ZM71.6797 35.1562H71.75L72.1484 34.9453L71.9141 34.9219L71.6797 35.1562ZM72.1484 34.9453L71.75 35.1562H71.6797L71.8672 34.9688L71.9375 34.9219L72.1484 34.9453ZM73.25 35.1562H73.2031L73.3438 35.0391L73.25 35.1562ZM21.8047 35.1094C21.727 35.0907 21.6492 35.0747 21.5703 35.0625C21.653 35.0673 21.7265 35.0987 21.8047 35.1094ZM9.00781 34.7812V34.8047L8.98438 34.9453L9.19531 34.7812H9.00781ZM73.625 35.0156H73.3906L73.4609 34.9453L73.7188 34.9219L73.625 35.0156ZM9.10156 34.8516L8.98438 34.9453L9.00781 34.8047L9.03125 34.7812H9.125L9.10156 34.8516ZM9.10156 34.8516L9.125 34.7812H9.19531L9.10156 34.8516ZM39.8281 34.1484L39.875 34.3828L39.8984 34.3594L39.9688 34.6406L40.0391 34.4297L39.9688 34.2656L39.8984 34.3594L39.8516 34.125L39.8281 34.1484V34.1016H39.8047L39.7578 34.2422L39.8281 34.1484ZM39.9688 34.6406L39.9453 34.5469L40.0391 34.4297L39.9688 34.6406ZM40.0391 34.4297L39.9453 34.5469L39.8984 34.3594L39.9688 34.2656L40.0391 34.4297ZM39.8984 34.3594L39.875 34.3828L39.8281 34.1484L39.8516 34.125L39.8984 34.3594ZM39.8281 34.1016V34.1484L39.7578 34.2422L39.8047 34.1016H39.8281ZM75.5703 33.9141L75.5 33.8906L75.4062 34.0781L75.5703 33.9141ZM75.5703 33.9141L75.4297 34.0547H75.4062L75.5 33.8906L75.5703 33.9141ZM40.3672 33.4688L40.2969 33.5859V33.6094H40.2266V33.6562L40.1797 33.7031L40.3203 33.7266V33.8203L40.4844 33.6094H40.3203L40.3672 33.4688L40.6016 33.1641L40.5547 32.9062L40.3672 33.4688ZM40.3906 33.7266L40.3203 33.8203V33.7266H40.3906ZM40.8594 33.75H40.9062L40.9766 33.6562H40.8828L40.8594 33.75ZM40.9766 33.6562L40.9062 33.75H40.8594L40.8828 33.6562H40.9766ZM39.2891 33.6094L39.3359 33.5391H39.2422L39.2891 33.6094ZM40.4844 33.6094L40.3906 33.7266H40.2734L40.3203 33.6094H40.4844ZM40.2969 33.6094V33.6562L40.2734 33.7266L40.1797 33.7031L40.2734 33.6094H40.2969ZM76.2031 33.5391L76.1328 33.6562L76.1797 33.6328H76.2031L76.25 33.5391H76.2031ZM75.8516 33.3516L75.7578 33.4453L75.6641 33.5156L75.7812 33.5391L75.8281 33.375L75.875 33.3516H75.8516ZM40.2734 33.6094L40.2266 33.6562V33.6094H40.2734ZM75.9688 33.375L75.9922 33.4219L76.0156 33.375H76.0391L75.9922 33.4922H75.9688L75.9219 33.5625L75.9922 33.5156V33.4922L76.0391 33.375H75.9688ZM76.25 33.5391L76.2031 33.6328H76.1562L76.2031 33.5391H76.25ZM40.3203 33.6094H40.2969V33.5859L40.3672 33.4688L40.3203 33.6094ZM39.3125 33.5391V33.5625L39.2891 33.6094L39.2422 33.5391H39.3125ZM75.9922 33.4922V33.5156L75.9219 33.5625L75.9688 33.4922H75.9922ZM75.8047 33.4453L75.7812 33.5391L75.6641 33.5156L75.7578 33.4453H75.8047ZM40.6016 33.1641L40.3672 33.4688L40.5547 32.9062L40.6016 33.1641ZM75.8047 33.4453H75.7578L75.8281 33.375L75.8047 33.4453ZM76.0156 33.375L75.9922 33.4219L75.9688 33.375H76.0156ZM40.4141 31.2656L40.5312 31.4531L40.5547 31.4062L40.4141 31.2422V31.2656ZM40.5547 31.4062L40.5312 31.4531L40.4141 31.2656V31.2422L40.5547 31.4062ZM76.1562 30.2109V30.1875L76.1094 30.2578L76.1797 30.1641L76.3438 30.1172L76.3672 30.2344H76.3906V30.2109L76.3672 30.2344L76.3438 30.1172L76.1797 30.1641L76.1562 30.2109ZM76.8828 29.9297L76.8594 30.0703H76.9062L76.9531 29.9062L76.8828 29.9297ZM76.25 29.8828L76.2969 30.0234L76.3203 30L76.2734 29.8359L76.25 29.8828ZM3.89844 29.9297L3.94531 29.7422L3.82812 29.625L3.89844 29.9297ZM76.9062 30.0703H76.8594L76.8828 29.9297L76.9531 29.9062L76.9062 30.0703ZM76.3203 30L76.2969 30.0234L76.25 29.8828L76.2734 29.8359L76.3203 30ZM3.94531 29.7422L3.89844 29.9297L3.82812 29.625L3.94531 29.7422ZM40.1797 29.5078L40.0859 29.7422L40.2969 29.6719L40.1797 29.5078ZM40.2969 29.6719L40.0859 29.7422L40.1094 29.6953L40.1797 29.5078L40.2969 29.6719ZM76.9062 28.9922L76.7891 29.3672L76.9531 29.1328L76.9062 28.9922ZM76.9531 29.1328L76.7891 29.3672L76.9062 28.9922L76.9531 29.1328ZM4.53125 27.5391L4.60156 27.7266L4.67188 27.4688L4.53125 27.5391ZM4.60156 27.7266L4.53125 27.5391L4.67188 27.4688L4.60156 27.7266ZM75.9453 27.3281C75.9302 27.333 75.9009 27.3184 75.875 27.3281V27.3516L75.9453 27.3281ZM76.8828 26.5781L76.9297 26.5547L76.9531 26.625L76.8828 26.6484L76.8359 26.7422V26.7656L76.625 26.8594L76.6016 26.8125L76.4375 26.9297L76.0625 27.0703L76.1094 27.1875L76.4375 26.9297L76.8359 26.7656L76.8125 26.8125L76.9062 26.7422L77 26.7188V26.6719L76.9062 26.7422L76.8359 26.7656V26.7422L76.8828 26.6484L76.9531 26.625L76.9297 26.5547L77.0703 26.4375L76.9062 26.5078L76.8828 26.5781ZM76.4141 26.9531L76.1094 27.1875L76.0625 27.0703L76.4375 26.9297L76.4141 26.9531ZM4.64844 26.7422V26.7891L4.67188 26.8359V26.8125L4.64844 26.7422ZM76.625 26.8594L76.4375 26.9297L76.5312 26.8594L76.6016 26.8125L76.625 26.8594ZM4.67188 26.8125V26.8359L4.64844 26.7891V26.7422L4.67188 26.8125ZM76.9062 26.7422L76.8125 26.8125L76.8359 26.7656L76.9062 26.7422ZM77 26.7188L76.9062 26.7422L77 26.6719V26.7188ZM76.9297 26.5547L76.8828 26.5781L76.9062 26.5078L77.0703 26.4375L76.9297 26.5547ZM41.3984 25.6875L41.0938 25.7344L41.0703 25.7812V25.8516L41 25.9688L41.1172 25.9453L41.1875 26.2266L41.3047 25.9219L41.375 25.7812H41.3516L41.4219 25.6875H41.3984ZM77.7266 26.1094H77.4219L77.375 26.2031L77.5156 26.1094H77.7969L77.7734 26.1562L77.9141 26.1328L77.7969 26.1094L77.8203 26.0391L77.7266 26.1094ZM41.4219 25.6875L41.3516 25.7812H41.375L41.1875 26.2266L41.1641 26.1562L41.3047 25.9219L41 25.9688L41.1172 25.7344L41.3984 25.6875H41.4219ZM77.5156 26.1094L77.375 26.2031L77.4219 26.1094H77.5156ZM41.1172 25.2188L40.6484 25.7109L40.6719 25.8281L40.8359 25.8047L40.7656 25.8984L40.6953 25.9219V25.8984L40.6484 25.9219H40.6953L40.7188 25.9922L40.7656 25.8984L40.9062 25.875L41.0469 25.7344L41 25.5703L40.8828 25.6875L41.1172 25.2188ZM77.9141 26.1328L77.7734 26.1562L77.7969 26.1094L77.9141 26.1328ZM41.1641 26.1562L41.1172 25.9453L41.3047 25.9219L41.1641 26.1562ZM77.7969 26.1094H77.7266L77.8203 26.0391L77.7969 26.1094ZM39.875 25.2188L40.1562 25.7578L40.0859 26.0391H40.1094L40.1797 25.7578H40.1562L40.1797 25.6875L39.9219 25.0547L39.875 25.2188ZM40.1094 26.0391H40.0859L40.1094 25.9453H40.1328L40.1094 26.0391ZM40.7188 25.9922L40.6953 25.9219L40.7656 25.8984L40.7188 25.9922ZM40.1797 25.7578L40.1328 25.9453H40.1094L40.1562 25.7578H40.1797ZM41.0469 25.7344L40.9062 25.875L40.7656 25.8984L40.8359 25.8047H40.7656L41 25.5703L41.0469 25.7344ZM40.9766 25.5L40.8828 25.6875L40.7656 25.8047L40.6719 25.8281L40.6484 25.7109L40.9531 25.3828L40.9766 25.5ZM41.0703 25.8281V25.7812L41.0938 25.7344H41.1172L41.0703 25.8281ZM40.1797 25.6875L40.1562 25.7578L39.875 25.2188L39.9219 25.0547L40.1797 25.6875ZM74.8203 25.3594L75.0078 25.3125L75.0312 25.3594L74.9375 25.4531L75.0547 25.4297L74.9844 25.2188H74.9609L74.8203 25.3594ZM40.9766 25.5L40.9531 25.3828L41.1172 25.2188L40.9766 25.5ZM75.0547 25.4297L74.9375 25.4531L75.0312 25.3594L75.0547 25.4297ZM74.8906 25.3359L74.8203 25.3594L74.9609 25.2188L74.8906 25.3359ZM75.0078 25.3125L74.8906 25.3359L74.9609 25.2188H74.9844L75.0078 25.3125ZM75.8047 24.0469C75.8442 24.0617 75.8784 24.0641 75.8984 24.0703H75.9453L75.7578 24.0234L75.8047 24.0469ZM4.25 22.4062L4.36719 21.9141L4.27344 21.5156L4.15625 21.9375L4.25 22.4062ZM4.36719 21.9141L4.25 22.4062L4.15625 21.9375L4.27344 21.5156L4.36719 21.9141ZM76.0156 20.9297L75.9453 21.1875L76.0156 21.0469V20.9297ZM76.0156 21.0469L75.9453 21.1875L76.0156 20.9297V21.0469ZM46.3203 20.1328L45.7812 20.1562L45.7344 20.2266L45.9453 20.1562H45.9688L45.8516 20.3438H45.6875L45.5 20.6484L45.4766 20.6719H45.5L45.4297 20.7891H45.5938L45.4297 21.0938L45.7109 20.9062V20.7891H45.5938L45.6641 20.6719H45.5V20.6484L46.3203 20.1328ZM45.7109 20.7891V20.9062L45.4297 21.0938L45.5938 20.7891H45.7109ZM47.5391 20.8125H47.5859L47.6328 20.7422L47.5391 20.8125ZM76.2969 20.8828L76.3438 20.9531L76.4375 20.7891L76.3438 20.7188L76.2969 20.8828ZM40.5781 20.7422L40.9297 20.4844L41.0234 20.5078L40.9297 20.6719L40.8828 20.7422H40.8359L40.7891 20.9062L40.9297 20.6719L41.0234 20.5078L40.8828 20.4844L40.9062 20.4141L40.5781 20.7422ZM46.4844 20.3672L46.1328 20.6484L45.9688 20.7891H45.9219V20.8125L45.9688 20.7891H46.3438L46.5312 20.6484L46.8594 20.3672H46.4844ZM76.4375 20.7891L76.3438 20.9531L76.2969 20.8828L76.3438 20.7188L76.4375 20.7891ZM40.8828 20.7422L40.7891 20.9062L40.8359 20.7422H40.8828ZM44.8203 20.3203L43.1562 20.2969L43.2734 20.2266L43.1328 20.2969L43.6484 20.3203L43.4844 20.4609L43.7188 20.3438L43.6953 20.3203H44.1641L44.1172 20.3672L44.2344 20.3203H44.75L44.1641 20.7656H44.6094L44.7031 20.6953H44.375L44.8203 20.3203ZM47.5859 20.8125H47.5391L47.6328 20.7422L47.5859 20.8125ZM43.1562 20.7891L43.2969 20.7422H43.2266L43.1562 20.7891ZM43.2969 20.7422L43.1562 20.7891L43.2266 20.7422H43.2969ZM46.3438 20.7891H45.9688L46.1328 20.6484H46.5312L46.3438 20.7891ZM45.5938 20.7891H45.4297L45.5 20.6719H45.6641L45.5938 20.7891ZM44.6094 20.7656H44.5391L44.7031 20.6953L44.6094 20.7656ZM44.7031 20.6953L44.5391 20.7656H44.1641L44.2578 20.6953H44.7031ZM40.6719 20.6719L40.6484 20.6953H40.625L40.7188 20.6016L40.6719 20.6719ZM44.8203 20.3203L44.375 20.6953H44.2578L44.75 20.3203H44.8203ZM40.8828 20.4844V20.5312L40.6719 20.6719L40.7188 20.6016L40.8359 20.4844H40.8828ZM76.3203 19.8984L76.25 19.6641L76.2266 19.7812L76.2734 19.9922L76.5547 19.4297L76.6719 19.4531L76.5547 19.8984L76.6719 20.2969V20.3203L76.6953 20.2969L76.5547 19.9219L76.6484 19.7578L76.7891 20.0625L76.9062 19.8047L76.8359 19.5469L76.7422 19.9688L76.6484 19.7578L76.7891 19.4766L76.4609 19.4297L76.5078 19.5234L76.3203 19.8984ZM45.8516 20.3438L45.7578 20.4844L45.5 20.6484L45.6875 20.3438H45.8516ZM46.6016 20.3672L46.1328 20.6484L46.4844 20.3672H46.6016ZM46.8594 20.3672L46.5312 20.6484H46.1328L46.6016 20.3672H46.8594ZM40.9297 20.4844L40.8828 20.5312V20.4844H40.9297ZM47.7031 20.3906H47.8438L47.9141 20.2734L47.7031 20.3906ZM40.8828 20.4844H40.8359L40.9062 20.4141L40.8828 20.4844ZM45.9922 20.3438L45.7578 20.4844L45.8281 20.3672L45.8516 20.3438H45.9922ZM35.1875 20.3672L35.2344 20.3438L35.0234 20.3672H35.1875ZM43.6953 20.3203L43.7188 20.3438L43.4844 20.4609L43.6484 20.3203H43.6953ZM35.5391 20.3906L35.5625 20.3203H35.4453L35.4219 20.3906H35.5391ZM35.5391 20.3906H35.4219L35.4453 20.3203H35.5625L35.5391 20.3906ZM47.8438 20.3906H47.7031L47.9141 20.2734L47.8438 20.3906ZM35.1875 20.3672H35.0234L35.2344 20.3438L35.1875 20.3672ZM44.2344 20.3203L44.1172 20.3672L44.1641 20.3203H44.2344ZM45.9922 20.3438H45.8516L45.9688 20.1562L46.3203 20.1328L45.9922 20.3438ZM41.2812 20.25H41.3984L41.4688 20.1562H41.4453L41.2812 20.25ZM35.6094 19.875L34.9766 19.8516L34.9062 19.8281L34.8125 19.8516H34.9766L35.1641 19.9453L35.3984 19.875H35.4922L35.4688 20.0156V20.0625L35.7031 19.9922H35.5859L35.6094 19.875ZM4.57812 20.2734L4.76562 20.1328L4.74219 19.9922L4.64844 20.0625L4.57812 20.2734ZM4.76562 20.1328L4.57812 20.2734L4.64844 20.0625L4.74219 19.9922L4.76562 20.1328ZM41.4688 20.1562L41.3984 20.25H41.2812L41.4453 20.1562H41.4688ZM48.2656 20.0391L48.1953 20.1328L48.3359 20.0625L48.2656 20.0391ZM45.8516 20.1797L45.7344 20.2266L45.7812 20.1562H45.9453L45.8516 20.1797ZM34.5547 20.1328L34.8359 20.1094V20.0625L34.5547 20.1328ZM40.7422 20.0625L40.8594 20.0391L40.9766 19.9219L40.7422 20.0625ZM34.8359 20.1094L34.5547 20.1328L34.7188 20.0859L34.8359 20.0625V20.1094ZM48.3359 20.0625L48.1953 20.1328L48.2656 20.0391L48.3359 20.0625ZM35.5859 20.0156L35.4688 20.0625V20.0391L35.5156 20.0156L35.5859 19.9688V20.0156ZM40.8594 20.0391L40.7422 20.0625L40.9766 19.9219L40.8594 20.0391ZM76.9062 19.8047L76.7891 20.0625L76.7422 19.9688L76.8359 19.5469L76.9062 19.8047ZM35.6094 19.875L35.5859 19.9688L35.5156 20.0156H35.4688L35.4922 19.875H35.6094ZM76.3203 19.8984L76.2734 19.9922L76.2266 19.7812L76.25 19.6641L76.3203 19.8984ZM35.3984 19.875L35.1641 19.9453L34.9766 19.8516L35.3984 19.875ZM45.6172 19.3594L45.2656 19.6641L45.6641 19.6406L45.5703 19.7109H45.5938L45.6641 19.6406H46.0625L46.0391 19.6875L46.1094 19.6406H46.3203L46.8125 19.6641L46.6719 19.6406H46.0625L46.1562 19.5L46.0156 19.4766L45.9922 19.6406H45.875L45.8984 19.5L45.7812 19.5703V19.5469L45.9219 19.4297L45.6172 19.3594ZM76.7891 19.4766L76.5547 19.9219V19.8984L76.6719 19.4531L76.7891 19.4766ZM44.9141 19.5469H44.6797L44.5391 19.6641H44.7969L44.9141 19.5469ZM34.9062 19.8281L34.9766 19.8516H34.8125L34.9062 19.8281ZM43.5312 19.6875H43.9297L44.1406 19.5L43.7891 19.4766L43.5312 19.6875ZM75.7812 19.3828L75.8281 19.2891H75.7578L75.7812 19.3828ZM47 19.6875L46.9297 19.7109H47L47.0469 19.6875H47ZM47.0469 19.6875L47 19.7109H46.9297L47 19.6875H47.0469ZM44.1406 19.5L43.9297 19.6875H43.5312L43.7891 19.4766L44.1406 19.5ZM46.0391 19.6875L46.0625 19.6406H46.1094L46.0391 19.6875ZM44.9141 19.5469L44.7969 19.6641H44.5391L44.6797 19.5469H44.9141ZM45.3594 19.5703L45.7344 19.5938L45.6641 19.6406L45.2656 19.6641L45.3594 19.5703ZM46.8125 19.6641L46.3203 19.6406H46.6719L46.8125 19.6641ZM45.7812 19.6406H45.6641L45.7109 19.6172L45.7812 19.5703V19.6406ZM45.875 19.6172V19.6406H45.7812V19.6172H45.875ZM46.0859 19.6172L46.0625 19.6406H45.9922V19.6172H46.0859ZM45.8984 19.5L45.875 19.6172H45.7812V19.5703L45.8984 19.5ZM46.1562 19.5L46.0859 19.6172H45.9922V19.5234L46.0859 19.4766L46.1562 19.5ZM45.7812 19.5703L45.7344 19.5938H45.7109L45.7812 19.5469V19.5703ZM45.8047 19.4062L45.7812 19.5469L45.7109 19.5938H45.6641L45.4062 19.5469L45.6172 19.3594L45.8047 19.4062ZM45.6641 19.5938L45.3594 19.5703L45.4062 19.5469L45.6641 19.5938ZM45.8047 19.4062L45.9219 19.4297L45.7812 19.5469L45.8047 19.4062ZM46.0859 19.4766L45.9922 19.5234L46.0156 19.4766H46.0859ZM76.5547 19.4297L76.5078 19.5234L76.4609 19.4297H76.5547ZM32.6094 18.9844L32.4453 19.3359L32.6094 19.2188L32.7266 18.9844H32.8203V18.9375H32.7969V18.9609H32.6328L32.6094 18.9844ZM29.0703 19.3125L29.3047 19.2891L29.2344 19.2656L29.0703 19.3125ZM75.8281 19.2891L75.7812 19.3828L75.7578 19.2891H75.8281ZM76.6953 19.1016V19.125L76.6016 19.3359H76.6953L76.7188 19.2422H76.6484L76.7188 19.0781L76.6953 19.1016ZM32.7266 18.9844L32.6094 19.2188L32.4453 19.3359L32.6094 18.9844H32.7266ZM76.7188 19.2422L76.6953 19.3359H76.6016L76.6484 19.2422H76.7188ZM29.3047 19.2891L29.0703 19.3125L29.2344 19.2656L29.3047 19.2891ZM48.5 19.1719L48.5938 19.1953L48.6406 19.125H48.5703L48.5 19.1719ZM49.4609 19.2188L49.7188 19.2891L49.7891 19.2422L49.4609 19.2188ZM49.7891 19.2422L49.7188 19.2891L49.4609 19.2188L49.7891 19.2422ZM52.4609 19.1484L52.4844 19.2188L52.625 19.1484H52.4609ZM75.5 19.1484L75.5234 19.2422H75.5469L75.7344 19.2188V19.1484L75.5 19.125V19.1484ZM75.5938 19.125L75.5469 19.2422H75.5234L75.5 19.1484V19.125H75.5938ZM75.5703 19.125L75.7344 19.1484V19.2188L75.5469 19.2422L75.5703 19.125ZM52.625 19.1484L52.4844 19.2188L52.5781 19.1484H52.625ZM52.5781 19.1484L52.4844 19.2188L52.4609 19.1484H52.5781ZM48.5703 19.1484H48.6172L48.5938 19.1953L48.5 19.1719L48.5703 19.125V19.1484ZM48.6406 19.125L48.6172 19.1484H48.5703V19.125H48.6406ZM48.6875 19.0547L48.7578 19.0078H48.7109L48.6875 19.0547ZM48.7578 19.0078L48.6875 19.0547L48.7109 19.0078H48.7578ZM32.7969 18.9609L32.75 18.9844H32.6094L32.6328 18.9609H32.7969ZM55.625 18.2344L55.5312 18.3047H55.5547L55.1094 18.6797H55.25L55.2031 18.7266L55.4375 18.6094L55.3438 18.5859L55.25 18.6797H55.1094L55.625 18.2344ZM75.7812 18.1172L75.8047 18.1875L75.875 18.4219L75.9922 18.1172L75.8984 17.7656L75.7812 18.1172ZM54.0547 18.5156L53.8672 18.6094H53.9141L54.0547 18.5156L54.2188 18.4453H54.1719L54.0547 18.5156ZM55.2969 18.6797L55.2031 18.7266L55.25 18.6797H55.2969ZM55.4375 18.6094L55.2969 18.6797H55.25L55.3438 18.5859L55.4375 18.6094ZM53.9141 18.6094H53.8672L54.0547 18.5156L53.9141 18.6094ZM19.6016 17.8828L19.6484 18.0234L19.7422 17.9062L19.6953 17.7656L19.6016 17.8828ZM52.0625 18.5156H52.2734L52.4609 18.3047L52.0625 18.5156ZM52.2734 18.5156H52.0859V18.4922L52.4609 18.3047L52.2734 18.5156ZM54.2188 18.4453L54.0547 18.5156L54.1719 18.4453H54.2188ZM75.9922 18.1172L75.875 18.4219L75.8047 18.1875L75.7812 18.1172L75.8984 17.7656L75.9922 18.1172ZM21.9219 18.1875H22.0391L21.9219 18.1172V18.1875ZM22.0391 18.1875H21.9219V18.1172L22.0391 18.1875ZM19.7422 17.9062L19.6484 18.0234L19.6016 17.8828L19.6953 17.7656L19.7422 17.9062ZM76.3438 18L76.3672 17.9297L76.2969 17.7891L76.3438 18ZM76.3672 17.9297L76.3438 18L76.2969 17.7891L76.3672 17.9297ZM55.6016 17.8828L55.8125 17.7422L55.6016 17.8359V17.8828ZM55.8125 17.7422L55.6016 17.8828V17.8359L55.8125 17.7422ZM40.3672 8.36719C39.7302 8.72937 39.0142 8.92528 38.2812 8.78906C38.196 8.82338 38.1165 8.8781 38.0234 8.90625C37.4709 9.07274 36.9724 9.03711 36.5469 8.95312C36.2007 9.34506 35.684 9.75293 34.9062 9.91406C34.4159 10.015 33.9898 9.95495 33.6172 9.86719C33.4613 9.94948 33.3074 10.0451 33.125 10.1016C32.9837 10.2014 32.8703 10.3505 32.7031 10.4297L31.2734 10.7109H31.0625C30.7706 10.6989 30.5221 10.5948 30.2891 10.5234C29.7916 11.0025 29.0741 11.4978 27.9922 11.4141C27.6575 11.3872 27.3597 11.2819 27.1016 11.1797C26.8526 11.3756 26.5614 11.5722 26.1875 11.6953C25.8998 11.79 25.623 11.7766 25.3672 11.7891C24.9229 12.1012 24.366 12.3797 23.5859 12.3516C23.4234 12.3455 23.2838 12.2618 23.1406 12.2344C22.9556 12.3515 22.7705 12.5035 22.5312 12.5859C22.1535 12.7157 21.7756 12.7388 21.4297 12.7266C21.1506 12.8807 20.8273 12.9742 20.4453 13.0312C20.6445 13.1301 20.8097 13.2398 20.9609 13.3594C21.5962 13.4017 22.1559 13.6086 22.6016 13.9453C22.9052 13.7814 23.3042 13.6193 23.7969 13.5703C24.4266 13.5077 24.9854 13.6932 25.4844 13.9453C25.7581 13.9247 26.0552 13.8993 26.375 13.9688C27.1089 14.1283 27.595 14.5258 27.9453 14.9062L27.9922 14.9297C28.5451 14.9846 29.0346 15.1755 29.4453 15.4688C29.5513 15.46 29.659 15.4189 29.7734 15.4219C29.8846 15.371 29.9938 15.2751 30.125 15.2344C30.7996 15.027 31.6464 15.0423 32.4453 15.4688C32.9507 15.7398 33.2682 16.1125 33.4766 16.4062C34.0717 16.4483 34.5247 16.6736 34.9062 16.9219C35.0801 16.8245 35.2476 16.6853 35.4688 16.6172C35.9649 16.466 36.5518 16.473 37.1562 16.6406C37.3416 16.6408 37.5372 16.6001 37.7422 16.6406C37.8672 16.6658 37.981 16.7442 38.0938 16.7812C39.1696 16.7884 39.839 17.3695 40.2734 17.8594C40.3906 17.8079 40.4992 17.7324 40.625 17.6953C40.8017 17.5941 40.9904 17.4843 41.2109 17.4141C41.5177 17.3166 41.8205 17.2774 42.1016 17.2734C42.5261 16.875 43.1413 16.4632 44.0234 16.4297C44.2481 16.4217 44.4632 16.4665 44.6562 16.5C44.8054 16.4055 44.9401 16.2695 45.125 16.1953C45.6968 15.9665 46.2357 15.9396 46.6953 16.0078C46.9954 15.8856 47.3262 15.7674 47.7266 15.75C47.7567 15.7487 47.7907 15.7504 47.8203 15.75C48.2575 15.6112 48.6788 15.5879 49.0625 15.6328C49.426 15.5212 49.8025 15.4847 50.1875 15.5156C50.3904 15.2992 50.6207 15.0624 50.9375 14.8828L51.0312 14.8359L51.125 14.7656L52.1328 14.4141C52.4575 14.3601 52.7657 14.3719 53.0469 14.4141C53.334 14.3253 53.6413 14.2222 54.0078 14.2266C54.2593 14.2297 54.4799 14.293 54.6875 14.3438C54.9904 14.0458 55.4231 13.7577 56 13.5938C57.0556 13.2946 57.934 13.61 58.3906 13.875C58.4771 13.8684 58.5613 13.8507 58.6484 13.8516L58.8359 13.7578L59.5391 13.3828L59.5625 13.3594C59.717 13.1948 59.937 13.0633 60.1719 12.9141C60.1 12.8695 60.0057 12.8474 59.9375 12.7969C59.8882 12.7601 59.8652 12.694 59.8203 12.6562C59.3518 12.6675 58.8271 12.6143 58.2734 12.3047C58.1352 12.2273 58.0348 12.1105 57.9219 12.0234C57.6284 12.1477 57.2651 12.2602 56.8438 12.2812L56.75 12.3047H56.6328C55.991 12.3362 55.4842 12.1384 55.0625 11.9062C54.8553 11.9366 54.6394 11.9958 54.4062 11.9766L53.2812 11.6484L53.0938 11.5547C52.6114 11.3129 52.2726 10.9786 52.0391 10.6875C51.969 10.6991 51.9022 10.7743 51.8281 10.7812C51.1466 10.8443 50.5929 10.6743 50.1406 10.4297C49.5574 10.3878 49.0041 10.2302 48.5469 9.89062C48.4613 9.82684 48.4097 9.72389 48.3359 9.65625C48.244 9.61371 48.161 9.56466 48.0781 9.51562C47.6183 9.59483 47.0925 9.61039 46.5547 9.42188C46.1912 9.29418 45.9029 9.09866 45.6641 8.90625C45.3363 8.83372 45.0491 8.72367 44.7969 8.57812C44.5812 8.61739 44.3516 8.68613 44.0938 8.67188L44.0234 8.64844C43.8906 8.70332 43.762 8.79534 43.6016 8.83594L42.125 8.85938L41.9375 8.8125C41.7417 8.76631 41.5869 8.62788 41.4219 8.55469C41.0237 8.55858 40.6796 8.4814 40.3672 8.36719ZM26.6094 17.6953C26.589 17.7276 26.5671 17.7576 26.5625 17.7656V17.7188L26.6094 17.6953ZM54.9688 17.5078L55.4141 17.625H55.4375L55.4141 17.3906L55.2969 17.3672L54.9688 17.5078ZM25.0156 17.6953L24.8984 17.7188H25.0859L25.0156 17.6953ZM25.0391 17.7188H24.8984L24.9688 17.6953L25.0391 17.7188ZM25.0859 17.7188H25.0391L24.9688 17.6953H25.0156L25.0859 17.7188ZM60.0078 17.4609H60.125L60.1719 17.4141H60.0781L60.0078 17.4609ZM55.4141 17.3906L55.4375 17.625H55.4141L54.9688 17.5078L55.2969 17.3672L55.4141 17.3906ZM24.1016 17.2734L24.125 17.4844V17.3203L24.1016 17.2734ZM60.1719 17.4141L60.125 17.4609H60.0078L60.0781 17.4141H60.1719ZM57.1484 16.9453L57.0547 17.0391H57.0781V17.0625L57.3828 17.0859L57.5 17.0156L57.1484 16.9453ZM57.5 17.0156L57.3828 17.0859L57.0781 17.0391L57.1719 16.9453L57.5 17.0156ZM57.1719 16.9453L57.0781 17.0391H57.0547L57.1484 16.9453H57.1719ZM61.4141 16.8281H61.4375L62.0938 16.2891H61.9766L61.4141 16.8281ZM61.4375 16.8281H61.4141L61.9766 16.2891H62.0938L61.4375 16.8281ZM64.9531 16.4297L65.0234 16.3828H64.9766L64.9531 16.4297ZM18.3359 16.4297L18.4531 16.4766L18.5703 16.3359H18.4297L18.3359 16.4297ZM18.4531 16.4766L18.3359 16.4297L18.4297 16.3359H18.5703L18.4531 16.4766ZM65.0234 16.3828L64.9531 16.4297L64.9766 16.3828H65.0234ZM63.6406 16.2656H63.7109L63.8047 16.2422H63.6875L63.6406 16.2656ZM15.5 16.3359L15.5938 16.3125L15.3359 16.1953L15.5 16.3359ZM15.5938 16.3125L15.5 16.3359L15.3359 16.1953L15.5938 16.3125ZM62.8672 15.7266L62.7266 15.8672L62.5625 16.0078L62.4453 15.9844L62.6094 15.8438L62.7734 15.8672L62.6328 15.8438L62.4453 15.9844L62.5625 16.0078L62.8672 15.7266H63.0078L63.1016 15.75L63.1484 15.7266H62.8672ZM63.7109 16.2656H63.6406L63.6875 16.2422H63.8047L63.7109 16.2656ZM63.5234 15.7266L63.8516 15.7031L63.8281 15.75L63.8984 15.7031L63.6875 15.7266L63.5469 15.6797L63.5234 15.7266ZM19.5078 15.2578L19.2969 15.4922L19.5547 15.375L19.6953 15.2109L19.5078 15.2578ZM63.1016 15.75L63.0078 15.7266H63.1484L63.1016 15.75ZM63.8281 15.75L63.8516 15.7031H63.8984L63.8281 15.75ZM18.0547 15.6562H17.75L17.8672 15.7031L18.0547 15.6562H18.2422L18.1719 15.6328L18.0547 15.6562ZM63.6406 15.7266H63.5234L63.5469 15.6797L63.6406 15.7266ZM18.0547 15.6562L17.8672 15.7031L17.75 15.6562H18.0547ZM18.2422 15.6562H18.0547L18.1719 15.6328L18.2422 15.6562ZM63.4766 15.4453H63.6875L63.8984 15.0938L63.4766 15.4453ZM19.5547 15.375L19.2969 15.4922L19.5078 15.2578L19.6953 15.2109L19.5547 15.375ZM61.9531 15.4453L62.2109 15.4922L62.2344 15.4688L62 15.3984L61.9531 15.4453ZM62.2344 15.4688L62.2109 15.4922L61.9531 15.4453L62 15.3984L62.2344 15.4688ZM63.6875 15.4453H63.4766L63.8984 15.0938L63.6875 15.4453ZM11.8438 15.0703L11.7266 15V15.0703H11.8438ZM11.8438 15.0703H11.7266V15L11.8438 15.0703ZM3.99219 13.0078L4.08594 12.9844L4.0625 12.8906L3.94531 12.9141L3.99219 13.0078ZM4.08594 12.9844L3.99219 13.0078L3.94531 12.9141L4.0625 12.8906L4.08594 12.9844ZM13.7188 10.9922L13.7422 10.9688L13.5547 10.875L13.4375 10.9922H13.7188L13.625 11.0625H13.9297L14 10.9922H13.7188ZM12.5234 10.5469L12.4766 10.5938L12.5234 10.5703L12.5938 10.5469H13.0625L12.7812 10.8516L12.5703 10.9922H12.9219L13.2969 10.5703H13.2734L12.7812 10.8516L13.0625 10.5469H12.5234ZM19.4141 9.49219L19.6719 9.51562L19.4141 9.75L19.1797 9.72656L19.0156 9.86719H19.8125L19.0625 10.1953H18.9688L18.8516 10.2891L19.0625 10.1953L19.4375 10.2422L19.8828 9.86719H19.2969L19.4141 9.75L19.8359 9.375H19.5312L19.4141 9.49219ZM14 10.9922L13.9297 11.0625H13.625L13.7188 10.9922H14ZM13.7422 10.9688L13.7188 10.9922H13.4375L13.5547 10.875L13.7422 10.9688ZM13.2969 10.5703L12.9219 10.9922H12.6641L12.7812 10.8516L13.2734 10.5703H13.2969ZM12.6641 10.9922H12.5703L12.7812 10.8516L12.6641 10.9922ZM16.6484 10.5L16.6719 10.5703L16.7422 10.5H16.6484ZM13.9062 10.5234L13.8828 10.5469H14.1641L14.2109 10.5L13.9062 10.5234ZM17.1406 10.5L17.0469 10.5469H17.0938L17.1406 10.5ZM11.9375 10.5L11.9141 10.5938H12.0312L12.0547 10.4297L11.9375 10.5ZM12.0312 10.5938H11.9141L11.9375 10.5L12.0547 10.4297L12.0312 10.5938ZM12.5938 10.5469L12.5234 10.5703H12.5L12.5234 10.5469H12.5938ZM14.6094 10.3828L14.375 10.5469H14.4453L14.6094 10.3828L14.7734 10.2656H14.7266L14.6094 10.3828ZM16.7422 10.5L16.6719 10.5703L16.6484 10.5H16.7422ZM14.4453 10.5469H14.375L14.4453 10.5H14.4922L14.4453 10.5469ZM14.1641 10.5469H13.9297L13.9766 10.5234L14.2109 10.5L14.1641 10.5469ZM13.9297 10.5469H13.8828L13.9062 10.5234H13.9766L13.9297 10.5469ZM17.0938 10.5469H17.0469L17.1406 10.5L17.0938 10.5469ZM14.4922 10.5H14.4453L14.6094 10.3828L14.4922 10.5ZM14.7734 10.2656L14.6094 10.3828L14.7266 10.2656H14.7734ZM19.0625 10.1953L18.8516 10.2891L18.9688 10.1953H19.0625ZM21.2188 9.28125L21.1484 9.32812H21.2656L21.1484 9.42188L20.9141 9.5625H20.8906L20.8672 9.58594L20.9141 9.5625H21.0078L20.7266 9.84375H21.2422L21.2188 9.86719L21.2891 9.84375H20.7266L21.1484 9.42188L21.3594 9.32812L21.2891 9.60938H21.4062L21.5 9.32812H21.6172H21.5703H21.3594L21.4062 9.30469L21.4766 9.28125H21.2188L21.3828 9.14062L21.1016 9.25781H21.0312L21.0078 9.28125H21.2188ZM19.4375 10.2422L19.0625 10.1953L19.8125 9.86719H19.8828L19.4375 10.2422ZM64.7891 10.1953L64.9766 10.1719H64.7422L64.7891 10.1953ZM64.9766 10.1719L64.7891 10.1953L64.7422 10.1719H64.9766ZM17.8203 9.89062L17.6562 10.0312L17.5625 10.1016L17.8906 9.89062H17.8203ZM18.3594 9.9375L18.5234 9.89062H18.4297L18.3594 9.9375ZM17.6797 10.0312H17.6562L17.8203 9.89062H17.8906L17.6797 10.0312ZM16.3672 9.53906L16.4844 9.82031L16.5781 9.77344L16.4609 9.46875L16.3672 9.53906ZM18.3594 9.9375L18.4297 9.89062H18.5234L18.3594 9.9375ZM19.4141 9.75L19.2969 9.86719H19.0156L19.1797 9.72656L19.4141 9.75ZM18.7578 9.30469L18.8516 9.23438L18.7109 9.30469L18.6641 9.35156L18.6172 9.375H18.8281L18.9453 9.39844L19.0391 9.30469H18.7578ZM16.5781 9.77344L16.4844 9.82031L16.3672 9.53906L16.4609 9.46875L16.5781 9.77344ZM20.5625 9.51562H20.6094L20.6797 9.46875L20.5625 9.51562ZM21.4062 9.60938H21.2891L21.3594 9.32812H21.5L21.4062 9.60938ZM21.0078 9.5625H20.9141L21.1484 9.42188L21.0078 9.5625ZM19.7656 9.42188L19.6719 9.51562L19.4141 9.49219L19.4609 9.44531L19.5547 9.39844L19.7656 9.42188ZM20.6094 9.51562H20.5625L20.6797 9.46875L20.6094 9.51562ZM19.5547 9.39844L19.4609 9.44531L19.5078 9.39844H19.5547ZM18.3125 9.25781L18.2656 9.28125L18.4297 9.30469L18.4766 9.25781H18.3125ZM19.7656 9.42188L19.5078 9.39844L19.5312 9.375H19.8359L19.7656 9.42188ZM21.1484 9.42188L21.2656 9.32812H21.3594L21.1484 9.42188ZM18.7109 9.35156L18.6641 9.375H18.6172L18.6641 9.35156H18.7109ZM18.8281 9.375H18.6641L18.7109 9.35156L18.8281 9.375ZM18.7578 9.30469L19.0156 9.32812L18.9688 9.375H18.8281L18.6641 9.35156L18.7109 9.30469H18.7578ZM21.4062 9.30469H21.3828L21.3594 9.32812H21.1484L21.2188 9.28125H21.4766L21.4062 9.30469ZM18.4766 9.25781L18.4297 9.30469L18.2656 9.28125L18.3125 9.25781H18.4766ZM16.0859 8.92969V8.97656L16.6016 9.02344L16.6484 9L16.1328 8.92969V8.88281L16.0859 8.92969ZM20.0234 9.1875L20.1172 9.14062H20.0703L20.0234 9.1875ZM21.1016 9.25781L21.0781 9.28125H21.0078L21.0312 9.25781H21.1016ZM21.2188 9.28125H21.0781L21.3828 9.14062L21.2188 9.28125ZM20.1172 9.14062L20.0234 9.1875L20.0703 9.14062H20.1172ZM23.9844 8.76562L23.9141 8.8125H24.1719L24.2891 8.76562H23.9844ZM21.6641 8.67188L21.6172 8.8125L21.5 8.83594L21.5469 8.78906H21.4766L21.4062 8.83594L21.6172 8.8125L21.5938 8.95312L21.7578 8.8125L21.7344 8.88281L21.8516 8.76562H21.9922V8.8125H22.3672L22.5312 8.71875H22.3203L22.2031 8.76562H22.0859V8.69531H21.9453L21.8516 8.76562H21.7578L21.8047 8.67188H21.6641ZM18.9219 8.85938H19.2266L19.2734 8.8125H18.9688L18.9219 8.85938ZM16.1328 8.92969L16.6484 9L16.6016 9.02344L16.1797 8.97656H16.0859V8.92969L16.1328 8.88281V8.92969ZM21.5938 8.95312L21.6172 8.8125H21.7578L21.5938 8.95312ZM21.2422 8.64844L20.9141 8.78906H21.1016L21.2656 8.64844H21.2422ZM21.7344 8.88281L21.7578 8.8125H21.8047L21.7344 8.88281ZM19.2266 8.85938H18.9219L18.9688 8.8125H19.2734L19.2266 8.85938ZM21.5 8.8125V8.83594H21.4062L21.4766 8.78906H21.5234L21.5 8.8125ZM21.7578 8.8125H21.6172L21.6406 8.76562H21.7578V8.8125ZM21.8047 8.8125H21.7578L21.8047 8.76562H21.8516L21.8047 8.8125ZM22.1094 8.8125H21.9922V8.76562H22.2031L22.1094 8.8125ZM22.3672 8.8125H22.1094L22.2031 8.76562H22.4375L22.3672 8.8125ZM24.1719 8.8125H23.9141L23.9844 8.76562H24.2891L24.1719 8.8125ZM21.7578 8.8125V8.76562H21.8047L21.7578 8.8125ZM21.2656 8.64844L21.1016 8.78906H20.9141L21.2422 8.64844H21.2656ZM21.8047 8.67188L21.7578 8.76562H21.6406L21.6641 8.67188H21.8047ZM22.0859 8.69531V8.76562H21.8516L21.875 8.74219L21.9453 8.69531H22.0859ZM22.5312 8.71875L22.4375 8.76562H22.2031L22.3203 8.71875H22.5312ZM54.7109 8.625L54.6641 8.60156L54.6406 8.64844L54.7109 8.625ZM54.7109 8.625L54.6406 8.64844L54.6641 8.60156L54.7109 8.625ZM24.8516 7.96875H25.1562L25.4844 7.66406L25.8828 7.47656L25.1094 8.32031L25.5547 8.10938L25.6953 7.94531H25.8828L25.8594 8.01562L25.4844 8.4375H26.4922L26.6797 7.94531H25.9297L25.9766 7.875L26.0469 7.85156L26.0703 7.78125L25.9766 7.875L25.8594 7.94531H25.4375L25.8828 7.47656L25.4844 7.66406L25.7188 7.45312H25.4141L24.8516 7.96875ZM21.8516 8.4375L21.9219 8.39062V8.34375H21.875L21.8516 8.4375ZM25.7188 8.4375H25.4844L25.8594 8.01562L25.7188 8.4375ZM25.9766 8.4375H25.7188L25.8594 8.01562L25.9297 7.94531H26.1406L25.9766 8.4375ZM26.2109 8.4375H25.9766L26.1406 7.94531H26.3984L26.2109 8.4375ZM26.3516 8.4375H26.2109L26.3984 7.94531H26.5391L26.3516 8.4375ZM26.4922 8.4375H26.3516L26.5391 7.94531H26.6797L26.4922 8.4375ZM21.9219 8.39062L21.8516 8.4375L21.875 8.34375H21.9219V8.39062ZM22.0156 8.29688H22.0391L22.1094 8.25L22.0156 8.29688ZM25.5547 8.10938L25.1094 8.32031L25.4375 7.94531H25.6953L25.5547 8.10938ZM22.0391 8.29688H22.0156L22.0391 8.27344L22.1094 8.25L22.0391 8.29688ZM25.8594 8.01562L25.8828 7.94531H25.9297L25.8594 8.01562ZM27.9922 7.92188L27.9219 7.96875L27.9922 7.99219L28.1328 7.92188H27.9922ZM27.9922 7.99219L27.9219 7.96875L27.9922 7.92188H28.1328L27.9922 7.99219ZM33.4062 7.00781L33.1016 7.38281H33.3125L33.6641 7.00781H33.4062ZM25.7188 7.45312L25.1562 7.96875H24.8516L25.4141 7.45312H25.7188ZM25.9297 7.94531H25.8828L25.9062 7.92188L25.9766 7.875L25.9297 7.94531ZM55.0625 7.52344L55.1094 7.47656L54.875 7.38281L54.5703 7.52344H55.0625ZM26.0469 7.85156L25.9766 7.875L26.0703 7.78125L26.0469 7.85156ZM56.4922 7.61719V7.75781L57.0078 7.64062L56.4922 7.61719ZM56.6094 7.61719V7.73438L56.4922 7.75781V7.61719H56.6094ZM57.0078 7.64062L56.6094 7.73438V7.61719L57.0078 7.64062ZM30.2656 7.35938L30.0312 7.52344L30.2422 7.66406L30.4766 7.47656L30.2656 7.35938ZM30.125 7.45312L30.4766 7.47656L30.2422 7.66406L30.0312 7.52344L30.125 7.45312ZM31.1797 7.3125V7.40625L31.25 7.3125H31.1797ZM25.9297 6.98438L26.2344 7.00781L26.1875 7.03125L26.1641 7.10156V7.125L26.1172 7.24219L26.0469 7.45312H26.3047L26.2812 7.54688L26.375 7.45312L26.8672 7.42969L26.75 7.38281L26.7266 7.45312H26.0469L26.1172 7.24219L26.1641 7.125L26.1875 7.10156H26.1641L26.1875 7.03125L26.2344 7.00781H26.1875L26.2812 6.9375L26.0703 6.84375L25.9297 6.98438ZM51.2188 7.5L51.2656 7.52344L51.4062 7.47656L51.3594 7.45312L51.2188 7.5ZM55.0625 7.52344H54.5703L54.875 7.38281L55.1094 7.47656L55.0625 7.52344ZM26.2812 7.54688L26.3047 7.45312H26.375L26.2812 7.54688ZM51.4062 7.47656L51.2656 7.52344L51.2188 7.5L51.3594 7.45312L51.4062 7.47656ZM30.4766 7.47656L30.125 7.45312L30.2656 7.35938L30.4766 7.47656ZM26.8672 7.42969L26.7266 7.45312L26.75 7.38281L26.8672 7.42969ZM31.25 7.3125L31.1797 7.40625V7.3125H31.25ZM33.6641 7.00781L33.3125 7.38281H33.2891L33.6172 7.00781H33.6641ZM33.6172 7.00781L33.2891 7.38281H33.1016L33.4062 7.00781H33.6172ZM31.2969 7.24219L31.4141 7.10156L31.2969 7.19531V7.24219ZM31.2969 7.24219V7.19531L31.4141 7.10156L31.2969 7.24219ZM32.4922 6.89062L32.375 6.96094L31.625 6.9375L32.0703 7.03125L32.1875 7.05469L32.2578 7.03125L32.3047 6.96094H32.4688C32.4789 6.9331 32.5074 6.91555 32.5156 6.89062H32.4922ZM32.3047 6.96094L32.2578 7.03125L32.1875 7.05469L32.0703 7.03125L32.1406 6.96094H32.3047ZM32.1406 6.96094L32.0703 7.03125L31.625 6.9375L32.1406 6.96094ZM26.1875 6.98438H25.9297L26.0703 6.84375L26.2812 6.9375L26.1875 6.98438ZM34.3438 6.82031H34.4375L34.5078 6.65625L34.3438 6.82031ZM32.4688 6.96094H32.375L32.4922 6.89062H32.5156L32.4688 6.96094ZM31.3438 6.91406L31.3906 6.86719H31.2969L31.2266 6.91406H31.3438ZM31.3906 6.86719L31.3438 6.91406H31.2266L31.2969 6.86719H31.3906ZM49.625 6.89062L49.6953 6.86719L49.5547 6.79688L49.625 6.89062ZM49.6953 6.86719L49.625 6.89062L49.5547 6.79688L49.6953 6.86719ZM31.4375 6.79688L31.5547 6.67969L31.4375 6.75V6.79688ZM34.4375 6.82031H34.3438L34.5078 6.65625L34.4375 6.82031ZM31.4375 6.79688V6.75L31.5547 6.67969L31.4375 6.79688ZM32.6562 6.375L32.3984 6.51562L32.5156 6.32812H32.6797L32.6562 6.375ZM33.7109 6.375L33.8047 6.28125H33.875L33.7109 6.375ZM32.5156 6.32812H32.4453L32.5625 6.23438L32.5156 6.32812ZM32.5625 6.23438L32.8906 6L32.6797 6.32812H32.5156L32.5625 6.23438ZM33.9688 6.28125H33.875L34.0156 6.21094L33.9688 6.28125ZM34.0156 6.21094L34.4141 6L34.2969 6.16406L34.1797 6.28125H33.9688L34.0156 6.21094ZM34.7188 6.16406L34.6719 6.25781H34.6016L34.7188 6.16406ZM32.4453 6.32812H32.5156L32.3984 6.51562L32.6562 6.375L32.8906 6L32.4453 6.32812ZM33.875 6.28125H33.8047L33.7109 6.375L33.875 6.28125H34.1797L34.2969 6.16406L34.4141 6L33.875 6.28125ZM33.2656 5.64844L33.1953 5.76562L33.3125 5.69531C33.3054 5.68594 33.2838 5.67053 33.2656 5.64844ZM34.8594 5.76562L34.9062 5.69531H35L34.8594 5.76562ZM33.2656 5.69531V5.64844L33.3125 5.69531L33.1953 5.76562L33.2656 5.69531ZM45.4531 5.25L45.125 5.32031L45.0078 5.34375H45.0312L45.125 5.32031H45.5V5.29688L45.4766 5.27344L45.5 5.32031H45.4531V5.25ZM35.1406 5.39062L34.9062 5.64844L35.0234 5.36719L35.1406 5.39062ZM41.5859 5.53125V5.25H41.4922V5.53125H41.5859ZM33.0078 5.03906L33.4297 5.10938L33.5703 4.85156L33.1953 4.80469L33.0078 5.03906ZM41.5859 5.25V5.53125H41.4922V5.25H41.5859ZM35.5859 5.17969L35.3516 5.41406L35.1406 5.39062L35.3516 5.15625L35.5859 5.17969ZM45.4531 5.32031H45.125L45.4531 5.25V5.32031ZM33.5703 4.85156L33.4297 5.10938L33.2656 5.08594L33.4297 4.82812L33.5703 4.85156ZM33.4297 4.82812L33.2656 5.08594L33.0078 5.03906L33.1953 4.80469L33.4297 4.82812ZM39.3125 4.66406V4.73438L39.4062 4.61719L39.3125 4.66406ZM47.2344 4.89844V4.80469L47.0703 4.94531L47.2344 4.89844ZM39.8516 4.40625L39.5 4.57031H39.6641L39.8516 4.40625ZM47.1406 4.92188L47.0703 4.94531L47.1406 4.875V4.92188ZM47.2344 4.89844L47.1406 4.92188V4.875L47.2344 4.80469V4.89844ZM37.7188 4.71094L37.4375 4.85156H37.4141V4.875L37.8359 4.64062H37.7656L37.7188 4.71094ZM39.4062 4.61719L39.3125 4.73438V4.66406L39.4062 4.61719ZM37.8359 4.64062L37.7188 4.71094L37.7656 4.64062H37.8359ZM39.6641 4.57031H39.5L39.8516 4.40625L39.6641 4.57031ZM35.5859 5.17969L35.3516 5.15625L35.1406 5.39062L35.0234 5.36719L34.9062 5.64844L34.8828 5.69531H34.9062L34.7188 6.11719L34.6016 6.25781H34.6719L34.8594 5.76562L35 5.69531H34.9062V5.64844L35.1406 5.39062L35.3516 5.41406L35.5859 5.17969Z" fill="#E6C54C"/>
</svg>
