<svg width="81" height="53" viewBox="0 0 81 53" fill="none" xmlns="http://www.w3.org/2000/svg">
<path d="M40.8125 1.05469C41.003 0.997861 41.1944 0.886981 41.4219 0.867188H41.6562L42.9688 1.03125L42.9922 1.05469C43.5834 1.00149 44.2601 1.07346 44.9141 1.5C45.0771 1.60703 45.1645 1.77988 45.2891 1.89844C45.6674 1.96343 46.0044 2.08377 46.3203 2.27344C46.8072 2.10468 47.4051 2.00652 48.1016 2.20312C48.3296 2.1979 48.5705 2.14618 48.8281 2.20312C49.5096 2.3558 49.9711 2.73296 50.3047 3.07031C50.9881 2.90089 51.8378 2.82838 52.6719 3.375C52.6994 3.39308 52.7158 3.42678 52.7422 3.44531C53.8991 3.33903 54.8394 3.88962 55.3672 4.52344L55.3906 4.57031C55.4359 4.59802 55.4889 4.61165 55.5312 4.64062C55.5934 4.64475 55.6551 4.65579 55.7188 4.66406C55.9262 4.63227 56.1367 4.65176 56.3516 4.66406C56.7939 4.46998 57.4079 4.2834 58.1562 4.42969C58.4462 4.48665 58.7041 4.57527 58.9297 4.6875C58.9974 4.68201 59.0696 4.66505 59.1406 4.66406C59.7943 4.6556 60.3185 4.85613 60.7344 5.10938C60.9594 5.1636 61.1939 5.20775 61.4141 5.32031C61.6153 5.42413 61.7793 5.57283 61.9297 5.69531C62.2 5.76421 62.4766 5.85362 62.7266 6C62.9249 6.11685 63.0753 6.26706 63.2188 6.39844C63.3739 6.40379 63.5181 6.46502 63.6641 6.49219C64.0278 6.38815 64.4605 6.32282 64.9531 6.39844C65.3316 6.45728 65.6628 6.57866 65.9375 6.72656C66.4015 6.54172 67.0055 6.42385 67.7188 6.58594C68.3458 6.72879 68.7928 7.0397 69.125 7.35938C69.7722 7.21873 70.4639 7.25438 71.1172 7.54688C71.5909 7.63562 72.0309 7.80088 72.4062 8.08594H72.4297C73.1739 8.02799 73.7551 8.2512 74.2109 8.53125C74.7052 8.44452 75.2558 8.41571 75.8047 8.625C75.8355 8.62211 75.867 8.62698 75.8984 8.625L77.3047 8.85938L77.4922 8.95312L78.5234 9.65625C78.7145 9.85722 78.8228 10.078 78.9219 10.2422L80 10.5V11.7656C80.1064 11.9476 80.2286 12.1563 80.3047 12.3984C80.4136 12.7491 80.4153 13.1031 80.3984 13.4531C80.4121 13.5139 80.4117 13.5769 80.4219 13.6406C80.5402 13.8691 80.6417 14.1337 80.7031 14.4375C80.7757 14.8 80.7675 15.1404 80.7266 15.4453C81.0187 16.4935 80.6457 17.3322 80.2578 17.9062C80.5381 18.282 80.8503 18.8042 80.8906 19.5234C81.1101 20.2767 80.9546 20.9341 80.7266 21.4922C80.8714 21.8722 80.9771 22.3086 80.9375 22.8047C80.9188 23.0391 80.8338 23.2404 80.7734 23.4375C80.8144 23.8726 80.7786 24.2561 80.6562 24.6328C80.862 25.3165 80.8642 26.0441 80.5859 26.6953L80.5391 26.7422C80.5785 26.9767 80.5622 27.2235 80.5391 27.4922C80.6298 27.7756 80.7325 28.091 80.7266 28.4531C80.7229 28.6425 80.619 28.8022 80.5859 28.9688C80.8243 29.5177 80.9715 30.1496 80.7734 30.8906C80.8305 31.2192 80.8511 31.5913 80.7734 31.9922C80.7264 32.2313 80.6243 32.4324 80.5391 32.625C80.5392 32.7289 80.526 32.8272 80.5156 32.9297C80.8369 33.525 81.1147 34.3105 80.8203 35.25C80.7861 35.3589 80.6753 35.434 80.6328 35.5312C80.6687 35.7557 80.7149 35.9611 80.7031 36.1641C80.7438 36.3343 80.8093 36.5074 80.8203 36.7031C80.8264 36.8145 80.7782 36.927 80.7734 37.0312C80.8483 37.2452 80.9352 37.4722 80.9609 37.7344C81.0846 39 80.3974 39.7902 79.9766 40.1953C79.9925 40.3477 80.0808 40.5102 80.0703 40.6875C80.026 41.409 79.6886 42.1194 79.0859 42.6797C78.8962 43.0635 78.4059 43.8124 77.375 44.1797C77.1676 44.3783 76.9127 44.5849 76.5781 44.7422C76.1539 44.9406 75.7188 44.9971 75.3125 45C74.9224 45.1213 74.5169 45.2105 74.0938 45.1641C73.907 45.143 73.7351 45.0695 73.5781 45.0234C72.6448 45.1704 71.9378 44.8647 71.5156 44.6016C71.398 44.6484 71.269 44.6388 71.1406 44.6719L71.1172 44.7188C71.0783 44.7459 71.0169 44.7395 70.9766 44.7656C70.9456 44.8345 70.9681 44.9295 70.9297 45C70.7542 45.3209 70.3479 45.9383 69.5469 46.3125C68.8359 46.6431 68.1462 46.5879 67.5781 46.4531C67.4705 46.4741 67.3635 46.4909 67.25 46.5C67.1714 46.5299 67.1009 46.5926 67.0156 46.6172C66.6545 46.7211 66.3144 46.7286 66.0078 46.7109C65.9627 46.7382 65.9385 46.8028 65.8906 46.8281L64.5547 47.1562H64.1094C63.9383 47.3097 63.7455 47.4722 63.5 47.6016C63.1844 47.7662 62.8455 47.8812 62.5156 47.9297L61.5312 47.9062H61.4141L61.3438 47.8828C61.2788 47.9018 61.2249 47.9614 61.1562 47.9766C60.6643 48.0847 60.221 48.0362 59.8438 47.9531C59.6093 48.297 59.2265 48.7742 58.5781 49.0781C58.0791 49.311 57.5729 49.3354 57.1016 49.3125C56.8346 49.506 56.5332 49.7198 56.1406 49.8281C55.5574 49.9877 55.0146 49.9166 54.5703 49.8047C54.1254 49.8236 53.7475 49.7112 53.4219 49.5938C53.2185 49.847 52.9944 50.1528 52.625 50.3672C51.9619 50.7517 51.3064 50.8102 50.75 50.7422C50.2513 50.803 49.8169 50.7626 49.4609 50.6484C48.98 51.0939 48.2909 51.5095 47.375 51.4922C47.2429 51.4894 47.1198 51.416 47 51.3984C46.731 51.636 46.3998 51.8852 45.9453 52.0312C45.2247 52.2621 44.6132 52.1702 44.1172 52.0078C43.964 52.0798 43.824 52.1947 43.6484 52.2422L42.5469 52.3359L42.4297 52.3125H42.3125C42.1957 52.302 42.0921 52.2397 41.9844 52.2188C41.7056 52.2877 41.3625 52.3266 40.9531 52.2891C40.5898 52.4319 40.1785 52.5968 39.6875 52.5703L38.4453 52.2422L38.2578 52.1484C38.2131 52.1261 38.1831 52.0783 38.1406 52.0547C37.9578 52.0185 37.7447 52.0615 37.5547 51.9844C37.3358 51.8951 37.1843 51.7254 37.0156 51.6094C36.807 51.6039 36.6143 51.5804 36.4297 51.5391C35.8944 51.5835 35.2822 51.5064 34.6719 51.1641L34.4844 51.0703C34.4008 51.0234 34.3481 50.9339 34.2734 50.8828C34.0449 50.885 33.8034 50.9204 33.5469 50.8594C33.3623 50.8149 33.211 50.6936 33.0547 50.625C32.7959 50.7132 32.4884 50.8049 32.1406 50.8125C31.8857 50.8171 31.6647 50.6999 31.4375 50.6484C31.3901 50.6573 31.3463 50.7119 31.2969 50.7188C30.5774 50.8174 29.9638 50.6061 29.4453 50.3203C29.3812 50.3168 29.3227 50.2577 29.2578 50.25C28.9178 50.2986 28.5291 50.3299 28.1094 50.2266C27.3167 50.0294 26.8236 49.5495 26.5156 49.1719C26.3519 49.177 26.1803 49.2439 26 49.2188C25.5711 49.1577 25.2086 48.9794 24.8984 48.7969C24.6272 48.8043 24.3677 48.7325 24.0781 48.6562C23.6201 48.8212 23.0612 48.955 22.3906 48.7969C21.6674 48.6238 21.1643 48.2138 20.8438 47.8594L20.5391 47.9766H20.4453L20.3984 48L20.2812 48.0234C19.5399 48.2303 18.7596 48.138 18.0781 47.7891C18.0171 47.7863 17.9538 47.8191 17.8906 47.8125C17.2147 47.7414 16.7225 47.4607 16.3438 47.1562C16.0934 47.1014 15.8545 47.0753 15.6406 46.9688C14.8129 46.8313 14.2679 46.4312 13.9062 46.0078C13.6317 46.0554 13.3278 46.0755 12.9922 46.0312C12.8779 46.0159 12.7689 45.9631 12.6641 45.9375C12.3717 46.0447 12.041 46.1623 11.6562 46.1719L10.7188 46.0547L10.6016 46.0312L10.5078 45.9844L10.2969 45.9375L10.1797 45.8906L10.0859 45.8672C9.67874 45.7488 9.37049 45.5321 9.10156 45.3281C8.86865 45.3923 8.62077 45.4908 8.32812 45.4922C7.55038 45.4948 6.95649 45.1655 6.5 44.8125C6.12467 44.8874 5.69369 44.9478 5.21094 44.8359C4.10917 44.5804 3.54295 43.8206 3.26562 43.3594H3.24219C3.06602 43.2756 2.61623 43.0437 2.21094 42.5625C1.71195 41.9684 1.31325 40.9886 1.60156 39.8672C1.40474 39.4611 1.22918 38.9725 1.25 38.3906C1.26701 37.9257 1.40017 37.5312 1.55469 37.1953C1.52114 37.1241 1.44341 37.062 1.41406 36.9844C1.0369 35.9793 1.34022 35.1176 1.69531 34.4766C1.65518 34.2976 1.65369 34.1157 1.64844 33.9141C1.32601 33.444 0.971456 32.761 1.08594 31.8516C1.1033 31.7137 1.19436 31.6 1.22656 31.4766C0.977105 30.7474 1.08821 30.0681 1.32031 29.4609C1.32346 29.4082 1.26745 29.3509 1.27344 29.2969L1.29688 29.2734C0.984852 28.5726 0.824486 27.751 1.15625 26.9062C1.06066 26.4611 1.07285 26.0506 1.15625 25.6641C1.14337 25.4644 1.13465 25.2796 1.15625 25.1016C1.11083 24.7902 1.11337 24.466 1.17969 24.1172C0.926764 23.5836 0.743785 22.9148 0.96875 22.0781L0.992188 21.9609L1.03906 21.8672L1.50781 20.8359L1.55469 20.7891C1.60761 20.6297 1.5922 20.447 1.67188 20.2969C1.71512 20.2154 1.78907 20.1581 1.83594 20.0859C1.73952 19.8884 1.61086 19.685 1.55469 19.4297C1.44727 18.9411 1.49995 18.4856 1.60156 18.0703C1.40294 17.7156 1.25136 17.2947 1.22656 16.7578C1.12529 16.4296 1.04983 16.0607 1.08594 15.6328L0.921875 14.7422C0.890735 13.8687 1.25825 13.1298 1.64844 12.6562C1.75336 12.5291 1.89237 12.4493 2 12.3516V10.5L3.54688 10.125C3.65484 10.0449 3.80048 9.99315 3.94531 9.91406C4.13493 9.62281 4.48464 9.19124 5.04688 8.88281C5.35351 8.71511 5.68035 8.60923 6.00781 8.55469H6.96875L7.08594 8.57812H7.22656C7.41121 8.55036 7.60573 8.52378 7.8125 8.53125H7.88281C8.12603 8.28811 8.46568 8.0511 8.89062 7.875C9.40561 7.66289 9.90302 7.62123 10.3438 7.66406C10.6218 7.44837 10.9678 7.24591 11.3984 7.125L11.4922 7.10156L11.5859 7.05469L12.7812 6.96094C12.9845 6.98304 13.1679 7.04739 13.3438 7.10156C13.4062 7.09206 13.4661 7.06052 13.5312 7.05469C13.6439 7.04469 13.7541 7.07623 13.8594 7.07812L14.375 6.9375C14.6023 6.74514 14.9012 6.6009 15.2422 6.46875C16.0255 5.93316 16.9955 5.77496 17.8906 6.04688C17.9944 6.0785 18.0788 6.14866 18.1719 6.1875C18.5909 5.85721 19.141 5.55455 19.9062 5.53125C20.5411 5.51209 21.0424 5.72014 21.4297 5.92969C21.5891 5.79661 21.7545 5.68006 21.9453 5.57812C21.9711 5.5431 21.9874 5.49598 22.0156 5.46094C22.2623 5.15498 22.6731 4.78463 23.2578 4.54688C23.8631 4.30279 24.4807 4.27223 25.0156 4.38281C25.0457 4.38914 25.0801 4.42261 25.1094 4.42969C25.1736 4.38043 25.2253 4.31182 25.2969 4.26562C25.965 3.83463 26.7617 3.68475 27.5 3.82031C27.5608 3.83169 27.6068 3.89979 27.6641 3.91406C27.946 3.64099 28.3207 3.35563 28.8359 3.1875C28.9082 3.16418 28.9992 3.18148 29.0703 3.16406C29.4997 2.93882 30.0234 2.77727 30.6406 2.8125C31.3961 2.85676 31.9307 3.20709 32.2578 3.44531C32.3281 3.34895 32.3549 3.21376 32.4453 3.11719C32.8646 2.66961 33.459 2.32345 34.1562 2.20312C34.2057 2.17928 34.2444 2.13129 34.2969 2.10938C35.0674 1.78889 35.7834 1.8941 36.3359 2.0625C36.3908 2.0542 36.4428 2.02138 36.5 2.01562C36.5852 2.00723 36.6766 2.04042 36.7578 2.03906C36.9711 1.75929 37.2852 1.45886 37.7188 1.21875C38.3376 0.877453 38.9585 0.85729 39.5 0.914062C39.9879 0.846352 40.423 0.937852 40.8125 1.05469ZM49.7422 50.3906C49.8024 50.4125 49.8626 50.4419 49.9297 50.4609C49.8643 50.4337 49.8004 50.4194 49.7422 50.3906ZM46.0156 49.125L46.1797 49.0312H46.0391L46.0156 49.125ZM46.1797 49.0312L46.0156 49.125L46.0391 49.0312H46.1797ZM36.4062 47.625L36.3594 47.6953H36.4766L36.5234 47.625H36.4062ZM46.0859 47.6953H46.2266L46.1328 47.6719L46.0859 47.6953ZM48.2891 47.3672L47.6797 47.6719H47.9844L48.0078 47.5547L48.3359 47.3672H48.2891ZM36.5234 47.625L36.4766 47.6953H36.3594L36.4062 47.625H36.5234ZM46.2266 47.6953H46.0859L46.1328 47.6719L46.2266 47.6953ZM47.8672 47.6484L47.7969 47.6719H47.75V47.6484L47.8672 47.5781V47.6484ZM48.3359 47.3672L48.0078 47.5547L47.9844 47.6719H47.7969L47.8672 47.6484V47.5781L48.2891 47.3672H48.3359ZM52.6016 47.3906V47.5078L52.8125 47.3906H52.6016ZM52.8125 47.3906L52.6016 47.5078V47.3906H52.8125ZM36.6172 47.2266L36.5938 47.25H36.7344V47.2266H36.6172ZM49.2031 47.25H48.7109L48.6875 47.1328L48.6172 47.1797H48.5938L48.5234 47.2266H48.5469L48.6406 47.1797H48.6875L48.7109 47.25H49.2969L49.6719 47.0625L49.4609 47.1562H49.3438L49.2031 47.25ZM24.7109 46.4766L24.6641 46.5469L24.7812 46.5938L24.9219 46.4297L24.7109 46.4766ZM36.7344 47.25H36.5938L36.6172 47.2266H36.7344V47.25ZM49.2969 47.25H49.2734L49.4609 47.1562H49.4844L49.2969 47.25ZM49.2734 47.25H49.2031L49.3438 47.1562H49.4609L49.2734 47.25ZM48.5938 47.2031L48.5469 47.2266H48.5234L48.5938 47.1797V47.2031ZM48.6875 47.1562L48.6406 47.1797H48.6172L48.6875 47.1328V47.1562ZM64.4141 47.0391C64.3438 47.0653 64.2731 47.0655 64.2031 47.0859C64.275 47.074 64.3433 47.057 64.4141 47.0391ZM51.7109 46.6641L51.4297 46.8047L51.2656 46.9219H51.5469L51.7109 46.6641ZM51.4297 46.8047L51.7109 46.6641L51.5469 46.9219H51.2656L51.4297 46.8047ZM24.0547 46.1953L23.75 46.4297L24.2891 46.3125L24.0547 46.1953ZM56 46.0781L55.9766 46.1016L55.25 46.4531L55.4141 46.5703L55.9766 46.1016L56.0469 46.0781H56ZM24.7812 46.5938L24.6641 46.5469L24.7109 46.4766L24.9219 46.4297L24.7812 46.5938ZM55.4141 46.5703L55.25 46.4531L55.9766 46.1016L55.4141 46.5703ZM26.0234 46.2188L25.9766 46.2656L26.375 46.4766L26.4219 46.4531L26.0234 46.2188ZM26.4219 46.4531L26.375 46.4766L25.9531 46.2656L26.0234 46.2188L26.4219 46.4531ZM24.1953 46.2656L24.0781 46.3594L23.75 46.4297L24.0547 46.1953L24.1953 46.2656ZM51.9219 46.0078L51.875 46.0781L51.8047 46.1953L52.1328 45.9375H52.0859L51.9219 46.0078ZM24.2891 46.3125L24.0781 46.3594L24.1953 46.2656L24.2891 46.3125ZM57.7578 46.3359H57.8047L57.8516 46.3125V46.0547L57.7578 46.3359ZM57.8516 46.3125L57.8047 46.3359H57.7578L57.8516 46.0547V46.3125ZM52.1328 45.9375L51.8047 46.1953L51.875 46.0781L51.9219 46.0078L52.0859 45.9375H52.1328ZM57.1484 46.0547L57.125 46.1016L57.2422 46.1484L57.2656 46.0547H57.1484ZM57.2422 46.1484L57.125 46.1016L57.1484 46.0547H57.2656L57.2422 46.1484ZM54.6406 45.9141L54.3125 46.1016H54.8047L54.8516 46.0781L54.6406 45.9141ZM54.8516 46.0781L54.8047 46.1016H54.3125L54.6406 45.9141L54.8516 46.0781ZM57.2891 45.0469L57.2422 45.0703L56.7734 45.4453H56.6328L56.7266 45.4922L57.2422 45.0703H57.4297L57.2891 45.5625L56.3516 45.5859V45.6094L56.4922 45.6797L56.6094 45.5859H56.8438L57.4062 45.5625L57.4297 45.4688L57.4531 45.4219L57.5703 45.0469H57.2891ZM53.4219 45.1875L53.3047 45.375L53.4922 45.2344L53.4219 45.1875ZM59.375 45.0938L59.2578 45.6328L59.4219 45.5156H59.3984L59.4922 45.1172L59.5156 45.0938H59.375ZM56.6094 45.5859L56.4922 45.6797L56.3516 45.6094V45.5859H56.6094ZM22.9531 45.4922L22.6719 45.6094H23.0234L23.0703 45.6328L23.1172 45.6094L22.9531 45.4922ZM23.0703 45.6328L23.0234 45.6094H23.1172L23.0703 45.6328ZM59.3984 45.5156V45.5391L59.2578 45.6328L59.2812 45.5156H59.3984ZM23.1172 45.6094H22.6719L22.8594 45.5156L22.9531 45.4922L23.1172 45.6094ZM25.8828 45.5859L26.3047 45.5625H25.9062L25.8828 45.5859ZM26.3047 45.5625L25.8828 45.5859L25.9062 45.5625H26.3047ZM57.4297 45.4688L57.4062 45.5625H57.2891L57.3125 45.4688H57.4297ZM59.4922 45.0938V45.1172L59.3984 45.5156H59.2812L59.375 45.0938H59.4922ZM56.7734 45.4453L56.7266 45.4922L56.6328 45.4453H56.7734ZM57.4297 45.4688H57.3359L57.4531 45.4219L57.4297 45.4688ZM57.4531 45.4219L57.3125 45.4688L57.4297 45.0703H57.5469L57.4531 45.4219ZM53.4922 45.2344L53.3047 45.375L53.4219 45.1875L53.4922 45.2344ZM24.9219 45.1406H24.9688L24.6875 45L24.9219 45.1406ZM24.9688 45.1406H24.9219L24.6875 45L24.9688 45.1406ZM57.3125 45.0469L57.2891 45.0703H57.2422L57.2891 45.0469H57.3125ZM57.4297 45.0469V45.0703H57.2891L57.3125 45.0469H57.4297ZM57.5703 45.0469L57.5469 45.0703H57.4297V45.0469H57.5703ZM61.9297 44.6484H61.8828L61.8594 44.6953L61.9297 44.6484ZM9.05469 18.4219L8.70312 19.4766L8.65625 19.5938L8.58594 19.6875C8.55928 19.7355 8.49698 19.7596 8.46875 19.8047C8.62726 20.0906 8.78689 20.4375 8.84375 20.8594C8.95851 21.724 8.63688 22.3968 8.32812 22.875C8.45728 23.135 8.60639 23.4293 8.65625 23.7891C8.72963 24.3268 8.63415 24.7957 8.49219 25.1953C8.75667 25.6145 9.04086 26.1881 9.00781 26.9297C8.98098 27.5199 8.75416 27.9787 8.53906 28.3359C8.60928 28.7312 8.62795 29.1573 8.51562 29.6016C8.4891 29.7065 8.40952 29.7883 8.375 29.8828V29.9062C8.70319 30.3415 9.07308 31.0362 9.00781 31.9453C8.96072 32.5949 8.66782 33.0668 8.42188 33.4219C8.72982 33.8812 9.04573 34.529 8.96094 35.3906C8.93334 35.6625 8.85314 35.8981 8.77344 36.1172L8.82031 36.1875L9.10156 36.9609C9.14986 37.195 9.13188 37.4321 9.125 37.6641H9.19531L10.1797 37.8047L10.2734 37.8281L10.3203 37.8516C10.7306 37.8441 11.1844 37.9082 11.6328 38.1094C12.1702 38.3522 12.5168 38.7196 12.7578 39.0234C12.8714 39.0202 12.9894 39.0127 13.1094 39.0234L14.0469 39.2812L14.1406 39.3281L14.2578 39.3516C14.7701 39.1641 15.4783 39.0184 16.2734 39.2812C16.7787 39.4493 17.1435 39.7375 17.4219 40.0078C17.8358 39.9529 18.2798 39.9096 18.7344 40.0547L19.5547 40.4531L19.6484 40.5234L19.8828 40.7578C20.296 40.8471 20.6284 41.0348 20.9141 41.2266C20.9822 41.2064 21.0517 41.1724 21.125 41.1562C21.3098 41.1157 21.5001 41.1622 21.6875 41.1562C21.8911 41.0871 22.1112 40.9937 22.3672 40.9688C23.0923 40.8987 23.732 41.1492 24.2656 41.4844C24.3268 41.476 24.3887 41.4658 24.4531 41.4609C25.0507 41.4163 25.5841 41.5747 26.0469 41.8125C26.2717 41.8493 26.4848 41.8982 26.6797 41.9766L26.7969 41.9297L27.9453 41.8594C28.34 41.9079 28.7386 42.0411 29.1172 42.2578C29.1605 42.2826 29.1936 42.3256 29.2344 42.3516C30.0716 42.4815 30.7116 42.899 31.0859 43.3359C31.1565 43.4191 31.1707 43.5358 31.2266 43.6172C31.2835 43.6297 31.3364 43.6491 31.3906 43.6641C31.7759 43.4281 32.4862 43.1486 33.3359 43.2422L34.25 43.4766L34.3438 43.5234L34.4609 43.5703L34.8828 43.8281C35.0337 43.8702 35.1659 43.9529 35.3047 44.0156C35.8305 44.0783 36.2532 44.2234 36.5938 44.4609C36.6612 44.483 36.736 44.5036 36.8047 44.5312C36.916 44.5763 37.0112 44.6422 37.1094 44.6953C37.0715 44.5139 37.0421 44.318 37.0391 44.1094C37.0335 43.7192 37.1233 43.3772 37.2266 43.0781C37.1897 42.8245 37.2072 42.5969 37.2266 42.375L37.1562 42.1641V42.0469L37.1328 41.9531C37.125 41.8988 37.1379 41.8419 37.1328 41.7891C37.1019 41.4284 37.1045 41.0619 37.2031 40.7109C37.0765 40.3815 36.9432 40.0336 36.9453 39.6328C36.8741 39.326 36.8436 38.9793 36.875 38.625C36.913 38.2106 37.0353 37.8502 37.1797 37.5469C37.0695 37.2161 36.9937 36.8352 37.0156 36.4219C37.031 36.1378 37.1039 35.8814 37.1797 35.6484C37.0729 35.071 37.0709 34.4807 37.2969 33.9375V33.9141C37.2663 33.7185 37.2385 33.5053 37.25 33.2812C37.2556 33.1752 37.2818 33.075 37.2969 32.9766C37.1479 32.6417 36.9954 32.2546 36.9922 31.7812C36.9895 31.3841 37.1178 31.0521 37.2266 30.75C37.2118 30.4736 37.2417 30.2087 37.2969 29.9531C37.1767 29.7418 37.043 29.512 36.9688 29.2266C36.7571 28.4048 36.9384 27.6658 37.2266 27.0938C37.1984 27.0217 37.1331 26.9609 37.1094 26.8828C36.9024 26.1981 37.0063 25.5424 37.2031 24.9844C37.1794 24.8776 37.1223 24.7729 37.1094 24.6562C37.0797 24.3877 37.1018 24.1373 37.1328 23.9062C36.4857 23.9103 35.9278 23.7385 35.4453 23.4141C35.1741 23.4783 34.8742 23.5559 34.5312 23.5312C34.4393 23.5245 34.3605 23.4515 34.2734 23.4375C34.0216 23.4802 33.7574 23.5873 33.4531 23.5547C32.7147 23.4743 32.18 23.1256 31.7891 22.7812C31.5037 22.7745 31.1984 22.729 30.875 22.6172C30.6157 22.5275 30.39 22.4175 30.1953 22.2891H30.1719L30.1016 22.3125H30.0312L29.7734 22.3359L29.6797 22.3125C29.372 22.336 29.0709 22.3337 28.7656 22.2656C28.4333 22.2903 28.0607 22.2885 27.6641 22.1719C27.1888 22.0309 26.8289 21.7911 26.5391 21.5391C26.2711 21.5081 26.001 21.4464 25.7188 21.3281C25.5481 21.324 25.3666 21.3654 25.1797 21.3281C24.908 21.2736 24.6906 21.1257 24.4766 21.0234V21.0469C24.296 21.0439 24.1306 20.9624 23.9609 20.9297C23.3787 21.002 22.7148 20.9663 22.0391 20.5547C21.6989 20.6102 21.3119 20.6494 20.8906 20.5547C20.3919 20.441 20.003 20.1884 19.6953 19.9453C18.8829 20.0961 18.0228 19.9492 17.3281 19.4297C17.2952 19.4049 17.2653 19.3612 17.2344 19.3359C17.0977 19.3654 16.9645 19.3945 16.8125 19.4062L16.7422 19.4531L16.625 19.4766C15.7504 19.697 14.7886 19.5194 14.0234 18.9375C13.9317 18.8674 13.8662 18.7764 13.7891 18.7031C13.3704 18.6877 12.9558 18.5834 12.5469 18.375C12.1353 18.3185 11.74 18.2005 11.375 17.9766C11.0792 18.0596 10.7376 18.1461 10.3438 18.1172C9.80352 18.0768 9.3607 17.9305 9.00781 17.7188C9.03024 17.9635 9.08763 18.1933 9.05469 18.4219ZM61.9297 44.6484L61.8594 44.6953L61.8828 44.6484H61.9297ZM62.0938 43.9453L61.5781 44.3203L61.6953 44.3438L61.9531 44.2266L61.9062 44.3906H61.9297L62.0234 44.3203L62.0938 43.9453ZM62.0938 43.9453L62.0234 44.3203L61.9297 44.3906H61.9062L61.9531 44.2266L61.6953 44.3438L61.5781 44.3203L62.0938 43.9453ZM72.9219 17.6953C72.7219 17.7097 72.5351 17.6452 72.3594 17.625C72.0827 17.68 71.811 17.6927 71.5391 17.6719C71.292 17.7564 71.0185 17.8193 70.7188 17.8359C70.3915 17.8539 70.1122 17.7348 69.8516 17.6719C69.7579 17.6894 69.6709 17.7098 69.5703 17.7188C69.4336 17.971 69.2775 18.2909 68.9844 18.5625L68.1875 19.1016L68.0938 19.1484L67.9766 19.1953C67.5945 19.3702 67.2041 19.4515 66.8281 19.4766L65.7266 19.3828L65.6094 19.3359L65.5625 19.3125C65.3991 19.3773 65.2294 19.4164 65.0469 19.4531V19.4766C64.5534 19.8427 63.9156 20.0881 63.2188 20.0859C63.0953 20.0853 62.98 20.0528 62.8672 20.0391C62.6693 20.1726 62.4529 20.321 62.1875 20.4141C61.8527 20.5307 61.5135 20.5757 61.2031 20.5781L60.3359 20.4609L60.2188 20.4141V20.3906C60.1155 20.4312 60.0291 20.5471 59.9141 20.5781C59.2244 20.7623 58.6359 20.6392 58.1797 20.4844C57.9889 20.6576 57.8101 20.8701 57.5469 21L56.1641 21.3047H55.9531C55.7757 21.305 55.6186 21.2128 55.4609 21.1875C55.2726 21.4321 55.0724 21.7221 54.7344 21.9375C53.8195 22.5198 52.934 22.4028 52.25 22.1953C51.8963 22.5492 51.4291 22.9047 50.7266 23.0391C50.2847 23.1219 49.8778 23.1126 49.5312 23.0391C49.2151 23.2773 48.8257 23.4401 48.3359 23.5312C47.9764 23.7811 47.5254 24.0063 46.9531 24.0703C46.405 24.1316 45.9409 24.0186 45.5703 23.8828C45.3421 24.0727 45.0666 24.2232 44.7266 24.3516C44.7196 24.3756 44.7106 24.3983 44.7031 24.4219C44.7142 24.5793 44.6674 24.7212 44.6562 24.8672C44.7503 25.0356 44.8697 25.2123 44.9375 25.4297C45.1476 26.1036 45.0816 26.803 44.8438 27.4219C44.8749 27.7712 44.8648 28.1362 44.75 28.5234C44.7462 28.8086 44.7035 29.0593 44.6328 29.2969C44.7339 29.6981 44.7933 30.1628 44.6797 30.6797C44.6701 30.7229 44.6205 30.7552 44.6094 30.7969C44.6461 30.9397 44.6403 31.0881 44.6562 31.2422C44.7121 31.3454 44.82 31.4276 44.8672 31.5469C45.1778 32.3381 45.0562 33.1377 44.7734 33.8203L44.7969 33.8672C44.7975 33.896 44.7736 33.9325 44.7734 33.9609C44.7743 34.015 44.799 34.0693 44.7969 34.125C44.7933 34.2129 44.7369 34.2999 44.7266 34.3828C44.6981 34.5747 44.6667 34.7546 44.6094 34.9219C44.5799 35.0133 44.5511 35.0969 44.5156 35.1797L44.5625 35.2266C44.9724 35.9303 45.1356 36.8784 44.7969 37.8047C44.7474 37.9399 44.6467 38.0412 44.5859 38.1562C44.5118 38.4255 44.4427 38.66 44.3281 38.8594C44.3653 38.9321 44.436 38.9905 44.4688 39.0703C44.7054 39.6512 44.7584 40.3299 44.5859 40.9922C44.6443 41.1552 44.7419 41.3148 44.7734 41.5078C44.8023 41.6855 44.7277 41.8588 44.7266 42.0234C44.8891 42.4099 44.938 42.8041 44.9375 43.1953C45.0199 43.503 45.0316 43.8266 45.0078 44.1797C45.2736 44.1458 45.5234 44.1707 45.7578 44.2031C46.3754 43.6472 47.2518 43.2338 48.2891 43.3594H48.3828C48.5827 43.3461 48.7667 43.3138 48.9453 43.3359C49.3454 43.2579 49.7647 43.2638 50.1875 43.3594L50.2578 43.3828C50.6494 43.2422 51.0255 43.1817 51.3828 43.1953C51.7877 42.9614 52.2591 42.7954 52.7891 42.7734C52.8274 42.7719 52.8688 42.7736 52.9062 42.7734C53.0573 42.7357 53.2139 42.7171 53.375 42.7031C53.6346 42.3846 54.0128 42.0192 54.5703 41.7891L54.6641 41.7656L54.7578 41.7188L55.6719 41.4844C55.9661 41.4601 56.2434 41.4823 56.4922 41.5312C56.8694 41.3528 57.3191 41.2206 57.8281 41.2266H57.9219L58.0391 41.25L58.5547 41.3438C58.7236 41.2921 58.8772 41.2018 59.0469 41.1797L60.1484 41.2266L60.2656 41.25H60.2891C60.3309 41.2008 60.3592 41.1345 60.4062 41.0859C60.7627 40.7188 61.2965 40.3307 62.0234 40.1953C62.4193 40.1217 62.7826 40.1628 63.1016 40.2188C63.2493 40.1248 63.4176 40.0555 63.5938 39.9844C64.0546 39.6415 64.6286 39.4811 65.2344 39.4453C65.3334 39.4091 65.4296 39.3555 65.5391 39.3281C65.9794 39.2186 66.3843 39.2261 66.7344 39.2812C66.8382 39.2661 66.9377 39.2387 67.0391 39.2344C67.5911 38.9544 68.2029 38.7848 68.8438 38.8828H68.8672C69.2841 38.5314 69.8257 38.2564 70.5078 38.1797L70.5547 38.1562C71.4436 37.6814 72.3775 37.7414 73.0625 37.9922C73.1727 38.0328 73.2483 38.1322 73.3438 38.1797C73.3924 38.1787 73.4371 38.1784 73.4844 38.1797C73.4976 38.1594 73.4944 38.1289 73.5078 38.1094C73.5269 37.9774 73.545 37.8532 73.5781 37.7344C73.4254 37.426 73.3257 37.0481 73.2969 36.6094C73.2759 36.5534 73.2215 36.5048 73.2031 36.4453C72.9292 35.555 73.1682 34.7968 73.4609 34.2188L73.2969 33.5625V33.3516C73.2913 33.2715 73.3198 33.194 73.3203 33.1172C73.0897 32.423 73.0393 31.6623 73.3672 30.9375C73.422 30.8167 73.4917 30.712 73.5547 30.6094C73.1472 30.0368 72.7222 29.1767 73.0625 28.0312C73.23 27.4709 73.5272 27.0566 73.8125 26.7656C73.8122 26.6777 73.8049 26.5768 73.8125 26.4844C73.8215 26.3788 73.8412 26.2774 73.8594 26.1797C73.8266 26.0987 73.7693 26.011 73.7422 25.9219C73.5683 25.3433 73.5955 24.8369 73.6953 24.3984C73.6841 24.1579 73.6394 23.9017 73.6953 23.625C73.7288 23.4601 73.8065 23.3211 73.8594 23.1797C73.5593 22.7792 73.2316 22.1586 73.2266 21.3516C73.2247 21.0135 73.3066 20.7102 73.3906 20.4375C73.3016 20.2646 73.1695 20.0915 73.1094 19.875L73.0859 19.7812L73.0625 19.6641C72.8383 18.8542 73.0149 18.1478 73.2734 17.5781C73.1564 17.601 73.0474 17.6862 72.9219 17.6953ZM64.2734 43.8281L64.3203 43.8047V43.9688L64.2031 44.0156V43.8984L64.0391 44.0859H64.0625L64.3203 43.9688V43.7812L64.2734 43.8281ZM64.2031 44.0156L64.0625 44.0859H64.0391L64.2031 43.8984V44.0156ZM66.7578 43.2656L66.5703 43.4297L66.5 43.4531H66.5234L66.8047 43.3125H67.0391L67.1328 43.2656L67.5547 43.2422L67.6016 43.2188H67.5781L67.5312 43.2422L66.7578 43.2656ZM19.0391 43.6172V43.6406H19.0859L19.0625 43.6172H19.0391ZM64.6953 43.4062L64.625 43.4766H66.1484L66.2188 43.4062L66.4531 43.3125H66.3594L66.2188 43.4062L66.1484 43.4766H65.0234L65.1172 43.4297L64.6953 43.4062ZM19.0859 43.6406H19.0391V43.6172H19.0625L19.0859 43.6406ZM69.6406 43.1953H69.4531L69.5 43.3359L69.4297 43.4062L69.5 43.6172L69.7109 43.4062H69.4297L69.6406 43.1953ZM69.7109 43.4062L69.5 43.6172L69.4297 43.4062H69.7109ZM67.7891 42.7266L67.5547 42.9141H67.2031L67.1328 42.9609H67.1562L67.25 42.9141L68.9609 42.9609L69.0078 42.9375H68.4922L68.8438 42.7031H69.1016L69.0547 42.5625L68.8438 42.7031H68.3281L68 42.9375L67.625 42.9141L68.0469 42.7266H67.7891ZM65.1172 43.4297L65.0234 43.4766H64.625L64.6953 43.4062L65.1172 43.4297ZM66.8047 43.3125L66.5703 43.4297L66.7109 43.3125H66.8047ZM66.4531 43.3125L66.2188 43.4062L66.3594 43.3125H66.4531ZM64.4844 43.2422H64.4141V43.2891L64.2969 43.3359V43.3828H64.4141V43.2422H64.5781L64.7188 43.125L64.4844 43.2422ZM64.4141 43.3828H64.2969V43.3359L64.4141 43.2891V43.3828ZM69.5 43.3359L69.4531 43.1953H69.6406L69.5 43.3359ZM67.0391 43.3125H66.9688L66.8516 43.2891L66.9219 43.2656H67.1328L67.0391 43.3125ZM66.7578 43.2656L66.9688 43.3125H66.7109L66.7578 43.2656ZM66.8516 43.2891L66.7578 43.2656H66.9219L66.8516 43.2891ZM64.5781 43.2422H64.4844L64.7188 43.125L64.5781 43.2422ZM67.6016 43.2188L67.5547 43.2422H67.5312L67.5781 43.2188H67.6016ZM8.70312 42.9609L8.65625 43.1016V43.125L8.63281 43.1953H8.70312L8.65625 43.125L8.75 42.9375L8.70312 42.9609ZM8.70312 43.1953H8.63281L8.65625 43.125L8.70312 43.1953ZM71.0234 41.8125L70.8359 41.7656V42L70.6719 42.1641H70.8359V42.2812L70.4375 42.6797H70.3672V42.75L70.4375 42.6797H70.8359L70.6484 42.8438L70.9062 42.6797H70.4375L70.8359 42.2812V42.375L70.9531 42.2578V42.5391L71.0469 42.4453V42.1641L71.3047 41.9062L71.2344 41.8828L70.9531 42.1641H70.6719L71.0234 41.8125ZM72.9453 42.2578L72.6406 42.8203L73.2969 42.375L72.9453 42.2578ZM66.8516 42.8906H66.5469L66.4062 42.9609L66.7109 43.0078L66.7578 42.9609L66.8516 42.8906ZM8.65625 43.125V43.1016L8.70312 42.9609L8.75 42.9375L8.65625 43.125ZM66.7109 43.0078L66.4766 42.9609H66.7578L66.7109 43.0078ZM66.8516 42.8906L66.7578 42.9609H66.4062L66.5469 42.8906H66.8516ZM67.25 42.9141L67.1562 42.9609H67.1328L67.2031 42.9141H67.25ZM68.9609 42.9609L68.2812 42.9375H69.0078L68.9609 42.9609ZM68.4922 42.9375H68L68.3281 42.7031H68.8438L68.4922 42.9375ZM67.625 42.9141H67.5547L67.7891 42.7266H68.0469L67.625 42.9141ZM12.875 42.5156L12.7812 42.75L13.1328 42.6797L12.875 42.5156ZM70.8359 42.7266L70.6484 42.8438L70.8359 42.6797H70.9062L70.8359 42.7266ZM72.9219 42.6328L72.6406 42.8203L72.7109 42.6797L72.9688 42.5625L72.9219 42.6328ZM13.1328 42.6797L12.7812 42.75L12.8047 42.6562L12.875 42.5156L13.1328 42.6797ZM70.3672 42.75V42.6797H70.4375L70.3672 42.75ZM69.1016 42.7031H68.8438L69.0547 42.5625L69.1016 42.7031ZM73.2969 42.375L72.9219 42.6328L72.9688 42.5625L72.7109 42.6797L72.9453 42.2578L73.2969 42.375ZM63.875 42.4922H63.9922L64.0156 42.4219L63.8984 42.3984L63.875 42.4922ZM68.1172 42.4688H68.6797L68.8906 42.3281L68.5859 42.4688H68.1641L68.6797 42.2109H68.4219L68.1172 42.4688ZM71.0469 42.4453L70.9531 42.5391V42.2578L71.0469 42.1641V42.4453ZM64.0156 42.4219L63.9922 42.4922H63.875L63.8984 42.3984L64.0156 42.4219ZM67.5547 42.2344L67.0625 42.4688H67.4375L67.9297 42.2344H67.6484L67.7656 42.1406L67.5547 42.2344ZM67.4375 42.4688H67.0625L67.5547 42.2344H67.9297L67.4375 42.4688ZM68.1641 42.4688H68.1172L68.4219 42.2109H68.6797L68.1641 42.4688ZM68.6797 42.4688H68.5859L68.8906 42.3281L68.6797 42.4688ZM75.8047 41.9531H75.6875V42H75.5703L75.3828 42.2109L75.5938 42.2344L75.6875 42.1406V42.2578H75.8047V41.9531ZM13.7422 42.375C13.7193 42.4115 13.7013 42.4347 13.6953 42.4453V42.3984L13.7422 42.375ZM70.9531 42.2578L70.8359 42.375V42.2812L70.9531 42.1641V42.2578ZM70.8359 42.2812V42.1641H70.9531L70.8359 42.2812ZM75.8047 42V42.2578H75.6875V42.1406L75.8047 42ZM70.9531 42.2578V42.1641H71.0469L70.9531 42.2578ZM67.6484 42.2344H67.5547L67.7656 42.1406L67.6484 42.2344ZM75.6875 42V42.1406L75.5938 42.2344L75.3828 42.2109L75.5703 42H75.6875ZM71.0469 42.1641H70.9531L71.0469 42.0703V42.1641ZM71.3047 41.9062L71.0469 42.1641V42.0703L71.2344 41.8828L71.3047 41.9062ZM75.8047 42L75.6875 42.1406V42H75.8047ZM69.0312 41.7422L68.8672 41.8594L68.9609 42.1172L69.1719 41.9531L69.0312 41.7422ZM69.1719 41.9531L68.9609 42.1172L68.8672 41.8594L69.0312 41.7422L69.1719 41.9531ZM75.8047 41.9766V42H75.6875V41.9766H75.8047ZM70.9531 41.7891V41.8828L70.8359 42V41.7656L70.9531 41.7891ZM75.8047 41.9531V41.9766H75.6875V41.9531H75.8047ZM71.0234 41.8125L70.9531 41.8828V41.7891L71.0234 41.8125ZM9.38281 41.6016L9.24219 41.8594L9.35938 41.8359L9.5 41.6016H9.38281ZM9.35938 41.8359L9.24219 41.8594L9.38281 41.6016H9.5L9.35938 41.8359ZM10.6484 41.6953L10.6719 41.7656H10.7656L10.7188 41.6953H10.6484ZM10.7656 41.7656H10.6719L10.6484 41.6953H10.7188L10.7656 41.7656ZM5.23438 41.7188L5.49219 41.6016L5.25781 41.6484L5.23438 41.7188ZM5.23438 41.7188L5.25781 41.6484L5.49219 41.6016L5.23438 41.7188ZM71.7031 41.4141H71.7734L71.75 41.4375L72.0078 41.4609L72.0547 41.4375L71.7266 41.4141H71.7734L71.9609 41.2266L71.9141 41.2031L71.7031 41.4141ZM71.75 41.4141L72.0547 41.4375L72.0078 41.4609L71.75 41.4375V41.4141ZM71.9609 41.2266L71.7734 41.4141H71.7031L71.9141 41.2031L71.9609 41.2266ZM76.3203 41.0391L76.3672 40.9453L76.2266 41.0391H76.3203L76.2969 41.0859L76.3438 41.0391H76.3203ZM76.1328 40.6172L76.0391 40.8516L75.9688 40.9219L75.7812 41.0156V41.0391H75.8281L76.2969 40.6172H76.1328ZM76.3203 41.0391H76.2266L76.3672 40.9453L76.3203 41.0391ZM75.8281 41.0391H75.7812V41.0156L75.9688 40.9219L75.8281 41.0391ZM74.9844 40.5938L74.9141 40.6641L75.0312 40.5938H74.9844ZM76.2969 40.6172L76.0391 40.8516L76.1328 40.6172H76.2969ZM9.99219 40.6641L9.96875 40.7109L9.89844 40.8047L9.99219 40.6641ZM75.0312 40.5938L74.9141 40.6641L74.9844 40.5938H75.0312ZM76.8594 40.5234L76.8125 40.6406H76.9062L76.8594 40.5234ZM76.9062 40.6406H76.8125L76.8594 40.5234L76.9062 40.6406ZM77.6797 40.3125L77.7031 40.4062H77.75C77.7409 40.3898 77.7111 40.3612 77.6797 40.3125ZM77.75 40.4062H77.7031L77.6797 40.2891L77.75 40.4062ZM78.0781 39.4219L77.9141 39.3984L77.5625 39.8203L77.5156 39.6094L77.6094 39.5156L77.5156 39.5859L77.5625 39.8203L77.9141 39.3984H77.9375L77.9609 39.5391L78.0781 39.4219ZM4.27344 39.5859L4.36719 39.7031L4.60156 39.75L4.50781 39.6328L4.27344 39.5859ZM4.50781 39.6328L4.60156 39.75L4.36719 39.7031L4.27344 39.5859L4.50781 39.6328ZM78.0781 39.4219L77.9609 39.5391L77.9375 39.3984L78.0781 39.4219ZM77.3047 39.1875H77.2578H77.3047ZM5.98438 39.1875L5.91406 39.0469L5.86719 39.1875H5.98438ZM5.91406 39.0469L5.98438 39.1875H5.86719L5.91406 39.0469ZM5.28125 37.9688L5.23438 38.0859L5.30469 38.0391L5.25781 38.2266L5.30469 38.2031L5.375 37.9922L5.30469 38.0391L5.32812 37.9453L5.28125 37.9688ZM5.375 37.9922L5.30469 38.2031L5.25781 38.2266L5.30469 38.0391L5.375 37.9922ZM5.30469 38.0391L5.23438 38.0859L5.28125 37.9688L5.32812 37.9453L5.30469 38.0391ZM78.2656 37.0781L78.1016 37.3359L78.3828 37.2656L78.5469 37.0078L78.2656 37.0781ZM78.3828 37.2656L78.1016 37.3359L78.1719 37.2188L78.4531 37.1484L78.3828 37.2656ZM78.4531 37.1484L78.1719 37.2188L78.2656 37.0781L78.5469 37.0078L78.4531 37.1484ZM76.5547 35.5781L76.5781 35.7188L76.6719 35.6719L76.6016 35.5547L76.5547 35.5781ZM76.6719 35.6719L76.5781 35.7188L76.5547 35.5781L76.6016 35.5547L76.6719 35.6719ZM5.67969 35.3203L5.75 35.5547L5.89062 35.0859L5.67969 35.3203ZM5.75 35.5547L5.67969 35.3203L5.89062 35.0859L5.75 35.5547ZM5.23438 33.375V33.2812L5.16406 33.375H5.23438ZM5.23438 33.2812L5.21094 33.375H5.16406V33.3516L5.23438 33.2812ZM76.1328 33.2578H76.1797L76.2266 33.1406H76.1562L76.1328 33.2578ZM76.1797 33.2578H76.1328L76.1562 33.1406H76.2266L76.1797 33.2578ZM77.3047 33.0469V33.0938L77.375 33.0469H77.3047ZM77.3047 33.0938V33.0469H77.375L77.3047 33.0938ZM5.1875 32.5547L5.11719 32.6719L5.16406 33L5.25781 32.8359L5.1875 32.5547ZM5.25781 32.8359L5.16406 33L5.11719 32.6719L5.1875 32.5547L5.25781 32.8359ZM78.4766 31.6406L78.125 31.9688L78.1953 32.0859L78.3828 31.9219H78.4062L78.3125 32.1797L77.9844 32.4844L78.125 32.8125L78.1719 32.6719L78.0312 32.4375L78.3125 32.1797L78.4062 31.9219H78.3828L78.4062 31.8984L78.4766 31.6406ZM78.1719 32.6719L78.125 32.8125L77.9844 32.4844L78.0312 32.4375L78.1719 32.6719ZM77.3984 32.625V32.6953L77.4453 32.5781L77.3984 32.625ZM77.3984 32.6953V32.625L77.4453 32.5781L77.3984 32.6953ZM78.3828 31.9219L78.1953 32.0859L78.125 31.9688L78.3125 31.7812L78.3828 31.9219ZM78.4766 31.6406L78.4062 31.8984L78.3828 31.9219L78.3125 31.7812L78.4766 31.6406ZM77.2344 30.9141L77.3281 31.125L77.3516 31.0547L77.3047 30.75H77.2812L77.2344 30.9141ZM77.3047 30.75L77.3516 31.0547L77.3281 31.125L77.2344 30.9141L77.2812 30.75H77.3047ZM4.64844 29.9297L4.69531 29.7422L4.57812 29.625L4.64844 29.9297ZM4.69531 29.7422L4.64844 29.9297L4.57812 29.625L4.69531 29.7422ZM76.4141 29.7656L76.4844 29.6016L76.3672 29.6484L76.4141 29.7656ZM76.4141 29.7656L76.3672 29.6484L76.4844 29.6016L76.4141 29.7656ZM77.0938 29.25L77 29.2969L76.9766 29.1562L76.9531 29.1797H76.9766L77 29.2969L77.0703 29.2734V29.2969L77.0938 29.25ZM78.1953 28.9453L78.3125 28.5938L78.1016 28.6875L78.1953 28.9453ZM76.3203 28.7578L76.1562 28.9922C76.1441 28.9971 76.1101 29.0045 76.0859 29.0156H76.1328L76.1562 28.9922L76.25 28.8281V28.8516L76.3203 28.7578ZM78.1953 28.9453L78.1016 28.6875L78.3125 28.5938L78.1953 28.9453ZM5.28125 27.5391L5.35156 27.7266L5.42188 27.4688L5.28125 27.5391ZM5.35156 27.7266L5.28125 27.5391L5.42188 27.4688L5.35156 27.7266ZM76.9062 27.3281H76.9531L77 27.2344H76.9531L76.9062 27.3281ZM77 27.2344L76.9531 27.3281H76.9062L76.9531 27.2344H77ZM5.39844 26.7422V26.7891L5.42188 26.8359V26.8125L5.39844 26.7422ZM5.42188 26.8125V26.8359L5.39844 26.7891V26.7422L5.42188 26.8125ZM77.5156 26.0391V26.0859L77.4922 26.1328L77.5625 26.3672L77.7266 25.9219L77.7734 26.1094L77.8203 26.0391L77.7031 25.6406L77.5156 26.0391ZM77.5859 26.2969L77.5625 26.3672L77.4922 26.1328L77.5156 26.0859L77.5859 26.2969ZM77.7031 25.6406L77.8203 26.0391L77.7734 26.1094L77.7266 25.9219L77.5859 26.2969L77.5156 26.0391L77.7031 25.6406ZM77.3281 23.7656H77.2812L77.3281 23.6484L77.2109 23.7891L77.2812 23.7656L77.2578 23.8828H77.2812L77.3281 23.7656ZM77.6328 23.6484L77.6094 23.7656H77.6562L77.7031 23.625L77.6328 23.6484ZM77.2812 23.8828H77.2578L77.2812 23.7656H77.3281L77.2812 23.8828ZM77.2812 23.7656L77.2109 23.7891L77.3281 23.6484L77.2812 23.7656ZM77.6562 23.7656H77.6094L77.6328 23.6484L77.7031 23.625L77.6562 23.7656ZM77.2109 20.3906L77.2344 20.4844L77.2109 20.5078L77.1641 20.6484H77.1406L76.7656 20.9531L76.7188 20.8359L76.625 20.8594L76.6719 20.7188L76.5078 20.7656L76.5547 20.8828L76.7188 20.8359L76.7656 20.9531L77.1406 20.6484H77.1641L77.3516 20.5078L77.3281 20.4609L77.2344 20.4844L77.2109 20.4375L77.2344 20.3906H77.2109ZM76.625 20.8594L76.5547 20.8828L76.5078 20.7656L76.6719 20.7188L76.625 20.8594ZM77.3516 20.5078L77.1641 20.6484L77.2109 20.5078L77.3281 20.4609L77.3516 20.5078ZM45.875 20.3203L45.9688 20.2734L45.7578 20.25L45.875 20.3203ZM45.9688 20.2734L45.875 20.3203L45.7578 20.25L45.9688 20.2734ZM5.32812 20.2734L5.51562 20.1328L5.49219 19.9922L5.39844 20.0625L5.32812 20.2734ZM77.6328 20.2734L77.7734 20.1797L77.6562 20.2266L77.6328 20.2734ZM77.7734 20.1797L77.6328 20.2734L77.6562 20.2266L77.7734 20.1797ZM5.51562 20.1328L5.32812 20.2734L5.39844 20.0625L5.49219 19.9922L5.51562 20.1328ZM33.2188 20.1562H33.4766L33.3594 20.0625L33.2188 20.1562ZM33.4766 20.1562H33.2188L33.3594 20.0625L33.4766 20.1562ZM34.1328 20.0625L34.0625 20.0859H34.2266L34.1328 20.0625ZM34.2266 20.0859H34.0625L34.1328 20.0625L34.2266 20.0859ZM45.4062 19.875H45.3359L45.3125 19.8984H45.5469V19.9219L45.8516 19.9453L45.9688 19.875L45.6406 19.8047L45.5469 19.8984H45.3828L45.4062 19.875ZM45.9688 19.875L45.8516 19.9453L45.5469 19.8984L45.6406 19.8047L45.9688 19.875ZM78.1719 19.8047L78.125 19.8984L78.2422 19.8047H78.1719ZM45.4062 19.875L45.3828 19.8984H45.3125L45.3359 19.875H45.4062ZM76.8828 19.7109L76.9062 19.6641H76.8594L76.8828 19.7109ZM78.2422 19.8047L78.125 19.8984L78.1719 19.8047H78.2422ZM27.8047 18.9375V19.1484L27.875 19.125L27.8047 19.0781V18.9375L27.9453 18.8906L27.8281 18.7969L27.8047 18.9375ZM48.9219 19.7109L48.8984 19.7344V19.7578L48.9453 19.7109H48.9219ZM48.8984 19.7578V19.7344L48.9219 19.7109H48.9453L48.8984 19.7578ZM76.9062 19.6641L76.8828 19.7109L76.8594 19.6641H76.9062ZM51.3359 18.5859L51.1953 18.7266L51.0312 18.8672L50.9375 18.8438L50.5625 19.1484H50.4219L49.8594 19.6875H49.9062L50.9375 18.8438L51.0312 18.8672L51.1953 18.7266L51.3594 18.75L51.2188 18.7031L51.3359 18.5859H51.4766L51.5703 18.6094L51.6172 18.5859H51.3359ZM49.9062 19.6875H49.8594L50.4219 19.1484H50.5625L49.9062 19.6875ZM34.4141 19.0547H34.6484L34.5078 18.9844L34.4141 19.0547ZM27.875 19.125L27.8047 19.1484V19.0781L27.875 19.125ZM34.6484 19.0547H34.4141L34.5078 18.9844L34.6484 19.0547ZM30.0312 18.9609L30.0547 18.9141H29.9375V18.9609L29.4922 18.9375V18.8438L29.375 18.8672V18.9375L30.0312 18.9609ZM30.0312 18.9609H29.9375V18.9141H30.0547L30.0312 18.9609ZM58.9062 18.2344L59.2344 18L59.2812 17.9297L59.1172 17.9062L58.9062 18.2344ZM27.9453 18.8906L27.8047 18.9375L27.8281 18.7969L27.9453 18.8906ZM29.4922 18.9375H29.375V18.8672L29.4922 18.8438V18.9375ZM29.4453 18.6328L29.1641 18.7031L29.4453 18.6797V18.6328ZM52.3203 18.6094L52.3906 18.5625H52.3438L52.3203 18.6094ZM54.3359 18L54.3828 17.9531L54.2656 18H54.5234L54.3359 18.2812L54.1719 18.3984H54.3594L54.7578 18.1641L54.5469 18.1406L54.3359 18.2812L54.4531 18.1172L54.5234 18H54.3359ZM30.6641 18.4453L29.5859 18.4219L29.7734 18.5156L30.0078 18.4453H30.2188L30.1953 18.5625L30.3359 18.4922L30.4297 18.5156L30.6641 18.4453ZM29.4453 18.6797L29.1641 18.7031L29.3281 18.6562L29.4453 18.6328V18.6797ZM33.1719 18.4922L33.1484 18.5156L32.7734 18.4922H32.75L32.7734 18.4219V18.4453L32.75 18.4922L32.7969 18.5156H33.1484L33.1719 18.4922L33.5234 18.4453L33.4062 18.375L33.1719 18.4922ZM51.5703 18.6094L51.4766 18.5859H51.6172L51.5703 18.6094ZM52.3203 18.6094L52.3438 18.5625H52.3906L52.3203 18.6094ZM30.6641 18.4453L30.4297 18.5156L30.3359 18.4922L30.1953 18.5625L30.2188 18.4453H30.6641ZM30.0078 18.4453L29.7734 18.5156L29.5859 18.4219L30.0078 18.4453ZM50.4219 18.3047L50.6797 18.3516L50.7031 18.3281L50.4688 18.2578L50.4219 18.3047ZM33.5234 18.4453L33.1719 18.4922L33.4062 18.375L33.5234 18.4453ZM27.0078 18L27.0312 17.9297L26.9375 18H27.0078ZM54.7578 18.1641L54.3594 18.3984H54.1719L54.5469 18.1406L54.7578 18.1641ZM52.6016 17.7656L52.8125 17.7891L52.7188 17.9297H52.4141L51.9453 18.3047H52.1562L52.3438 17.9766L52.4141 17.9297H52.7188L52.8125 17.7891L52.6484 17.7656L52.6953 17.6953L52.6016 17.7656ZM50.7031 18.3281L50.6797 18.3516L50.4219 18.3047L50.4688 18.2578L50.7031 18.3281ZM52.1562 18.3047H51.9453L52.3438 17.9766L52.1562 18.3047ZM59.2812 17.9297L59.2344 18L58.9062 18.2344L59.1172 17.9062L59.2812 17.9297ZM64.6484 16.1719H64.3672L64.5312 16.0312L64.3438 16.1719H64.6484L64.4844 16.3359H64.5312L64.7422 16.1719H65.2109L65.2812 16.0781L64.7891 16.0312L64.6484 16.1719ZM23.6797 17.8828L23.9141 17.8594L23.8438 17.8359L23.6797 17.8828ZM27.0078 18H26.9375L27.0312 17.9297L27.0078 18ZM54.3359 18H54.2656L54.3828 17.9531L54.3359 18ZM23.9141 17.8594L23.6797 17.8828L23.8438 17.8359L23.9141 17.8594ZM27.4297 17.5078H27.4062V17.5312H27.2422L27.2188 17.5547H27.4297V17.5078ZM55.9297 17.8594L56.0469 17.7891L55.9297 17.7656V17.8594ZM56.0469 17.7891L55.9297 17.8594V17.7656L56.0469 17.7891ZM63.4766 15.6797L63.5938 15.6094L62.6562 16.1484L62.8672 16.1719L63.0547 16.0312L63.4531 16.0078L63.3359 16.2188H63.2188L63.2891 16.1953H62.8672L62.4219 16.5469L63.5 16.5234L63.4297 16.6172L63.4062 16.6406H63.4297L63.2188 17.0156L63.1953 17.0391H63.3125L63.1016 17.2031L62.8906 17.6016L63.4766 17.0391L64.0156 16.5234H63.9219L63.3125 17.0391H63.1953L63.2188 17.0156L63.4297 16.6172L63.5469 16.5234L62.6562 16.5469L63.1484 16.2656L63.2188 16.2188H63.3359L63.3594 16.1719H63.6875L63.8281 15.9375H63.7109L63.5703 16.0078H63.4531L63.4766 15.9844L63.5703 15.9141H63.5234L63.4766 15.9844L63.4531 16.0078L62.8672 16.0312L63.4297 15.6797H63.8047L63.7578 15.75L63.8281 15.6797H63.9688L63.875 15.8203L64.0625 15.7266V15.75L64.4609 15.7734L64.5781 15.6797H63.4766ZM52.6484 17.7656H52.6016L52.6953 17.6953L52.6484 17.7656ZM56.6094 17.3906L56.6797 17.3438H56.6328L56.6094 17.3906ZM40.1562 7.96875H40.0859C39.9909 8.07774 39.9315 8.23507 39.8047 8.34375L38.4688 9L38.2812 9.04688C38.0899 9.09083 37.8952 9.03907 37.7188 9.04688C37.0763 9.37395 36.4668 9.40439 35.9375 9.32812C35.6438 9.54772 35.2918 9.75671 34.8359 9.86719C34.2323 10.1693 33.5682 10.3447 32.8906 10.2188C32.8058 10.2528 32.7254 10.308 32.6328 10.3359C32.079 10.5026 31.5823 10.4675 31.1562 10.3828C30.8101 10.7738 30.2914 11.183 29.5156 11.3438C29.0254 11.4439 28.5989 11.3851 28.2266 11.2969C28.0644 11.3822 27.9017 11.4742 27.7109 11.5312C27.5738 11.6265 27.4734 11.7835 27.3125 11.8594L25.8828 12.1406H25.6719C25.3796 12.1282 25.1316 12.0249 24.8984 11.9531C24.4002 12.4316 23.6836 12.9289 22.6016 12.8438C22.2654 12.8168 21.9699 12.7122 21.7109 12.6094C21.6406 12.6645 21.5562 12.6988 21.4766 12.75C21.946 12.9376 22.2918 13.1919 22.5547 13.4766L22.6016 13.5C23.1547 13.5541 23.6435 13.7464 24.0547 14.0391C24.1678 14.0296 24.2834 13.9882 24.4062 13.9922C24.513 13.9442 24.6096 13.8434 24.7344 13.8047C25.4112 13.5956 26.276 13.6088 27.0781 14.0391C27.577 14.3086 27.8786 14.685 28.0859 14.9766C28.6812 15.0178 29.1337 15.2445 29.5156 15.4922C29.6892 15.3947 29.8573 15.2558 30.0781 15.1875C30.5729 15.0367 31.1628 15.0449 31.7656 15.2109C31.9554 15.2109 32.1646 15.1687 32.375 15.2109C32.5061 15.2376 32.6091 15.3352 32.7266 15.375C33.6909 15.3869 34.3251 15.8462 34.7656 16.2891C35.1994 16.1139 35.8099 15.9768 36.5234 16.125C37.1484 16.2568 37.5975 16.5692 37.9297 16.875C38.0638 16.8736 38.2069 16.8573 38.3516 16.875L38.4453 16.8984H38.5625L39.3594 17.1094C39.669 17.2364 39.9156 17.4225 40.1328 17.6016C40.2634 17.5522 40.4001 17.4942 40.5547 17.4609C40.6961 17.4307 40.8572 17.4232 41.0234 17.4141C41.4125 17.2084 41.8896 17.0567 42.4766 17.0625C42.7346 17.0656 42.9679 17.1503 43.1797 17.2031C43.481 16.9084 43.8992 16.6164 44.4688 16.4531C45.5208 16.1542 46.4009 16.4697 46.8594 16.7344C46.9459 16.7275 47.0299 16.7104 47.1172 16.7109L47.3047 16.6172L48.0312 16.2422L48.0547 16.2188C48.2752 15.985 48.5804 15.7469 48.9688 15.5625C49.5544 15.2859 50.1302 15.2649 50.6328 15.3281C50.8503 15.2939 51.0473 15.3183 51.2422 15.3281C51.4206 15.1339 51.6533 14.937 51.9453 14.7656C52.4527 14.4683 52.9343 14.3557 53.375 14.3438C53.8358 14.1332 54.3646 14.0191 54.9219 14.0625C55.0461 14.0725 55.1605 14.1107 55.2734 14.1328C55.6689 13.9014 56.1381 13.7115 56.6797 13.6875C56.8451 13.6804 56.9999 13.7179 57.1484 13.7344L57.9453 13.4531C58.5383 13.1543 59.1031 13.0888 59.6094 13.1484C59.7311 13.0609 59.8359 12.9421 59.9844 12.8672C59.834 12.7662 59.66 12.701 59.5391 12.5859C59.4465 12.4976 59.4035 12.3727 59.3281 12.2812C59.2093 12.2308 59.0724 12.2102 58.9531 12.1406C58.8763 12.0958 58.8344 12.0014 58.7656 11.9531C58.6352 11.9868 58.5138 12.1003 58.3672 12.1172C57.8008 12.1815 57.3279 12.0513 56.9141 11.8828C56.875 11.8901 56.8373 11.9238 56.7969 11.9297C55.9912 12.0456 55.1792 11.8362 54.5469 11.3672C54.4977 11.3304 54.4745 11.2644 54.4297 11.2266C53.9624 11.237 53.4346 11.1836 52.8828 10.875C52.7447 10.7975 52.644 10.6809 52.5312 10.5938V10.6172L51.4766 10.8516L51.3594 10.875H51.2422C50.6003 10.9056 50.0933 10.7095 49.6719 10.4766C49.4646 10.5067 49.2489 10.5665 49.0156 10.5469L47.8906 10.2188L47.7031 10.125C47.219 9.88238 46.882 9.54976 46.6484 9.25781C46.5798 9.26912 46.51 9.34472 46.4375 9.35156C45.7558 9.4137 45.202 9.24541 44.75 9C44.167 8.95721 43.6129 8.80115 43.1562 8.46094C43.0648 8.39276 43.0233 8.27564 42.9453 8.20312C42.8568 8.16162 42.7676 8.13347 42.6875 8.08594C42.2287 8.16429 41.7002 8.18011 41.1641 7.99219C40.9484 7.91604 40.7724 7.79242 40.6016 7.6875C40.4621 7.77835 40.3285 7.89528 40.1562 7.96875ZM62.8906 17.6016L63.1016 17.2031L63.3125 17.0391H63.4766L62.8906 17.6016ZM27.4062 17.5312L27.3594 17.5547H27.2188L27.2422 17.5312H27.4062ZM59.5625 17.1094L59.5156 17.2031L59.7031 17.1094H59.75L59.7734 17.0859L59.7031 17.1094H59.5625ZM56.6797 17.3438L56.6094 17.3906L56.6328 17.3438H56.6797ZM61.1328 17.0859L61.1562 17.0625L61.1094 17.0859H61.0391L61.0156 17.1328L61.1094 17.0859H61.1328ZM59.5156 17.2031L59.5625 17.1094H59.7031L59.5156 17.2031ZM14.2109 16.4531L14.2578 16.5938L14.3516 16.4766L14.3047 16.3359L14.2109 16.4531ZM61.0156 17.1328L61.0391 17.0859H61.1094L61.0156 17.1328ZM63.4766 17.0391H63.3125L63.7812 16.6406H63.875L63.4766 17.0391ZM61.1797 16.9922L61.2266 16.8281L61.3203 16.7578L61.2266 16.9688L61.1797 16.9922ZM16.5312 16.7578H16.6484L16.5312 16.6875V16.7578ZM61.3203 16.7578L61.2266 16.8281L61.2734 16.6641H61.3672L61.3203 16.7578ZM16.6484 16.7578H16.5312V16.6875L16.6484 16.7578ZM61.3203 16.7578L61.3672 16.6641H61.4141L61.3203 16.7578ZM61.3672 16.6641H61.2734L61.2969 16.5703H61.4141L61.3672 16.6641ZM61.4375 16.6641H61.3672L61.4141 16.5703H61.5547L61.4375 16.6641ZM63.875 16.6406H63.7812L63.9219 16.5234H64.0156L63.875 16.6406ZM63.4297 16.6172L63.5 16.5234H63.5469L63.4297 16.6172ZM61.4609 16.0547L61.4141 16.1953H61.4844L61.5547 16.0547H61.4609ZM14.3516 16.4766L14.2578 16.5938L14.2109 16.4531L14.3047 16.3359L14.3516 16.4766ZM61.4141 16.5703H61.2969L61.1797 16.9922L61.3203 16.7578L61.4375 16.6641L61.5547 16.5703H61.4375V16.5469L61.4141 16.5703ZM63.2188 16.2188L62.6562 16.5469H62.4219L62.8672 16.1953H63.2891L63.2188 16.2188ZM67.0625 15.9844L66.8516 16.2422V16.2656L66.8984 16.2422L67.2266 16.2656L67.5312 16.0078L67.0625 15.9844ZM64.5312 16.3359H64.4844L64.6484 16.1719H64.7422L64.5312 16.3359ZM19.5078 16.2891H19.6484L19.5781 16.2656L19.5078 16.2891ZM19.6484 16.2891H19.5078L19.5781 16.2656L19.6484 16.2891ZM67.5312 16.0078L67.2266 16.2656L66.8984 16.2422L67.2031 15.9844L67.5312 16.0078ZM67.2031 15.9844L66.8984 16.2422H66.8516L67.0625 15.9844H67.2031ZM61.6953 16.125L61.625 16.1953H61.6484V16.1719L61.6953 16.1484V16.125ZM61.4844 16.1953H61.4141L61.4609 16.0547H61.5547L61.4844 16.1953ZM62.8672 16.1719L62.6562 16.1484L62.8672 16.0312H63.0547L62.8672 16.1719ZM63.5234 16.1719H63.3594L63.4062 16.1016L63.5703 16.0078H63.6172L63.5234 16.1719ZM63.6875 16.1719H63.5234L63.6172 16.0078H63.7812L63.6875 16.1719ZM64.7891 16.0312L65.2812 16.0781L65.2109 16.1719H64.6484L64.7891 16.0312ZM63.4062 16.1016L63.4531 16.0078H63.5703L63.4062 16.1016ZM63.6172 16.0078H63.5703L63.6406 15.9609L63.6172 16.0078ZM63.8281 15.9375L63.7812 16.0078H63.6172L63.6406 15.9609L63.7109 15.9375H63.8281ZM63.5703 15.9141L63.4766 15.9844L63.5234 15.9141H63.5703ZM64.0625 15.7266L63.875 15.8203L63.9688 15.6797H64.0625V15.7266ZM65.9375 15.6797L66.0312 15.5156H65.8672L65.75 15.6797H65.3281L65.5391 15.4922H65.6797L65.8672 15.2344L65.3281 15.6797H65.9375ZM61.5312 15.75L61.5547 15.7031H61.5078L61.5312 15.75ZM64.4609 15.7734L64.0625 15.75V15.6797H64.5781L64.4609 15.7734ZM61.5312 15.75L61.5078 15.7031H61.5547L61.5312 15.75ZM63.4766 15.6797H63.4297L63.5938 15.6094L63.4766 15.6797ZM66.0312 15.5156L65.9375 15.6797H65.75L65.8672 15.5156H66.0312ZM65.6797 15.4922H65.5391L65.8672 15.2344L65.6797 15.4922ZM66.2188 14.6953L66.0781 14.9062L66.0547 15L66.0312 15.0703L66.1719 14.9766L66.2188 14.6953ZM66.1484 14.9766L66.0312 15.0703L66.0547 15L66.0781 14.9062L66.1016 14.8594L66.1484 14.9766ZM66.1719 14.9766H66.1484L66.1016 14.8594L66.2188 14.6953L66.1719 14.9766ZM66.2422 14.9062V14.9531L66.3125 14.8359L66.2422 14.9062ZM66.2422 14.9531V14.9062L66.3125 14.8359L66.2422 14.9531ZM76.7656 14.0859L76.7422 14.25L76.8359 14.0859H76.7656ZM76.7656 14.0859H76.8359L76.7656 14.2266H76.7422L76.7656 14.0859ZM4.01562 13.1719L4.39062 13.1953L4.4375 13.4297L4.69531 13.4531L4.64844 13.3359L4.41406 13.3125L4.39062 13.1953H4.57812L4.55469 13.1719H4.25L3.99219 13.1484L4.01562 13.1719ZM4.64844 13.3359L4.69531 13.4531L4.4375 13.4297L4.41406 13.3125L4.64844 13.3359ZM4.57812 13.1953H4.39062L4.36719 13.1719H4.55469L4.57812 13.1953ZM4.25 13.1719H4.36719L4.39062 13.1953L4.01562 13.1719L3.99219 13.1484L4.25 13.1719ZM66.5938 11.0625L66.5234 10.9688L66.3828 11.0859L66.4766 11.1797L66.5938 11.0625ZM14.0234 10.9219L14.7969 11.0391L14.5859 11.2031L14.9141 11.0625L14.7969 11.0391L14.9375 10.8984L14.3984 10.8281L14.4453 10.8047H14.1406L14.0234 10.9219ZM14.9141 11.0625L14.5859 11.2031L14.7969 11.0391L14.9141 11.0625ZM66.5938 11.0625L66.4766 11.1797L66.3828 11.0859L66.5234 10.9688L66.5938 11.0625ZM14.9375 10.8984L14.7969 11.0391L14.2812 10.9453L14.3984 10.8281L14.9375 10.8984ZM15.8047 10.4531L15.5 10.7109H15.8281L15.9922 10.5703L16.1797 10.5L16.1094 10.7109H16.0859L16.0156 10.7344H15.9922L15.9688 10.7578L15.8984 11.0391H16.0156L16.1094 10.7578H16.2266L16.2734 10.5938L16.5078 10.4766H16.2969L16.2734 10.5938L16.1094 10.6875L16.1797 10.5L15.9922 10.5703L16.0391 10.5234L16.1328 10.4531H15.8047ZM16.0156 11.0391H15.8984L15.9688 10.7578H16.1094L16.0156 11.0391ZM13.3672 10.7109L13.2734 10.7812L13.2266 10.8047H13.4375L13.5547 10.8281L13.6719 10.7109H13.3672ZM14.3984 10.8281L14.2812 10.9453L14.0234 10.9219L14.1406 10.8047H14.4453L14.3984 10.8281ZM13.2969 10.7812L13.25 10.8047H13.2266L13.2734 10.7812H13.2969ZM13.4375 10.8047H13.25L13.2969 10.7812L13.4375 10.8047ZM13.6484 10.7344L13.5781 10.8047H13.4375L13.2734 10.7812L13.3672 10.7109H13.4375L13.6484 10.7344ZM16.2734 10.5938L16.2266 10.7578H15.9688L16.0859 10.7109H16.1094V10.6875L16.2734 10.5938ZM20.6328 10.7344H20.7734L20.9141 10.3594H20.7734L20.6328 10.7344ZM20.9141 10.3594L20.7734 10.7344H20.6328L20.7734 10.3594H20.9141ZM14.6094 10.6406L14.75 10.5703H14.6797L14.6094 10.6406ZM15.9219 10.4531L15.6406 10.7109H15.5L15.8047 10.4531H15.9219ZM15.8281 10.7109H15.6406L15.6641 10.6875H15.7344L15.9922 10.5703L15.8281 10.7109ZM16.0625 10.4531L16.0391 10.5234L15.9922 10.5703L15.7344 10.6875H15.6641L15.9219 10.4531H16.0625ZM14.75 10.5703L14.6094 10.6406L14.6797 10.5703H14.75ZM16.5078 10.4766L16.2734 10.5938L16.2969 10.4766H16.5078ZM16.1328 10.4531L16.0391 10.5234L16.0625 10.4531H16.1328ZM18.7578 10.0312L18.5469 10.1953H18.5938L18.5234 10.2422H18.7812L18.8984 10.1953H18.5469L18.7578 10.0312L18.9453 9.89062H18.9219L18.7578 10.0312ZM17.1406 10.1484H16.9297L16.8125 10.1953H16.6016V10.2422H16.9766L17.1406 10.1484ZM16.2969 10.0312L16.2031 10.1016H16.2734L16.1562 10.2188H16.1328L16.1094 10.2656L16.3672 10.2422L16.4141 10.1953H16.3672L16.4141 10.1016H16.2734L16.2969 10.0312ZM68.6328 10.2891L68.7031 10.2422H68.75V10.2188L68.8203 10.0781H68.8438C68.7961 10.1412 68.7649 10.1945 68.75 10.2188L68.7031 10.2422H68.6562L68.6328 10.2891ZM15.8516 10.0781L15.5234 10.2188L15.4297 10.2656H15.6875L15.8984 10.0781H15.8516ZM68.6328 10.2891L68.6562 10.2422H68.7031L68.6328 10.2891ZM15.6875 10.2656H15.4297L15.5234 10.2188H15.7344L15.6875 10.2656ZM16.2734 10.1016L16.2266 10.2422L16.1094 10.2656L16.2734 10.1016ZM16.3672 10.2422H16.2266L16.25 10.1953H16.3672V10.2422ZM16.7188 10.2422H16.6016V10.1953H16.8125L16.7188 10.2422ZM16.9766 10.2422H16.7188L16.8125 10.1953H17.0469L16.9766 10.2422ZM18.7812 10.2422H18.5234L18.5938 10.1953H18.8984L18.7812 10.2422ZM16.3672 10.2422V10.1953H16.4141L16.3672 10.2422ZM15.8984 10.0781L15.7344 10.2188H15.5234L15.8516 10.0781H15.8984ZM16.4141 10.1016L16.3672 10.1953H16.25L16.2734 10.1016H16.4141ZM17.1406 10.1484L17.0469 10.1953H16.8125L16.9297 10.1484H17.1406ZM20.0234 8.88281L19.4609 9.39844H19.7656L20.0938 9.09375L20.4922 8.88281L19.7422 9.75L20.1641 9.53906L20.3047 9.375H20.4922L20.4688 9.46875L20.1172 9.86719H21.1016L21.2891 9.375H20.5391L20.6094 9.30469L20.4688 9.375H20.0703L20.4922 8.88281H20.0234ZM16.2734 10.1016H16.2031L16.2969 10.0312L16.2734 10.1016ZM62.8672 9.96094L62.5625 10.0078L62.9609 9.98438L62.8672 9.96094ZM62.9609 9.98438L62.5625 10.0078L62.7969 9.96094H62.8672L62.9609 9.98438ZM16.4609 9.86719L16.5312 9.82031V9.77344H16.4844L16.4609 9.86719ZM16.2266 9.77344L16.2969 9.72656H16.25L16.2266 9.77344ZM16.5312 9.82031L16.4609 9.86719L16.4844 9.77344H16.5312V9.82031ZM20.3281 9.86719H20.1172L20.4688 9.46875L20.3281 9.86719ZM20.5859 9.86719H20.3281L20.4688 9.46875L20.5391 9.375H20.75L20.5859 9.86719ZM20.9609 9.86719H20.5859L20.75 9.375H21.1484L20.9609 9.86719ZM21.1016 9.86719H20.9609L21.1484 9.375H21.2891L21.1016 9.86719ZM77.7031 9.86719C77.6279 9.84007 77.5496 9.81826 77.4688 9.79688C77.5436 9.80982 77.6165 9.84526 77.7031 9.86719ZM16.2266 9.77344L16.25 9.72656H16.2969L16.2266 9.77344ZM20.1641 9.53906L19.7422 9.75L20.0703 9.375H20.3047L20.1641 9.53906ZM20.4688 9.46875L20.4922 9.375H20.5391L20.4688 9.46875ZM19.7656 9.25781L20.0938 9.09375L19.7656 9.39844H19.4609L20.0234 8.88281H20.2578L19.7656 9.25781ZM20.5391 9.375H20.4922L20.5156 9.35156L20.6094 9.30469L20.5391 9.375ZM25.8125 8.53125L25.7891 8.625L25.9062 8.55469V8.625L26.0469 8.53125L26.0234 8.74219H25.9062V8.69531L25.8828 8.74219H25.7891V8.85938L25.8828 8.74219H26.0234V8.55469L26.0469 8.53125L25.9062 8.625L25.9297 8.39062L25.8125 8.53125ZM26.1875 8.36719L26.0938 8.46094L26.2812 8.36719H26.2578L26.1875 8.41406L26.0938 8.46094L26.1875 8.36719H26.75L26.6797 8.46094L26.8203 8.48438L27.0312 8.39062L26.1875 8.36719ZM20.0938 9.09375L19.7656 9.25781L20.2578 8.88281H20.3281L20.0938 9.09375ZM68.9375 9.07031L69.0078 9.04688L69.0547 8.97656L68.9375 9.07031ZM20.0938 9.09375L20.3281 8.88281H20.4922L20.0938 9.09375ZM69.0078 9.04688L68.9375 9.07031L69.0547 8.97656L69.0078 9.04688ZM21.2188 8.88281L21.1953 8.90625L21.3125 8.95312L21.3359 8.88281H21.2188ZM21.3125 8.95312L21.1953 8.90625L21.2188 8.88281H21.3359L21.3125 8.95312ZM25.8828 8.74219L25.7891 8.85938V8.74219H25.8828ZM25.9062 8.55469L25.7891 8.625L25.8125 8.53125L25.9297 8.39062L25.9062 8.55469ZM20.9141 8.39062H20.9375L21.0547 8.29688L20.9141 8.39062ZM26.9141 8.39062L26.8438 8.48438H26.8203L26.6797 8.46094L26.75 8.36719L26.9141 8.39062ZM27.0312 8.39062L26.8438 8.48438L26.9141 8.39062H27.0312ZM28.2969 8.41406H28.2266L28.3438 8.27344H28.4375L28.2969 8.41406ZM28.2266 8.41406H28.0156L28.1328 8.27344H28.3438L28.2266 8.41406ZM20.9609 8.36719L20.9375 8.39062H20.9141L20.9609 8.34375V8.36719ZM28.9531 8.25H29.0469L29.1172 8.08594L28.9531 8.25ZM29.0469 8.25H28.9531L29.1172 8.08594L29.0469 8.25ZM27.2422 7.82812L26.9844 7.96875L27.125 7.75781H27.2891L27.2422 7.82812ZM25.4844 7.26562H25.8594L25.8828 7.03125L25.4844 7.26562ZM29.2344 7.78125L29.2812 7.6875H29.4219L29.2344 7.78125ZM29.375 7.78125L29.4219 7.6875H29.4688L29.375 7.78125ZM27.125 7.75781H27.0547L27.1719 7.66406L27.125 7.75781ZM27.1719 7.66406L27.4766 7.42969L27.2891 7.75781H27.125L27.1719 7.66406ZM28.5781 7.59375L28.7422 7.40625L28.8828 7.33594L28.6484 7.61719L28.4375 7.71094H28.4141L28.5781 7.59375ZM28.5781 7.71094H28.4375L28.6484 7.61719L28.5781 7.71094ZM28.5781 7.71094L28.8828 7.33594L28.7422 7.40625L28.5781 7.59375L28.4141 7.71094L28.3672 7.75781L28.4375 7.71094H28.5781ZM29.4688 7.6875H29.4219L29.5156 7.64062L29.4688 7.6875ZM29.2812 7.6875L29.2344 7.78125L29.4219 7.6875L29.375 7.78125L29.5156 7.64062L29.4219 7.6875H29.2812ZM27.0547 7.75781H27.125L26.9844 7.96875L27.2422 7.82812L27.4766 7.42969L27.0547 7.75781ZM56.3281 7.61719L56.5156 7.57031L56.4688 7.54688L56.3281 7.61719ZM56.5156 7.57031L56.3281 7.61719L56.4688 7.54688L56.5156 7.57031ZM50.7734 7.00781L50.9609 7.14844H51.0547V6.9375L50.7734 7.00781ZM25.8594 7.26562H25.4844L25.8828 7.03125L25.8594 7.26562ZM49.3438 7.03125L49.25 7.21875L49.4141 7.17188L49.5078 7.00781H49.4844L49.3438 7.03125ZM49.3203 7.19531L49.25 7.21875L49.2734 7.17188L49.3203 7.19531ZM49.5078 7.00781L49.4141 7.17188L49.3203 7.19531L49.2734 7.17188L49.3438 7.03125L49.4844 7.00781H49.5078ZM51.0547 7.14844H50.9609L50.7734 7.00781L51.0547 6.9375V7.14844ZM29.9844 6.84375L29.8672 6.96094L29.6562 7.07812L29.7734 6.82031L29.9844 6.84375ZM32.375 6.07031L32.3047 6.14062L32.0469 6.28125H32.0234V6.30469L32.4453 6.07031H32.375ZM34.4375 6.21094L34.6016 6.14062H34.5547L34.4375 6.21094ZM34.6016 6.14062L34.4375 6.21094L34.5547 6.14062H34.6016ZM32.4453 6.07031L32.3047 6.14062L32.375 6.07031H32.4453ZM32.9609 5.17969L32.5625 5.76562L32.4688 5.625L32.5391 5.55469L32.1875 5.74219L32.375 5.76562L32.4688 5.625L32.5625 5.76562L32.7969 5.41406L32.9844 5.4375L33.1016 5.25L33.125 5.22656L32.9609 5.17969ZM36.5 5.76562H36.5703L36.9453 5.57812H36.9219L36.5 5.76562ZM47.8672 5.64844L47.5625 5.69531H47.8906L47.8672 5.64844ZM32.3984 5.74219L32.375 5.76562L32.1875 5.74219L32.3516 5.64844L32.3984 5.74219ZM36.9453 5.57812L36.5703 5.76562H36.5L36.9219 5.57812H36.9453ZM32.4688 5.625L32.3984 5.74219L32.3516 5.64844L32.5391 5.55469L32.4688 5.625ZM34.9062 5.53125L34.6719 5.69531L34.5781 5.67188L34.5312 5.71875H34.625L34.7891 5.60156L35.2812 5.64844L34.9062 5.53125ZM34.6719 5.69531L34.625 5.71875H34.5312L34.5781 5.67188L34.6719 5.69531ZM37.4844 5.69531L37.6953 5.57812H37.4609L37.4844 5.69531ZM37.5781 5.57812V5.64844L37.4844 5.69531L37.4609 5.57812H37.5781ZM38.5391 5.64844L38.4922 5.67188L38.6094 5.69531L38.6328 5.64844H38.5391ZM38.6328 5.64844L38.6094 5.69531L38.4922 5.67188L38.5391 5.64844H38.6328ZM47.8672 5.64844L47.8906 5.69531H47.5625L47.8672 5.64844ZM35.2812 5.64844L34.7891 5.60156L34.9062 5.53125L35.2812 5.64844ZM37.6953 5.57812L37.5781 5.64844V5.57812H37.6953ZM44.1641 5.36719L44.2344 5.46094L44.3047 5.4375L44.1875 5.36719H44.1641ZM44.3047 5.4375L44.2344 5.46094L44.1641 5.36719H44.1875L44.3047 5.4375ZM32.9844 5.4375L32.7969 5.41406L33.1016 5.25L32.9844 5.4375ZM33.125 5.22656L33.1016 5.25L32.7969 5.41406L32.9609 5.17969L33.125 5.22656ZM40.625 5.01562H40.7422L40.7656 4.99219H40.625V5.01562ZM37.3203 4.5L37.3906 4.80469L37.4844 4.75781L37.4375 4.5H37.3203ZM39.0312 4.85156L38.8906 4.92188H38.8438L38.8906 4.85156L38.7969 4.92188H38.8438V4.94531L38.8906 4.92188H38.9844L39.0312 4.85156ZM40.7422 5.01562H40.625V4.99219H40.7656L40.7422 5.01562ZM38.9844 4.92188H38.8906L39.0312 4.85156L38.9844 4.92188ZM38.8438 4.92188H38.7969L38.8906 4.85156L38.8438 4.92188ZM37.4375 4.5L37.4844 4.75781L37.3906 4.80469L37.3203 4.5H37.4375ZM28.2969 8.41406L28.4375 8.27344H28.1328L28.0156 8.41406H28.2969ZM29.9844 6.84375L29.7734 6.82031L29.6562 7.07812L29.8672 6.96094L29.9844 6.84375Z" fill="#E6C54C"/>
</svg>
